<?xml version="1.0" encoding="utf-8" standalone="no"?>
<!DOCTYPE svg PUBLIC "-//W3C//DTD SVG 1.1//EN"
  "http://www.w3.org/Graphics/SVG/1.1/DTD/svg11.dtd">
<svg xmlns:xlink="http://www.w3.org/1999/xlink" width="1353.6pt" height="360pt" viewBox="0 0 1353.6 360" xmlns="http://www.w3.org/2000/svg" version="1.1">
 <metadata>
  <rdf:RDF xmlns:dc="http://purl.org/dc/elements/1.1/" xmlns:cc="http://creativecommons.org/ns#" xmlns:rdf="http://www.w3.org/1999/02/22-rdf-syntax-ns#">
   <cc:Work>
    <dc:type rdf:resource="http://purl.org/dc/dcmitype/StillImage"/>
    <dc:date>2023-06-30T10:07:44.954303</dc:date>
    <dc:format>image/svg+xml</dc:format>
    <dc:creator>
     <cc:Agent>
      <dc:title>Matplotlib v3.5.1, https://matplotlib.org/</dc:title>
     </cc:Agent>
    </dc:creator>
   </cc:Work>
  </rdf:RDF>
 </metadata>
 <defs>
  <style type="text/css">*{stroke-linejoin: round; stroke-linecap: butt}</style>
 </defs>
 <g id="figure_1">
  <g id="patch_1">
   <path d="M 0 360 
L 1353.6 360 
L 1353.6 0 
L 0 0 
z
" style="fill: #ffffff"/>
  </g>
  <g id="axes_1">
   <g id="patch_2">
    <path d="M 87.984 279 
L 436.959 279 
L 436.959 36 
L 87.984 36 
z
" style="fill: #ffffff"/>
   </g>
   <g id="patch_3">
    <path d="M 103.8465 279 
L 124.9965 279 
L 124.9965 261.642857 
L 103.8465 261.642857 
z
" clip-path="url(#pdfd91b7a1c)" style="fill: #00ff00; fill-opacity: 0.4; stroke: #000000; stroke-linejoin: miter"/>
   </g>
   <g id="patch_4">
    <path d="M 124.9965 279 
L 146.1465 279 
L 146.1465 264.535714 
L 124.9965 264.535714 
z
" clip-path="url(#pdfd91b7a1c)" style="fill: #00ff00; fill-opacity: 0.4; stroke: #000000; stroke-linejoin: miter"/>
   </g>
   <g id="patch_5">
    <path d="M 146.1465 279 
L 167.2965 279 
L 167.2965 258.75 
L 146.1465 258.75 
z
" clip-path="url(#pdfd91b7a1c)" style="fill: #00ff00; fill-opacity: 0.4; stroke: #000000; stroke-linejoin: miter"/>
   </g>
   <g id="patch_6">
    <path d="M 167.2965 279 
L 188.4465 279 
L 188.4465 252.964286 
L 167.2965 252.964286 
z
" clip-path="url(#pdfd91b7a1c)" style="fill: #00ff00; fill-opacity: 0.4; stroke: #000000; stroke-linejoin: miter"/>
   </g>
   <g id="patch_7">
    <path d="M 188.4465 279 
L 209.5965 279 
L 209.5965 215.357143 
L 188.4465 215.357143 
z
" clip-path="url(#pdfd91b7a1c)" style="fill: #00ff00; fill-opacity: 0.4; stroke: #000000; stroke-linejoin: miter"/>
   </g>
   <g id="patch_8">
    <path d="M 209.5965 279 
L 230.7465 279 
L 230.7465 212.464286 
L 209.5965 212.464286 
z
" clip-path="url(#pdfd91b7a1c)" style="fill: #00ff00; fill-opacity: 0.4; stroke: #000000; stroke-linejoin: miter"/>
   </g>
   <g id="patch_9">
    <path d="M 230.7465 279 
L 251.8965 279 
L 251.8965 218.25 
L 230.7465 218.25 
z
" clip-path="url(#pdfd91b7a1c)" style="fill: #00ff00; fill-opacity: 0.4; stroke: #000000; stroke-linejoin: miter"/>
   </g>
   <g id="patch_10">
    <path d="M 251.8965 279 
L 273.0465 279 
L 273.0465 241.392857 
L 251.8965 241.392857 
z
" clip-path="url(#pdfd91b7a1c)" style="fill: #00ff00; fill-opacity: 0.4; stroke: #000000; stroke-linejoin: miter"/>
   </g>
   <g id="patch_11">
    <path d="M 273.0465 279 
L 294.1965 279 
L 294.1965 255.857143 
L 273.0465 255.857143 
z
" clip-path="url(#pdfd91b7a1c)" style="fill: #00ff00; fill-opacity: 0.4; stroke: #000000; stroke-linejoin: miter"/>
   </g>
   <g id="patch_12">
    <path d="M 294.1965 279 
L 315.3465 279 
L 315.3465 258.75 
L 294.1965 258.75 
z
" clip-path="url(#pdfd91b7a1c)" style="fill: #00ff00; fill-opacity: 0.4; stroke: #000000; stroke-linejoin: miter"/>
   </g>
   <g id="patch_13">
    <path d="M 315.3465 279 
L 336.4965 279 
L 336.4965 261.642857 
L 315.3465 261.642857 
z
" clip-path="url(#pdfd91b7a1c)" style="fill: #00ff00; fill-opacity: 0.4; stroke: #000000; stroke-linejoin: miter"/>
   </g>
   <g id="patch_14">
    <path d="M 336.4965 279 
L 357.6465 279 
L 357.6465 276.107143 
L 336.4965 276.107143 
z
" clip-path="url(#pdfd91b7a1c)" style="fill: #00ff00; fill-opacity: 0.4; stroke: #000000; stroke-linejoin: miter"/>
   </g>
   <g id="patch_15">
    <path d="M 357.6465 279 
L 378.7965 279 
L 378.7965 276.107143 
L 357.6465 276.107143 
z
" clip-path="url(#pdfd91b7a1c)" style="fill: #00ff00; fill-opacity: 0.4; stroke: #000000; stroke-linejoin: miter"/>
   </g>
   <g id="patch_16">
    <path d="M 378.7965 279 
L 399.9465 279 
L 399.9465 279 
L 378.7965 279 
z
" clip-path="url(#pdfd91b7a1c)" style="fill: #00ff00; fill-opacity: 0.4; stroke: #000000; stroke-linejoin: miter"/>
   </g>
   <g id="patch_17">
    <path d="M 399.9465 279 
L 421.0965 279 
L 421.0965 276.107143 
L 399.9465 276.107143 
z
" clip-path="url(#pdfd91b7a1c)" style="fill: #00ff00; fill-opacity: 0.4; stroke: #000000; stroke-linejoin: miter"/>
   </g>
   <g id="patch_18">
    <path d="M 103.8465 261.642857 
L 124.9965 261.642857 
L 124.9965 261.642857 
L 103.8465 261.642857 
z
" clip-path="url(#pdfd91b7a1c)" style="fill: #9933ff; fill-opacity: 0.4; stroke: #000000; stroke-linejoin: miter"/>
   </g>
   <g id="patch_19">
    <path d="M 124.9965 264.535714 
L 146.1465 264.535714 
L 146.1465 264.535714 
L 124.9965 264.535714 
z
" clip-path="url(#pdfd91b7a1c)" style="fill: #9933ff; fill-opacity: 0.4; stroke: #000000; stroke-linejoin: miter"/>
   </g>
   <g id="patch_20">
    <path d="M 146.1465 258.75 
L 167.2965 258.75 
L 167.2965 258.75 
L 146.1465 258.75 
z
" clip-path="url(#pdfd91b7a1c)" style="fill: #9933ff; fill-opacity: 0.4; stroke: #000000; stroke-linejoin: miter"/>
   </g>
   <g id="patch_21">
    <path d="M 167.2965 252.964286 
L 188.4465 252.964286 
L 188.4465 250.071429 
L 167.2965 250.071429 
z
" clip-path="url(#pdfd91b7a1c)" style="fill: #9933ff; fill-opacity: 0.4; stroke: #000000; stroke-linejoin: miter"/>
   </g>
   <g id="patch_22">
    <path d="M 188.4465 215.357143 
L 209.5965 215.357143 
L 209.5965 212.464286 
L 188.4465 212.464286 
z
" clip-path="url(#pdfd91b7a1c)" style="fill: #9933ff; fill-opacity: 0.4; stroke: #000000; stroke-linejoin: miter"/>
   </g>
   <g id="patch_23">
    <path d="M 209.5965 212.464286 
L 230.7465 212.464286 
L 230.7465 186.428571 
L 209.5965 186.428571 
z
" clip-path="url(#pdfd91b7a1c)" style="fill: #9933ff; fill-opacity: 0.4; stroke: #000000; stroke-linejoin: miter"/>
   </g>
   <g id="patch_24">
    <path d="M 230.7465 218.25 
L 251.8965 218.25 
L 251.8965 128.571429 
L 230.7465 128.571429 
z
" clip-path="url(#pdfd91b7a1c)" style="fill: #9933ff; fill-opacity: 0.4; stroke: #000000; stroke-linejoin: miter"/>
   </g>
   <g id="patch_25">
    <path d="M 251.8965 241.392857 
L 273.0465 241.392857 
L 273.0465 119.892857 
L 251.8965 119.892857 
z
" clip-path="url(#pdfd91b7a1c)" style="fill: #9933ff; fill-opacity: 0.4; stroke: #000000; stroke-linejoin: miter"/>
   </g>
   <g id="patch_26">
    <path d="M 273.0465 255.857143 
L 294.1965 255.857143 
L 294.1965 177.75 
L 273.0465 177.75 
z
" clip-path="url(#pdfd91b7a1c)" style="fill: #9933ff; fill-opacity: 0.4; stroke: #000000; stroke-linejoin: miter"/>
   </g>
   <g id="patch_27">
    <path d="M 294.1965 258.75 
L 315.3465 258.75 
L 315.3465 232.714286 
L 294.1965 232.714286 
z
" clip-path="url(#pdfd91b7a1c)" style="fill: #9933ff; fill-opacity: 0.4; stroke: #000000; stroke-linejoin: miter"/>
   </g>
   <g id="patch_28">
    <path d="M 315.3465 261.642857 
L 336.4965 261.642857 
L 336.4965 252.964286 
L 315.3465 252.964286 
z
" clip-path="url(#pdfd91b7a1c)" style="fill: #9933ff; fill-opacity: 0.4; stroke: #000000; stroke-linejoin: miter"/>
   </g>
   <g id="patch_29">
    <path d="M 336.4965 276.107143 
L 357.6465 276.107143 
L 357.6465 261.642857 
L 336.4965 261.642857 
z
" clip-path="url(#pdfd91b7a1c)" style="fill: #9933ff; fill-opacity: 0.4; stroke: #000000; stroke-linejoin: miter"/>
   </g>
   <g id="patch_30">
    <path d="M 357.6465 276.107143 
L 378.7965 276.107143 
L 378.7965 270.321429 
L 357.6465 270.321429 
z
" clip-path="url(#pdfd91b7a1c)" style="fill: #9933ff; fill-opacity: 0.4; stroke: #000000; stroke-linejoin: miter"/>
   </g>
   <g id="patch_31">
    <path d="M 378.7965 279 
L 399.9465 279 
L 399.9465 279 
L 378.7965 279 
z
" clip-path="url(#pdfd91b7a1c)" style="fill: #9933ff; fill-opacity: 0.4; stroke: #000000; stroke-linejoin: miter"/>
   </g>
   <g id="patch_32">
    <path d="M 399.9465 276.107143 
L 421.0965 276.107143 
L 421.0965 276.107143 
L 399.9465 276.107143 
z
" clip-path="url(#pdfd91b7a1c)" style="fill: #9933ff; fill-opacity: 0.4; stroke: #000000; stroke-linejoin: miter"/>
   </g>
   <g id="matplotlib.axis_1">
    <g id="xtick_1">
     <g id="line2d_1">
      <defs>
       <path id="m6f4c344ded" d="M 0 0 
L 0 3.5 
" style="stroke: #000000; stroke-width: 3"/>
      </defs>
      <g>
       <use xlink:href="#m6f4c344ded" x="106.877664" y="279" style="stroke: #000000; stroke-width: 3"/>
      </g>
     </g>
     <g id="text_1">
      <!-- −0.8 -->
      <g transform="translate(85.023133 299.677188)scale(0.18 -0.18)">
       <defs>
        <path id="DejaVuSans-2212" d="M 678 2272 
L 4684 2272 
L 4684 1741 
L 678 1741 
L 678 2272 
z
" transform="scale(0.015625)"/>
        <path id="DejaVuSans-30" d="M 2034 4250 
Q 1547 4250 1301 3770 
Q 1056 3291 1056 2328 
Q 1056 1369 1301 889 
Q 1547 409 2034 409 
Q 2525 409 2770 889 
Q 3016 1369 3016 2328 
Q 3016 3291 2770 3770 
Q 2525 4250 2034 4250 
z
M 2034 4750 
Q 2819 4750 3233 4129 
Q 3647 3509 3647 2328 
Q 3647 1150 3233 529 
Q 2819 -91 2034 -91 
Q 1250 -91 836 529 
Q 422 1150 422 2328 
Q 422 3509 836 4129 
Q 1250 4750 2034 4750 
z
" transform="scale(0.015625)"/>
        <path id="DejaVuSans-2e" d="M 684 794 
L 1344 794 
L 1344 0 
L 684 0 
L 684 794 
z
" transform="scale(0.015625)"/>
        <path id="DejaVuSans-38" d="M 2034 2216 
Q 1584 2216 1326 1975 
Q 1069 1734 1069 1313 
Q 1069 891 1326 650 
Q 1584 409 2034 409 
Q 2484 409 2743 651 
Q 3003 894 3003 1313 
Q 3003 1734 2745 1975 
Q 2488 2216 2034 2216 
z
M 1403 2484 
Q 997 2584 770 2862 
Q 544 3141 544 3541 
Q 544 4100 942 4425 
Q 1341 4750 2034 4750 
Q 2731 4750 3128 4425 
Q 3525 4100 3525 3541 
Q 3525 3141 3298 2862 
Q 3072 2584 2669 2484 
Q 3125 2378 3379 2068 
Q 3634 1759 3634 1313 
Q 3634 634 3220 271 
Q 2806 -91 2034 -91 
Q 1263 -91 848 271 
Q 434 634 434 1313 
Q 434 1759 690 2068 
Q 947 2378 1403 2484 
z
M 1172 3481 
Q 1172 3119 1398 2916 
Q 1625 2713 2034 2713 
Q 2441 2713 2670 2916 
Q 2900 3119 2900 3481 
Q 2900 3844 2670 4047 
Q 2441 4250 2034 4250 
Q 1625 4250 1398 4047 
Q 1172 3844 1172 3481 
z
" transform="scale(0.015625)"/>
       </defs>
       <use xlink:href="#DejaVuSans-2212"/>
       <use xlink:href="#DejaVuSans-30" x="83.789062"/>
       <use xlink:href="#DejaVuSans-2e" x="147.412109"/>
       <use xlink:href="#DejaVuSans-38" x="179.199219"/>
      </g>
     </g>
    </g>
    <g id="xtick_2">
     <g id="line2d_2">
      <g>
       <use xlink:href="#m6f4c344ded" x="204.904917" y="279" style="stroke: #000000; stroke-width: 3"/>
      </g>
     </g>
     <g id="text_2">
      <!-- −0.6 -->
      <g transform="translate(183.050386 299.677188)scale(0.18 -0.18)">
       <defs>
        <path id="DejaVuSans-36" d="M 2113 2584 
Q 1688 2584 1439 2293 
Q 1191 2003 1191 1497 
Q 1191 994 1439 701 
Q 1688 409 2113 409 
Q 2538 409 2786 701 
Q 3034 994 3034 1497 
Q 3034 2003 2786 2293 
Q 2538 2584 2113 2584 
z
M 3366 4563 
L 3366 3988 
Q 3128 4100 2886 4159 
Q 2644 4219 2406 4219 
Q 1781 4219 1451 3797 
Q 1122 3375 1075 2522 
Q 1259 2794 1537 2939 
Q 1816 3084 2150 3084 
Q 2853 3084 3261 2657 
Q 3669 2231 3669 1497 
Q 3669 778 3244 343 
Q 2819 -91 2113 -91 
Q 1303 -91 875 529 
Q 447 1150 447 2328 
Q 447 3434 972 4092 
Q 1497 4750 2381 4750 
Q 2619 4750 2861 4703 
Q 3103 4656 3366 4563 
z
" transform="scale(0.015625)"/>
       </defs>
       <use xlink:href="#DejaVuSans-2212"/>
       <use xlink:href="#DejaVuSans-30" x="83.789062"/>
       <use xlink:href="#DejaVuSans-2e" x="147.412109"/>
       <use xlink:href="#DejaVuSans-36" x="179.199219"/>
      </g>
     </g>
    </g>
    <g id="xtick_3">
     <g id="line2d_3">
      <g>
       <use xlink:href="#m6f4c344ded" x="302.93217" y="279" style="stroke: #000000; stroke-width: 3"/>
      </g>
     </g>
     <g id="text_3">
      <!-- −0.4 -->
      <g transform="translate(281.077639 299.677188)scale(0.18 -0.18)">
       <defs>
        <path id="DejaVuSans-34" d="M 2419 4116 
L 825 1625 
L 2419 1625 
L 2419 4116 
z
M 2253 4666 
L 3047 4666 
L 3047 1625 
L 3713 1625 
L 3713 1100 
L 3047 1100 
L 3047 0 
L 2419 0 
L 2419 1100 
L 313 1100 
L 313 1709 
L 2253 4666 
z
" transform="scale(0.015625)"/>
       </defs>
       <use xlink:href="#DejaVuSans-2212"/>
       <use xlink:href="#DejaVuSans-30" x="83.789062"/>
       <use xlink:href="#DejaVuSans-2e" x="147.412109"/>
       <use xlink:href="#DejaVuSans-34" x="179.199219"/>
      </g>
     </g>
    </g>
    <g id="xtick_4">
     <g id="line2d_4">
      <g>
       <use xlink:href="#m6f4c344ded" x="400.959423" y="279" style="stroke: #000000; stroke-width: 3"/>
      </g>
     </g>
     <g id="text_4">
      <!-- −0.2 -->
      <g transform="translate(379.104892 299.677188)scale(0.18 -0.18)">
       <defs>
        <path id="DejaVuSans-32" d="M 1228 531 
L 3431 531 
L 3431 0 
L 469 0 
L 469 531 
Q 828 903 1448 1529 
Q 2069 2156 2228 2338 
Q 2531 2678 2651 2914 
Q 2772 3150 2772 3378 
Q 2772 3750 2511 3984 
Q 2250 4219 1831 4219 
Q 1534 4219 1204 4116 
Q 875 4013 500 3803 
L 500 4441 
Q 881 4594 1212 4672 
Q 1544 4750 1819 4750 
Q 2544 4750 2975 4387 
Q 3406 4025 3406 3419 
Q 3406 3131 3298 2873 
Q 3191 2616 2906 2266 
Q 2828 2175 2409 1742 
Q 1991 1309 1228 531 
z
" transform="scale(0.015625)"/>
       </defs>
       <use xlink:href="#DejaVuSans-2212"/>
       <use xlink:href="#DejaVuSans-30" x="83.789062"/>
       <use xlink:href="#DejaVuSans-2e" x="147.412109"/>
       <use xlink:href="#DejaVuSans-32" x="179.199219"/>
      </g>
     </g>
    </g>
    <g id="text_5">
     <!-- Self-Coupling Coefficient ($\alpha_{i,i}$) -->
     <g transform="translate(128.6415 321.100625)scale(0.18 -0.18)">
      <defs>
       <path id="DejaVuSans-53" d="M 3425 4513 
L 3425 3897 
Q 3066 4069 2747 4153 
Q 2428 4238 2131 4238 
Q 1616 4238 1336 4038 
Q 1056 3838 1056 3469 
Q 1056 3159 1242 3001 
Q 1428 2844 1947 2747 
L 2328 2669 
Q 3034 2534 3370 2195 
Q 3706 1856 3706 1288 
Q 3706 609 3251 259 
Q 2797 -91 1919 -91 
Q 1588 -91 1214 -16 
Q 841 59 441 206 
L 441 856 
Q 825 641 1194 531 
Q 1563 422 1919 422 
Q 2459 422 2753 634 
Q 3047 847 3047 1241 
Q 3047 1584 2836 1778 
Q 2625 1972 2144 2069 
L 1759 2144 
Q 1053 2284 737 2584 
Q 422 2884 422 3419 
Q 422 4038 858 4394 
Q 1294 4750 2059 4750 
Q 2388 4750 2728 4690 
Q 3069 4631 3425 4513 
z
" transform="scale(0.015625)"/>
       <path id="DejaVuSans-65" d="M 3597 1894 
L 3597 1613 
L 953 1613 
Q 991 1019 1311 708 
Q 1631 397 2203 397 
Q 2534 397 2845 478 
Q 3156 559 3463 722 
L 3463 178 
Q 3153 47 2828 -22 
Q 2503 -91 2169 -91 
Q 1331 -91 842 396 
Q 353 884 353 1716 
Q 353 2575 817 3079 
Q 1281 3584 2069 3584 
Q 2775 3584 3186 3129 
Q 3597 2675 3597 1894 
z
M 3022 2063 
Q 3016 2534 2758 2815 
Q 2500 3097 2075 3097 
Q 1594 3097 1305 2825 
Q 1016 2553 972 2059 
L 3022 2063 
z
" transform="scale(0.015625)"/>
       <path id="DejaVuSans-6c" d="M 603 4863 
L 1178 4863 
L 1178 0 
L 603 0 
L 603 4863 
z
" transform="scale(0.015625)"/>
       <path id="DejaVuSans-66" d="M 2375 4863 
L 2375 4384 
L 1825 4384 
Q 1516 4384 1395 4259 
Q 1275 4134 1275 3809 
L 1275 3500 
L 2222 3500 
L 2222 3053 
L 1275 3053 
L 1275 0 
L 697 0 
L 697 3053 
L 147 3053 
L 147 3500 
L 697 3500 
L 697 3744 
Q 697 4328 969 4595 
Q 1241 4863 1831 4863 
L 2375 4863 
z
" transform="scale(0.015625)"/>
       <path id="DejaVuSans-2d" d="M 313 2009 
L 1997 2009 
L 1997 1497 
L 313 1497 
L 313 2009 
z
" transform="scale(0.015625)"/>
       <path id="DejaVuSans-43" d="M 4122 4306 
L 4122 3641 
Q 3803 3938 3442 4084 
Q 3081 4231 2675 4231 
Q 1875 4231 1450 3742 
Q 1025 3253 1025 2328 
Q 1025 1406 1450 917 
Q 1875 428 2675 428 
Q 3081 428 3442 575 
Q 3803 722 4122 1019 
L 4122 359 
Q 3791 134 3420 21 
Q 3050 -91 2638 -91 
Q 1578 -91 968 557 
Q 359 1206 359 2328 
Q 359 3453 968 4101 
Q 1578 4750 2638 4750 
Q 3056 4750 3426 4639 
Q 3797 4528 4122 4306 
z
" transform="scale(0.015625)"/>
       <path id="DejaVuSans-6f" d="M 1959 3097 
Q 1497 3097 1228 2736 
Q 959 2375 959 1747 
Q 959 1119 1226 758 
Q 1494 397 1959 397 
Q 2419 397 2687 759 
Q 2956 1122 2956 1747 
Q 2956 2369 2687 2733 
Q 2419 3097 1959 3097 
z
M 1959 3584 
Q 2709 3584 3137 3096 
Q 3566 2609 3566 1747 
Q 3566 888 3137 398 
Q 2709 -91 1959 -91 
Q 1206 -91 779 398 
Q 353 888 353 1747 
Q 353 2609 779 3096 
Q 1206 3584 1959 3584 
z
" transform="scale(0.015625)"/>
       <path id="DejaVuSans-75" d="M 544 1381 
L 544 3500 
L 1119 3500 
L 1119 1403 
Q 1119 906 1312 657 
Q 1506 409 1894 409 
Q 2359 409 2629 706 
Q 2900 1003 2900 1516 
L 2900 3500 
L 3475 3500 
L 3475 0 
L 2900 0 
L 2900 538 
Q 2691 219 2414 64 
Q 2138 -91 1772 -91 
Q 1169 -91 856 284 
Q 544 659 544 1381 
z
M 1991 3584 
L 1991 3584 
z
" transform="scale(0.015625)"/>
       <path id="DejaVuSans-70" d="M 1159 525 
L 1159 -1331 
L 581 -1331 
L 581 3500 
L 1159 3500 
L 1159 2969 
Q 1341 3281 1617 3432 
Q 1894 3584 2278 3584 
Q 2916 3584 3314 3078 
Q 3713 2572 3713 1747 
Q 3713 922 3314 415 
Q 2916 -91 2278 -91 
Q 1894 -91 1617 61 
Q 1341 213 1159 525 
z
M 3116 1747 
Q 3116 2381 2855 2742 
Q 2594 3103 2138 3103 
Q 1681 3103 1420 2742 
Q 1159 2381 1159 1747 
Q 1159 1113 1420 752 
Q 1681 391 2138 391 
Q 2594 391 2855 752 
Q 3116 1113 3116 1747 
z
" transform="scale(0.015625)"/>
       <path id="DejaVuSans-69" d="M 603 3500 
L 1178 3500 
L 1178 0 
L 603 0 
L 603 3500 
z
M 603 4863 
L 1178 4863 
L 1178 4134 
L 603 4134 
L 603 4863 
z
" transform="scale(0.015625)"/>
       <path id="DejaVuSans-6e" d="M 3513 2113 
L 3513 0 
L 2938 0 
L 2938 2094 
Q 2938 2591 2744 2837 
Q 2550 3084 2163 3084 
Q 1697 3084 1428 2787 
Q 1159 2491 1159 1978 
L 1159 0 
L 581 0 
L 581 3500 
L 1159 3500 
L 1159 2956 
Q 1366 3272 1645 3428 
Q 1925 3584 2291 3584 
Q 2894 3584 3203 3211 
Q 3513 2838 3513 2113 
z
" transform="scale(0.015625)"/>
       <path id="DejaVuSans-67" d="M 2906 1791 
Q 2906 2416 2648 2759 
Q 2391 3103 1925 3103 
Q 1463 3103 1205 2759 
Q 947 2416 947 1791 
Q 947 1169 1205 825 
Q 1463 481 1925 481 
Q 2391 481 2648 825 
Q 2906 1169 2906 1791 
z
M 3481 434 
Q 3481 -459 3084 -895 
Q 2688 -1331 1869 -1331 
Q 1566 -1331 1297 -1286 
Q 1028 -1241 775 -1147 
L 775 -588 
Q 1028 -725 1275 -790 
Q 1522 -856 1778 -856 
Q 2344 -856 2625 -561 
Q 2906 -266 2906 331 
L 2906 616 
Q 2728 306 2450 153 
Q 2172 0 1784 0 
Q 1141 0 747 490 
Q 353 981 353 1791 
Q 353 2603 747 3093 
Q 1141 3584 1784 3584 
Q 2172 3584 2450 3431 
Q 2728 3278 2906 2969 
L 2906 3500 
L 3481 3500 
L 3481 434 
z
" transform="scale(0.015625)"/>
       <path id="DejaVuSans-20" transform="scale(0.015625)"/>
       <path id="DejaVuSans-63" d="M 3122 3366 
L 3122 2828 
Q 2878 2963 2633 3030 
Q 2388 3097 2138 3097 
Q 1578 3097 1268 2742 
Q 959 2388 959 1747 
Q 959 1106 1268 751 
Q 1578 397 2138 397 
Q 2388 397 2633 464 
Q 2878 531 3122 666 
L 3122 134 
Q 2881 22 2623 -34 
Q 2366 -91 2075 -91 
Q 1284 -91 818 406 
Q 353 903 353 1747 
Q 353 2603 823 3093 
Q 1294 3584 2113 3584 
Q 2378 3584 2631 3529 
Q 2884 3475 3122 3366 
z
" transform="scale(0.015625)"/>
       <path id="DejaVuSans-74" d="M 1172 4494 
L 1172 3500 
L 2356 3500 
L 2356 3053 
L 1172 3053 
L 1172 1153 
Q 1172 725 1289 603 
Q 1406 481 1766 481 
L 2356 481 
L 2356 0 
L 1766 0 
Q 1100 0 847 248 
Q 594 497 594 1153 
L 594 3053 
L 172 3053 
L 172 3500 
L 594 3500 
L 594 4494 
L 1172 4494 
z
" transform="scale(0.015625)"/>
       <path id="DejaVuSans-28" d="M 1984 4856 
Q 1566 4138 1362 3434 
Q 1159 2731 1159 2009 
Q 1159 1288 1364 580 
Q 1569 -128 1984 -844 
L 1484 -844 
Q 1016 -109 783 600 
Q 550 1309 550 2009 
Q 550 2706 781 3412 
Q 1013 4119 1484 4856 
L 1984 4856 
z
" transform="scale(0.015625)"/>
       <path id="DejaVuSans-Oblique-3b1" d="M 2619 1628 
L 2622 2350 
Q 2625 3088 2069 3091 
Q 1653 3094 1394 2747 
Q 1069 2319 959 1747 
Q 825 1059 994 731 
Q 1169 397 1547 397 
Q 1966 397 2319 1063 
L 2619 1628 
z
M 2166 3578 
Q 3141 3594 3128 2584 
Q 3128 2584 3616 3500 
L 4128 3500 
L 3119 1603 
L 3109 919 
Q 3109 766 3194 638 
Q 3291 488 3391 488 
L 3669 488 
L 3575 0 
L 3228 0 
Q 2934 0 2722 263 
Q 2622 394 2619 669 
Q 2416 334 2066 50 
Q 1900 -81 1453 -78 
Q 722 -72 456 397 
Q 184 884 353 1747 
Q 534 2675 1009 3097 
Q 1544 3569 2166 3578 
z
" transform="scale(0.015625)"/>
       <path id="DejaVuSans-Oblique-69" d="M 1172 4863 
L 1747 4863 
L 1606 4134 
L 1031 4134 
L 1172 4863 
z
M 909 3500 
L 1484 3500 
L 800 0 
L 225 0 
L 909 3500 
z
" transform="scale(0.015625)"/>
       <path id="DejaVuSans-2c" d="M 750 794 
L 1409 794 
L 1409 256 
L 897 -744 
L 494 -744 
L 750 256 
L 750 794 
z
" transform="scale(0.015625)"/>
       <path id="DejaVuSans-29" d="M 513 4856 
L 1013 4856 
Q 1481 4119 1714 3412 
Q 1947 2706 1947 2009 
Q 1947 1309 1714 600 
Q 1481 -109 1013 -844 
L 513 -844 
Q 928 -128 1133 580 
Q 1338 1288 1338 2009 
Q 1338 2731 1133 3434 
Q 928 4138 513 4856 
z
" transform="scale(0.015625)"/>
      </defs>
      <use xlink:href="#DejaVuSans-53" transform="translate(0 0.015625)"/>
      <use xlink:href="#DejaVuSans-65" transform="translate(63.476562 0.015625)"/>
      <use xlink:href="#DejaVuSans-6c" transform="translate(125 0.015625)"/>
      <use xlink:href="#DejaVuSans-66" transform="translate(152.783203 0.015625)"/>
      <use xlink:href="#DejaVuSans-2d" transform="translate(187.988281 0.015625)"/>
      <use xlink:href="#DejaVuSans-43" transform="translate(224.072266 0.015625)"/>
      <use xlink:href="#DejaVuSans-6f" transform="translate(293.896484 0.015625)"/>
      <use xlink:href="#DejaVuSans-75" transform="translate(355.078125 0.015625)"/>
      <use xlink:href="#DejaVuSans-70" transform="translate(418.457031 0.015625)"/>
      <use xlink:href="#DejaVuSans-6c" transform="translate(481.933594 0.015625)"/>
      <use xlink:href="#DejaVuSans-69" transform="translate(509.716797 0.015625)"/>
      <use xlink:href="#DejaVuSans-6e" transform="translate(537.5 0.015625)"/>
      <use xlink:href="#DejaVuSans-67" transform="translate(600.878906 0.015625)"/>
      <use xlink:href="#DejaVuSans-20" transform="translate(664.355469 0.015625)"/>
      <use xlink:href="#DejaVuSans-43" transform="translate(696.142578 0.015625)"/>
      <use xlink:href="#DejaVuSans-6f" transform="translate(765.966797 0.015625)"/>
      <use xlink:href="#DejaVuSans-65" transform="translate(827.148438 0.015625)"/>
      <use xlink:href="#DejaVuSans-66" transform="translate(888.671875 0.015625)"/>
      <use xlink:href="#DejaVuSans-66" transform="translate(923.876953 0.015625)"/>
      <use xlink:href="#DejaVuSans-69" transform="translate(959.082031 0.015625)"/>
      <use xlink:href="#DejaVuSans-63" transform="translate(986.865234 0.015625)"/>
      <use xlink:href="#DejaVuSans-69" transform="translate(1041.845703 0.015625)"/>
      <use xlink:href="#DejaVuSans-65" transform="translate(1069.628906 0.015625)"/>
      <use xlink:href="#DejaVuSans-6e" transform="translate(1131.152344 0.015625)"/>
      <use xlink:href="#DejaVuSans-74" transform="translate(1194.53125 0.015625)"/>
      <use xlink:href="#DejaVuSans-20" transform="translate(1233.740234 0.015625)"/>
      <use xlink:href="#DejaVuSans-28" transform="translate(1265.527344 0.015625)"/>
      <use xlink:href="#DejaVuSans-Oblique-3b1" transform="translate(1304.541016 0.015625)"/>
      <use xlink:href="#DejaVuSans-Oblique-69" transform="translate(1370.458984 -16.390625)scale(0.7)"/>
      <use xlink:href="#DejaVuSans-2c" transform="translate(1389.907227 -16.390625)scale(0.7)"/>
      <use xlink:href="#DejaVuSans-Oblique-69" transform="translate(1425.795898 -16.390625)scale(0.7)"/>
      <use xlink:href="#DejaVuSans-29" transform="translate(1447.978516 0.015625)"/>
     </g>
    </g>
   </g>
   <g id="matplotlib.axis_2">
    <g id="ytick_1">
     <g id="line2d_5">
      <defs>
       <path id="md0df1f8d7d" d="M 0 0 
L -3.5 0 
" style="stroke: #000000; stroke-width: 3"/>
      </defs>
      <g>
       <use xlink:href="#md0df1f8d7d" x="87.984" y="279" style="stroke: #000000; stroke-width: 3"/>
      </g>
     </g>
     <g id="text_6">
      <!-- 0 -->
      <g transform="translate(69.5315 285.838594)scale(0.18 -0.18)">
       <use xlink:href="#DejaVuSans-30"/>
      </g>
     </g>
    </g>
    <g id="ytick_2">
     <g id="line2d_6">
      <g>
       <use xlink:href="#md0df1f8d7d" x="87.984" y="221.142857" style="stroke: #000000; stroke-width: 3"/>
      </g>
     </g>
     <g id="text_7">
      <!-- 20 -->
      <g transform="translate(58.079 227.981451)scale(0.18 -0.18)">
       <use xlink:href="#DejaVuSans-32"/>
       <use xlink:href="#DejaVuSans-30" x="63.623047"/>
      </g>
     </g>
    </g>
    <g id="ytick_3">
     <g id="line2d_7">
      <g>
       <use xlink:href="#md0df1f8d7d" x="87.984" y="163.285714" style="stroke: #000000; stroke-width: 3"/>
      </g>
     </g>
     <g id="text_8">
      <!-- 40 -->
      <g transform="translate(58.079 170.124308)scale(0.18 -0.18)">
       <use xlink:href="#DejaVuSans-34"/>
       <use xlink:href="#DejaVuSans-30" x="63.623047"/>
      </g>
     </g>
    </g>
    <g id="ytick_4">
     <g id="line2d_8">
      <g>
       <use xlink:href="#md0df1f8d7d" x="87.984" y="105.428571" style="stroke: #000000; stroke-width: 3"/>
      </g>
     </g>
     <g id="text_9">
      <!-- 60 -->
      <g transform="translate(58.079 112.267165)scale(0.18 -0.18)">
       <use xlink:href="#DejaVuSans-36"/>
       <use xlink:href="#DejaVuSans-30" x="63.623047"/>
      </g>
     </g>
    </g>
    <g id="ytick_5">
     <g id="line2d_9">
      <g>
       <use xlink:href="#md0df1f8d7d" x="87.984" y="47.571429" style="stroke: #000000; stroke-width: 3"/>
      </g>
     </g>
     <g id="text_10">
      <!-- 80 -->
      <g transform="translate(58.079 54.410022)scale(0.18 -0.18)">
       <use xlink:href="#DejaVuSans-38"/>
       <use xlink:href="#DejaVuSans-30" x="63.623047"/>
      </g>
     </g>
    </g>
   </g>
   <g id="line2d_10">
    <path d="M 103.8465 270.825926 
L 116.600269 266.986574 
L 124.571374 264.836935 
L 134.136701 262.526067 
L 143.702028 260.192789 
L 148.484691 258.837939 
L 153.267354 257.238434 
L 156.455796 255.992008 
L 159.644239 254.574808 
L 162.832681 252.970144 
L 166.021123 251.169195 
L 169.209565 249.17282 
L 173.992229 245.840625 
L 178.774892 242.184734 
L 193.122882 230.817693 
L 196.311324 228.558612 
L 199.499766 226.506753 
L 202.688209 224.700286 
L 205.876651 223.167423 
L 209.065093 221.925886 
L 212.253535 220.983325 
L 215.441977 220.338621 
L 218.63042 219.98388 
L 221.818862 219.906815 
L 225.007304 220.093167 
L 228.195746 220.528786 
L 231.384188 221.201047 
L 234.572631 222.099385 
L 237.761073 223.214906 
L 240.949515 224.539176 
L 244.137957 226.062477 
L 247.326399 227.771888 
L 252.109063 230.644377 
L 256.891726 233.808458 
L 274.428158 245.885808 
L 279.210822 248.750823 
L 283.993485 251.273986 
L 288.776148 253.44477 
L 293.558812 255.297522 
L 298.341475 256.900503 
L 304.718359 258.798534 
L 320.66057 263.427883 
L 331.820118 266.996179 
L 342.979666 270.539848 
L 349.35655 272.371369 
L 355.733435 273.976259 
L 362.110319 275.316644 
L 368.487204 276.378745 
L 374.864088 277.166708 
L 381.240972 277.697221 
L 387.617857 277.99768 
L 395.588962 278.111455 
L 406.74851 277.982665 
L 421.0965 277.833849 
L 421.0965 277.833849 
" clip-path="url(#pdfd91b7a1c)" style="fill: none; stroke: #00ff00; stroke-width: 2; stroke-linecap: square"/>
   </g>
   <g id="line2d_11">
    <path d="M 103.8465 270.825926 
L 116.600269 266.986574 
L 124.571374 264.836925 
L 134.136701 262.525678 
L 143.702028 260.185074 
L 148.484691 258.810876 
L 153.267354 257.157445 
L 156.455796 255.837964 
L 159.644239 254.301559 
L 162.832681 252.517761 
L 166.021123 250.469286 
L 169.209565 248.158672 
L 172.398008 245.611663 
L 177.180671 241.451532 
L 183.557555 235.545687 
L 191.528661 227.847716 
L 197.905545 221.311554 
L 202.688209 216.099279 
L 207.470872 210.514437 
L 210.659314 206.445814 
L 213.847756 201.930209 
L 217.036198 196.788551 
L 220.224641 190.859791 
L 223.413083 184.052795 
L 226.601525 176.3893 
L 229.789967 168.024321 
L 239.355294 141.908621 
L 242.543736 134.17442 
L 244.137957 130.706188 
L 245.732178 127.561145 
L 247.326399 124.779626 
L 248.920621 122.400209 
L 250.514842 120.459776 
L 252.109063 118.993189 
L 253.703284 118.032479 
L 255.297505 117.60554 
L 256.891726 117.734431 
L 258.485947 118.433464 
L 260.080168 119.707325 
L 261.674389 121.549492 
L 263.268611 123.941195 
L 264.862832 126.85109 
L 266.457053 130.235738 
L 268.051274 134.040898 
L 271.239716 142.654326 
L 274.428158 152.129536 
L 280.805043 171.478868 
L 283.993485 180.531347 
L 287.181927 188.893981 
L 290.370369 196.564645 
L 293.558812 203.651846 
L 298.341475 213.509141 
L 303.124138 222.726438 
L 306.31258 228.517557 
L 309.501023 233.932211 
L 312.689465 238.865416 
L 315.877907 243.232613 
L 319.066349 246.991055 
L 322.254791 250.139231 
L 325.443234 252.701635 
L 328.631676 254.713461 
L 331.820118 256.217539 
L 335.00856 257.275368 
L 338.197003 257.982829 
L 344.573887 258.925166 
L 347.762329 259.499145 
L 350.950771 260.342295 
L 354.139214 261.542424 
L 357.327656 263.116491 
L 360.516098 265.009923 
L 366.892982 269.267684 
L 370.081425 271.331411 
L 373.269867 273.172052 
L 376.458309 274.705554 
L 379.646751 275.9 
L 382.835193 276.769662 
L 386.023636 277.360057 
L 389.212078 277.730553 
L 393.994741 278.000632 
L 400.371626 278.060444 
L 421.0965 277.833835 
L 421.0965 277.833835 
" clip-path="url(#pdfd91b7a1c)" style="fill: none; stroke: #9933ff; stroke-width: 2; stroke-linecap: square"/>
   </g>
   <g id="patch_33">
    <path d="M 87.984 279 
L 87.984 36 
" style="fill: none; stroke: #000000; stroke-width: 2; stroke-linejoin: miter; stroke-linecap: square"/>
   </g>
   <g id="patch_34">
    <path d="M 436.959 279 
L 436.959 36 
" style="fill: none; stroke: #000000; stroke-width: 2; stroke-linejoin: miter; stroke-linecap: square"/>
   </g>
   <g id="patch_35">
    <path d="M 87.984 279 
L 436.959 279 
" style="fill: none; stroke: #000000; stroke-width: 2; stroke-linejoin: miter; stroke-linecap: square"/>
   </g>
   <g id="patch_36">
    <path d="M 87.984 36 
L 436.959 36 
" style="fill: none; stroke: #000000; stroke-width: 2; stroke-linejoin: miter; stroke-linecap: square"/>
   </g>
  </g>
  <g id="axes_2">
   <g id="patch_37">
    <path d="M 471.8565 279 
L 820.8315 279 
L 820.8315 36 
L 471.8565 36 
z
" style="fill: #ffffff"/>
   </g>
   <g id="patch_38">
    <path d="M 487.719 279 
L 508.869 279 
L 508.869 198 
L 487.719 198 
z
" clip-path="url(#pfa0e7c74c2)" style="fill: #00ff00; fill-opacity: 0.4; stroke: #000000; stroke-linejoin: miter"/>
   </g>
   <g id="patch_39">
    <path d="M 508.869 279 
L 530.019 279 
L 530.019 209.571429 
L 508.869 209.571429 
z
" clip-path="url(#pfa0e7c74c2)" style="fill: #00ff00; fill-opacity: 0.4; stroke: #000000; stroke-linejoin: miter"/>
   </g>
   <g id="patch_40">
    <path d="M 530.019 279 
L 551.169 279 
L 551.169 215.357143 
L 530.019 215.357143 
z
" clip-path="url(#pfa0e7c74c2)" style="fill: #00ff00; fill-opacity: 0.4; stroke: #000000; stroke-linejoin: miter"/>
   </g>
   <g id="patch_41">
    <path d="M 551.169 279 
L 572.319 279 
L 572.319 244.285714 
L 551.169 244.285714 
z
" clip-path="url(#pfa0e7c74c2)" style="fill: #00ff00; fill-opacity: 0.4; stroke: #000000; stroke-linejoin: miter"/>
   </g>
   <g id="patch_42">
    <path d="M 572.319 279 
L 593.469 279 
L 593.469 244.285714 
L 572.319 244.285714 
z
" clip-path="url(#pfa0e7c74c2)" style="fill: #00ff00; fill-opacity: 0.4; stroke: #000000; stroke-linejoin: miter"/>
   </g>
   <g id="patch_43">
    <path d="M 593.469 279 
L 614.619 279 
L 614.619 258.75 
L 593.469 258.75 
z
" clip-path="url(#pfa0e7c74c2)" style="fill: #00ff00; fill-opacity: 0.4; stroke: #000000; stroke-linejoin: miter"/>
   </g>
   <g id="patch_44">
    <path d="M 614.619 279 
L 635.769 279 
L 635.769 238.5 
L 614.619 238.5 
z
" clip-path="url(#pfa0e7c74c2)" style="fill: #00ff00; fill-opacity: 0.4; stroke: #000000; stroke-linejoin: miter"/>
   </g>
   <g id="patch_45">
    <path d="M 635.769 279 
L 656.919 279 
L 656.919 255.857143 
L 635.769 255.857143 
z
" clip-path="url(#pfa0e7c74c2)" style="fill: #00ff00; fill-opacity: 0.4; stroke: #000000; stroke-linejoin: miter"/>
   </g>
   <g id="patch_46">
    <path d="M 656.919 279 
L 678.069 279 
L 678.069 270.321429 
L 656.919 270.321429 
z
" clip-path="url(#pfa0e7c74c2)" style="fill: #00ff00; fill-opacity: 0.4; stroke: #000000; stroke-linejoin: miter"/>
   </g>
   <g id="patch_47">
    <path d="M 678.069 279 
L 699.219 279 
L 699.219 279 
L 678.069 279 
z
" clip-path="url(#pfa0e7c74c2)" style="fill: #00ff00; fill-opacity: 0.4; stroke: #000000; stroke-linejoin: miter"/>
   </g>
   <g id="patch_48">
    <path d="M 699.219 279 
L 720.369 279 
L 720.369 279 
L 699.219 279 
z
" clip-path="url(#pfa0e7c74c2)" style="fill: #00ff00; fill-opacity: 0.4; stroke: #000000; stroke-linejoin: miter"/>
   </g>
   <g id="patch_49">
    <path d="M 720.369 279 
L 741.519 279 
L 741.519 279 
L 720.369 279 
z
" clip-path="url(#pfa0e7c74c2)" style="fill: #00ff00; fill-opacity: 0.4; stroke: #000000; stroke-linejoin: miter"/>
   </g>
   <g id="patch_50">
    <path d="M 741.519 279 
L 762.669 279 
L 762.669 279 
L 741.519 279 
z
" clip-path="url(#pfa0e7c74c2)" style="fill: #00ff00; fill-opacity: 0.4; stroke: #000000; stroke-linejoin: miter"/>
   </g>
   <g id="patch_51">
    <path d="M 762.669 279 
L 783.819 279 
L 783.819 279 
L 762.669 279 
z
" clip-path="url(#pfa0e7c74c2)" style="fill: #00ff00; fill-opacity: 0.4; stroke: #000000; stroke-linejoin: miter"/>
   </g>
   <g id="patch_52">
    <path d="M 783.819 279 
L 804.969 279 
L 804.969 279 
L 783.819 279 
z
" clip-path="url(#pfa0e7c74c2)" style="fill: #00ff00; fill-opacity: 0.4; stroke: #000000; stroke-linejoin: miter"/>
   </g>
   <g id="patch_53">
    <path d="M 487.719 198 
L 508.869 198 
L 508.869 195.107143 
L 487.719 195.107143 
z
" clip-path="url(#pfa0e7c74c2)" style="fill: #9933ff; fill-opacity: 0.4; stroke: #000000; stroke-linejoin: miter"/>
   </g>
   <g id="patch_54">
    <path d="M 508.869 209.571429 
L 530.019 209.571429 
L 530.019 203.785714 
L 508.869 203.785714 
z
" clip-path="url(#pfa0e7c74c2)" style="fill: #9933ff; fill-opacity: 0.4; stroke: #000000; stroke-linejoin: miter"/>
   </g>
   <g id="patch_55">
    <path d="M 530.019 215.357143 
L 551.169 215.357143 
L 551.169 209.571429 
L 530.019 209.571429 
z
" clip-path="url(#pfa0e7c74c2)" style="fill: #9933ff; fill-opacity: 0.4; stroke: #000000; stroke-linejoin: miter"/>
   </g>
   <g id="patch_56">
    <path d="M 551.169 244.285714 
L 572.319 244.285714 
L 572.319 229.821429 
L 551.169 229.821429 
z
" clip-path="url(#pfa0e7c74c2)" style="fill: #9933ff; fill-opacity: 0.4; stroke: #000000; stroke-linejoin: miter"/>
   </g>
   <g id="patch_57">
    <path d="M 572.319 244.285714 
L 593.469 244.285714 
L 593.469 218.25 
L 572.319 218.25 
z
" clip-path="url(#pfa0e7c74c2)" style="fill: #9933ff; fill-opacity: 0.4; stroke: #000000; stroke-linejoin: miter"/>
   </g>
   <g id="patch_58">
    <path d="M 593.469 258.75 
L 614.619 258.75 
L 614.619 224.035714 
L 593.469 224.035714 
z
" clip-path="url(#pfa0e7c74c2)" style="fill: #9933ff; fill-opacity: 0.4; stroke: #000000; stroke-linejoin: miter"/>
   </g>
   <g id="patch_59">
    <path d="M 614.619 238.5 
L 635.769 238.5 
L 635.769 203.785714 
L 614.619 203.785714 
z
" clip-path="url(#pfa0e7c74c2)" style="fill: #9933ff; fill-opacity: 0.4; stroke: #000000; stroke-linejoin: miter"/>
   </g>
   <g id="patch_60">
    <path d="M 635.769 255.857143 
L 656.919 255.857143 
L 656.919 212.464286 
L 635.769 212.464286 
z
" clip-path="url(#pfa0e7c74c2)" style="fill: #9933ff; fill-opacity: 0.4; stroke: #000000; stroke-linejoin: miter"/>
   </g>
   <g id="patch_61">
    <path d="M 656.919 270.321429 
L 678.069 270.321429 
L 678.069 226.928571 
L 656.919 226.928571 
z
" clip-path="url(#pfa0e7c74c2)" style="fill: #9933ff; fill-opacity: 0.4; stroke: #000000; stroke-linejoin: miter"/>
   </g>
   <g id="patch_62">
    <path d="M 678.069 279 
L 699.219 279 
L 699.219 229.821429 
L 678.069 229.821429 
z
" clip-path="url(#pfa0e7c74c2)" style="fill: #9933ff; fill-opacity: 0.4; stroke: #000000; stroke-linejoin: miter"/>
   </g>
   <g id="patch_63">
    <path d="M 699.219 279 
L 720.369 279 
L 720.369 247.178571 
L 699.219 247.178571 
z
" clip-path="url(#pfa0e7c74c2)" style="fill: #9933ff; fill-opacity: 0.4; stroke: #000000; stroke-linejoin: miter"/>
   </g>
   <g id="patch_64">
    <path d="M 720.369 279 
L 741.519 279 
L 741.519 232.714286 
L 720.369 232.714286 
z
" clip-path="url(#pfa0e7c74c2)" style="fill: #9933ff; fill-opacity: 0.4; stroke: #000000; stroke-linejoin: miter"/>
   </g>
   <g id="patch_65">
    <path d="M 741.519 279 
L 762.669 279 
L 762.669 258.75 
L 741.519 258.75 
z
" clip-path="url(#pfa0e7c74c2)" style="fill: #9933ff; fill-opacity: 0.4; stroke: #000000; stroke-linejoin: miter"/>
   </g>
   <g id="patch_66">
    <path d="M 762.669 279 
L 783.819 279 
L 783.819 270.321429 
L 762.669 270.321429 
z
" clip-path="url(#pfa0e7c74c2)" style="fill: #9933ff; fill-opacity: 0.4; stroke: #000000; stroke-linejoin: miter"/>
   </g>
   <g id="patch_67">
    <path d="M 783.819 279 
L 804.969 279 
L 804.969 270.321429 
L 783.819 270.321429 
z
" clip-path="url(#pfa0e7c74c2)" style="fill: #9933ff; fill-opacity: 0.4; stroke: #000000; stroke-linejoin: miter"/>
   </g>
   <g id="matplotlib.axis_3">
    <g id="xtick_5">
     <g id="line2d_12">
      <g>
       <use xlink:href="#m6f4c344ded" x="483.741667" y="279" style="stroke: #000000; stroke-width: 3"/>
      </g>
     </g>
     <g id="text_11">
      <!-- 0.00 -->
      <g transform="translate(463.702605 299.677188)scale(0.18 -0.18)">
       <use xlink:href="#DejaVuSans-30"/>
       <use xlink:href="#DejaVuSans-2e" x="63.623047"/>
       <use xlink:href="#DejaVuSans-30" x="95.410156"/>
       <use xlink:href="#DejaVuSans-30" x="159.033203"/>
      </g>
     </g>
    </g>
    <g id="xtick_6">
     <g id="line2d_13">
      <g>
       <use xlink:href="#m6f4c344ded" x="549.847188" y="279" style="stroke: #000000; stroke-width: 3"/>
      </g>
     </g>
     <g id="text_12">
      <!-- 0.25 -->
      <g transform="translate(529.808125 299.677188)scale(0.18 -0.18)">
       <defs>
        <path id="DejaVuSans-35" d="M 691 4666 
L 3169 4666 
L 3169 4134 
L 1269 4134 
L 1269 2991 
Q 1406 3038 1543 3061 
Q 1681 3084 1819 3084 
Q 2600 3084 3056 2656 
Q 3513 2228 3513 1497 
Q 3513 744 3044 326 
Q 2575 -91 1722 -91 
Q 1428 -91 1123 -41 
Q 819 9 494 109 
L 494 744 
Q 775 591 1075 516 
Q 1375 441 1709 441 
Q 2250 441 2565 725 
Q 2881 1009 2881 1497 
Q 2881 1984 2565 2268 
Q 2250 2553 1709 2553 
Q 1456 2553 1204 2497 
Q 953 2441 691 2322 
L 691 4666 
z
" transform="scale(0.015625)"/>
       </defs>
       <use xlink:href="#DejaVuSans-30"/>
       <use xlink:href="#DejaVuSans-2e" x="63.623047"/>
       <use xlink:href="#DejaVuSans-32" x="95.410156"/>
       <use xlink:href="#DejaVuSans-35" x="159.033203"/>
      </g>
     </g>
    </g>
    <g id="xtick_7">
     <g id="line2d_14">
      <g>
       <use xlink:href="#m6f4c344ded" x="615.952708" y="279" style="stroke: #000000; stroke-width: 3"/>
      </g>
     </g>
     <g id="text_13">
      <!-- 0.50 -->
      <g transform="translate(595.913645 299.677188)scale(0.18 -0.18)">
       <use xlink:href="#DejaVuSans-30"/>
       <use xlink:href="#DejaVuSans-2e" x="63.623047"/>
       <use xlink:href="#DejaVuSans-35" x="95.410156"/>
       <use xlink:href="#DejaVuSans-30" x="159.033203"/>
      </g>
     </g>
    </g>
    <g id="xtick_8">
     <g id="line2d_15">
      <g>
       <use xlink:href="#m6f4c344ded" x="682.058228" y="279" style="stroke: #000000; stroke-width: 3"/>
      </g>
     </g>
     <g id="text_14">
      <!-- 0.75 -->
      <g transform="translate(662.019166 299.677188)scale(0.18 -0.18)">
       <defs>
        <path id="DejaVuSans-37" d="M 525 4666 
L 3525 4666 
L 3525 4397 
L 1831 0 
L 1172 0 
L 2766 4134 
L 525 4134 
L 525 4666 
z
" transform="scale(0.015625)"/>
       </defs>
       <use xlink:href="#DejaVuSans-30"/>
       <use xlink:href="#DejaVuSans-2e" x="63.623047"/>
       <use xlink:href="#DejaVuSans-37" x="95.410156"/>
       <use xlink:href="#DejaVuSans-35" x="159.033203"/>
      </g>
     </g>
    </g>
    <g id="xtick_9">
     <g id="line2d_16">
      <g>
       <use xlink:href="#m6f4c344ded" x="748.163748" y="279" style="stroke: #000000; stroke-width: 3"/>
      </g>
     </g>
     <g id="text_15">
      <!-- 1.00 -->
      <g transform="translate(728.124686 299.677188)scale(0.18 -0.18)">
       <defs>
        <path id="DejaVuSans-31" d="M 794 531 
L 1825 531 
L 1825 4091 
L 703 3866 
L 703 4441 
L 1819 4666 
L 2450 4666 
L 2450 531 
L 3481 531 
L 3481 0 
L 794 0 
L 794 531 
z
" transform="scale(0.015625)"/>
       </defs>
       <use xlink:href="#DejaVuSans-31"/>
       <use xlink:href="#DejaVuSans-2e" x="63.623047"/>
       <use xlink:href="#DejaVuSans-30" x="95.410156"/>
       <use xlink:href="#DejaVuSans-30" x="159.033203"/>
      </g>
     </g>
    </g>
    <g id="xtick_10">
     <g id="line2d_17">
      <g>
       <use xlink:href="#m6f4c344ded" x="814.269269" y="279" style="stroke: #000000; stroke-width: 3"/>
      </g>
     </g>
     <g id="text_16">
      <!-- 1.25 -->
      <g transform="translate(794.230206 299.677188)scale(0.18 -0.18)">
       <use xlink:href="#DejaVuSans-31"/>
       <use xlink:href="#DejaVuSans-2e" x="63.623047"/>
       <use xlink:href="#DejaVuSans-32" x="95.410156"/>
       <use xlink:href="#DejaVuSans-35" x="159.033203"/>
      </g>
     </g>
    </g>
    <g id="text_17">
     <!-- Partner-Coupling Coefficient ($\alpha_{i,j}$) -->
     <g transform="translate(496.314 321.100625)scale(0.18 -0.18)">
      <defs>
       <path id="DejaVuSans-50" d="M 1259 4147 
L 1259 2394 
L 2053 2394 
Q 2494 2394 2734 2622 
Q 2975 2850 2975 3272 
Q 2975 3691 2734 3919 
Q 2494 4147 2053 4147 
L 1259 4147 
z
M 628 4666 
L 2053 4666 
Q 2838 4666 3239 4311 
Q 3641 3956 3641 3272 
Q 3641 2581 3239 2228 
Q 2838 1875 2053 1875 
L 1259 1875 
L 1259 0 
L 628 0 
L 628 4666 
z
" transform="scale(0.015625)"/>
       <path id="DejaVuSans-61" d="M 2194 1759 
Q 1497 1759 1228 1600 
Q 959 1441 959 1056 
Q 959 750 1161 570 
Q 1363 391 1709 391 
Q 2188 391 2477 730 
Q 2766 1069 2766 1631 
L 2766 1759 
L 2194 1759 
z
M 3341 1997 
L 3341 0 
L 2766 0 
L 2766 531 
Q 2569 213 2275 61 
Q 1981 -91 1556 -91 
Q 1019 -91 701 211 
Q 384 513 384 1019 
Q 384 1609 779 1909 
Q 1175 2209 1959 2209 
L 2766 2209 
L 2766 2266 
Q 2766 2663 2505 2880 
Q 2244 3097 1772 3097 
Q 1472 3097 1187 3025 
Q 903 2953 641 2809 
L 641 3341 
Q 956 3463 1253 3523 
Q 1550 3584 1831 3584 
Q 2591 3584 2966 3190 
Q 3341 2797 3341 1997 
z
" transform="scale(0.015625)"/>
       <path id="DejaVuSans-72" d="M 2631 2963 
Q 2534 3019 2420 3045 
Q 2306 3072 2169 3072 
Q 1681 3072 1420 2755 
Q 1159 2438 1159 1844 
L 1159 0 
L 581 0 
L 581 3500 
L 1159 3500 
L 1159 2956 
Q 1341 3275 1631 3429 
Q 1922 3584 2338 3584 
Q 2397 3584 2469 3576 
Q 2541 3569 2628 3553 
L 2631 2963 
z
" transform="scale(0.015625)"/>
       <path id="DejaVuSans-Oblique-6a" d="M 928 3500 
L 1503 3500 
L 813 -63 
L 809 -78 
Q 694 -675 544 -897 
Q 403 -1106 132 -1218 
Q -138 -1331 -506 -1331 
L -722 -1331 
L -628 -844 
L -481 -844 
Q -144 -844 -1 -703 
Q 141 -563 238 -63 
L 928 3500 
z
M 1197 4863 
L 1772 4863 
L 1631 4134 
L 1056 4134 
L 1197 4863 
z
" transform="scale(0.015625)"/>
      </defs>
      <use xlink:href="#DejaVuSans-50" transform="translate(0 0.015625)"/>
      <use xlink:href="#DejaVuSans-61" transform="translate(60.302734 0.015625)"/>
      <use xlink:href="#DejaVuSans-72" transform="translate(121.582031 0.015625)"/>
      <use xlink:href="#DejaVuSans-74" transform="translate(162.695312 0.015625)"/>
      <use xlink:href="#DejaVuSans-6e" transform="translate(201.904297 0.015625)"/>
      <use xlink:href="#DejaVuSans-65" transform="translate(265.283203 0.015625)"/>
      <use xlink:href="#DejaVuSans-72" transform="translate(326.806641 0.015625)"/>
      <use xlink:href="#DejaVuSans-2d" transform="translate(367.919922 0.015625)"/>
      <use xlink:href="#DejaVuSans-43" transform="translate(404.003906 0.015625)"/>
      <use xlink:href="#DejaVuSans-6f" transform="translate(473.828125 0.015625)"/>
      <use xlink:href="#DejaVuSans-75" transform="translate(535.009766 0.015625)"/>
      <use xlink:href="#DejaVuSans-70" transform="translate(598.388672 0.015625)"/>
      <use xlink:href="#DejaVuSans-6c" transform="translate(661.865234 0.015625)"/>
      <use xlink:href="#DejaVuSans-69" transform="translate(689.648438 0.015625)"/>
      <use xlink:href="#DejaVuSans-6e" transform="translate(717.431641 0.015625)"/>
      <use xlink:href="#DejaVuSans-67" transform="translate(780.810547 0.015625)"/>
      <use xlink:href="#DejaVuSans-20" transform="translate(844.287109 0.015625)"/>
      <use xlink:href="#DejaVuSans-43" transform="translate(876.074219 0.015625)"/>
      <use xlink:href="#DejaVuSans-6f" transform="translate(945.898438 0.015625)"/>
      <use xlink:href="#DejaVuSans-65" transform="translate(1007.080078 0.015625)"/>
      <use xlink:href="#DejaVuSans-66" transform="translate(1068.603516 0.015625)"/>
      <use xlink:href="#DejaVuSans-66" transform="translate(1103.808594 0.015625)"/>
      <use xlink:href="#DejaVuSans-69" transform="translate(1139.013672 0.015625)"/>
      <use xlink:href="#DejaVuSans-63" transform="translate(1166.796875 0.015625)"/>
      <use xlink:href="#DejaVuSans-69" transform="translate(1221.777344 0.015625)"/>
      <use xlink:href="#DejaVuSans-65" transform="translate(1249.560547 0.015625)"/>
      <use xlink:href="#DejaVuSans-6e" transform="translate(1311.083984 0.015625)"/>
      <use xlink:href="#DejaVuSans-74" transform="translate(1374.462891 0.015625)"/>
      <use xlink:href="#DejaVuSans-20" transform="translate(1413.671875 0.015625)"/>
      <use xlink:href="#DejaVuSans-28" transform="translate(1445.458984 0.015625)"/>
      <use xlink:href="#DejaVuSans-Oblique-3b1" transform="translate(1484.472656 0.015625)"/>
      <use xlink:href="#DejaVuSans-Oblique-69" transform="translate(1550.390625 -16.390625)scale(0.7)"/>
      <use xlink:href="#DejaVuSans-2c" transform="translate(1569.838867 -16.390625)scale(0.7)"/>
      <use xlink:href="#DejaVuSans-Oblique-6a" transform="translate(1605.727539 -16.390625)scale(0.7)"/>
      <use xlink:href="#DejaVuSans-29" transform="translate(1627.910156 0.015625)"/>
     </g>
    </g>
   </g>
   <g id="matplotlib.axis_4">
    <g id="ytick_6">
     <g id="line2d_18">
      <g>
       <use xlink:href="#md0df1f8d7d" x="471.8565" y="279" style="stroke: #000000; stroke-width: 3"/>
      </g>
     </g>
    </g>
    <g id="ytick_7">
     <g id="line2d_19">
      <g>
       <use xlink:href="#md0df1f8d7d" x="471.8565" y="221.142857" style="stroke: #000000; stroke-width: 3"/>
      </g>
     </g>
    </g>
    <g id="ytick_8">
     <g id="line2d_20">
      <g>
       <use xlink:href="#md0df1f8d7d" x="471.8565" y="163.285714" style="stroke: #000000; stroke-width: 3"/>
      </g>
     </g>
    </g>
    <g id="ytick_9">
     <g id="line2d_21">
      <g>
       <use xlink:href="#md0df1f8d7d" x="471.8565" y="105.428571" style="stroke: #000000; stroke-width: 3"/>
      </g>
     </g>
    </g>
    <g id="ytick_10">
     <g id="line2d_22">
      <g>
       <use xlink:href="#md0df1f8d7d" x="471.8565" y="47.571429" style="stroke: #000000; stroke-width: 3"/>
      </g>
     </g>
    </g>
   </g>
   <g id="line2d_23">
    <path d="M 487.719 238.964241 
L 492.501663 231.760336 
L 495.690106 227.356969 
L 498.878548 223.424391 
L 502.06699 220.060928 
L 503.661211 218.61422 
L 505.255432 217.331359 
L 506.849653 216.215045 
L 508.443874 215.265958 
L 510.038095 214.482905 
L 511.632317 213.863003 
L 513.226538 213.401881 
L 514.820759 213.093896 
L 516.41498 212.932361 
L 518.009201 212.909751 
L 519.603422 213.017918 
L 521.197643 213.248273 
L 524.386085 214.03996 
L 527.574528 215.212974 
L 530.76297 216.696467 
L 533.951412 218.422545 
L 538.734075 221.327905 
L 548.299402 227.595726 
L 554.676286 231.658709 
L 561.053171 235.424342 
L 567.430055 238.889261 
L 573.80694 242.120875 
L 580.183824 245.128704 
L 584.966487 247.159261 
L 588.15493 248.34622 
L 591.343372 249.355166 
L 594.531814 250.150439 
L 597.720256 250.70553 
L 600.908698 251.008838 
L 604.097141 251.068057 
L 607.285583 250.912474 
L 612.068246 250.392334 
L 620.039352 249.398704 
L 623.227794 249.208486 
L 626.416236 249.255388 
L 629.604678 249.597011 
L 632.793121 250.267614 
L 635.981563 251.275206 
L 639.170005 252.601515 
L 642.358447 254.204787 
L 645.546889 256.02496 
L 651.923774 260.02585 
L 658.300658 264.026589 
L 663.083322 266.752637 
L 666.271764 268.376743 
L 669.460206 269.832025 
L 674.242869 271.705667 
L 679.025533 273.247352 
L 683.808196 274.515346 
L 688.590859 275.563544 
L 694.967744 276.683811 
L 701.344628 277.532028 
L 707.721513 278.138297 
L 714.098397 278.536776 
L 722.069503 278.813762 
L 733.22905 278.960247 
L 760.330809 278.999762 
L 804.969 279 
L 804.969 279 
" clip-path="url(#pfa0e7c74c2)" style="fill: none; stroke: #00ff00; stroke-width: 2; stroke-linecap: square"/>
   </g>
   <g id="line2d_24">
    <path d="M 487.719 237.086953 
L 492.501663 229.43656 
L 495.690106 224.712561 
L 498.878548 220.442839 
L 502.06699 216.72663 
L 503.661211 215.097737 
L 505.255432 213.628703 
L 506.849653 212.322052 
L 508.443874 211.178215 
L 510.038095 210.195676 
L 511.632317 209.371161 
L 513.226538 208.699843 
L 514.820759 208.175576 
L 516.41498 207.791118 
L 518.009201 207.538367 
L 519.603422 207.408577 
L 522.791864 207.480869 
L 525.980307 207.932276 
L 529.168749 208.687279 
L 532.357191 209.673544 
L 537.139854 211.440464 
L 551.487844 217.097261 
L 556.270508 218.670564 
L 561.053171 219.987212 
L 565.835834 221.052446 
L 570.618497 221.892078 
L 575.401161 222.52443 
L 580.183824 222.935651 
L 584.966487 223.069596 
L 588.15493 222.962009 
L 591.343372 222.664165 
L 594.531814 222.15277 
L 597.720256 221.414811 
L 600.908698 220.452381 
L 604.097141 219.286057 
L 608.879804 217.247955 
L 618.445131 212.996269 
L 621.633573 211.836351 
L 624.822015 210.94161 
L 628.010457 210.375162 
L 631.198899 210.179163 
L 634.387342 210.37142 
L 637.575784 210.944579 
L 640.764226 211.86794 
L 643.952668 213.091616 
L 647.141111 214.55243 
L 651.923774 217.035885 
L 664.677543 223.923514 
L 669.460206 226.242215 
L 674.242869 228.358941 
L 680.619754 230.906782 
L 686.996638 233.203755 
L 693.373523 235.28428 
L 699.750407 237.148903 
L 707.721513 239.199048 
L 723.663724 243.135762 
L 728.446387 244.585879 
L 733.22905 246.274814 
L 738.011714 248.225916 
L 742.794377 250.425059 
L 749.171261 253.652598 
L 765.113472 261.958236 
L 769.896136 264.182193 
L 774.678799 266.1925 
L 779.461462 267.97822 
L 784.244126 269.549115 
L 789.026789 270.928102 
L 795.403673 272.516531 
L 801.780558 273.873402 
L 804.969 274.478456 
L 804.969 274.478456 
" clip-path="url(#pfa0e7c74c2)" style="fill: none; stroke: #9933ff; stroke-width: 2; stroke-linecap: square"/>
   </g>
   <g id="patch_68">
    <path d="M 471.8565 279 
L 471.8565 36 
" style="fill: none; stroke: #000000; stroke-width: 2; stroke-linejoin: miter; stroke-linecap: square"/>
   </g>
   <g id="patch_69">
    <path d="M 820.8315 279 
L 820.8315 36 
" style="fill: none; stroke: #000000; stroke-width: 2; stroke-linejoin: miter; stroke-linecap: square"/>
   </g>
   <g id="patch_70">
    <path d="M 471.8565 279 
L 820.8315 279 
" style="fill: none; stroke: #000000; stroke-width: 2; stroke-linejoin: miter; stroke-linecap: square"/>
   </g>
   <g id="patch_71">
    <path d="M 471.8565 36 
L 820.8315 36 
" style="fill: none; stroke: #000000; stroke-width: 2; stroke-linejoin: miter; stroke-linecap: square"/>
   </g>
  </g>
  <g id="axes_3">
   <g id="patch_72">
    <path d="M 855.729 279 
L 1204.704 279 
L 1204.704 36 
L 855.729 36 
z
" style="fill: #ffffff"/>
   </g>
   <g id="patch_73">
    <path d="M 871.5915 279 
L 892.7415 279 
L 892.7415 273.214286 
L 871.5915 273.214286 
z
" clip-path="url(#p986e7c8d22)" style="fill: #00ff00; fill-opacity: 0.4; stroke: #000000; stroke-linejoin: miter"/>
   </g>
   <g id="patch_74">
    <path d="M 892.7415 279 
L 913.8915 279 
L 913.8915 279 
L 892.7415 279 
z
" clip-path="url(#p986e7c8d22)" style="fill: #00ff00; fill-opacity: 0.4; stroke: #000000; stroke-linejoin: miter"/>
   </g>
   <g id="patch_75">
    <path d="M 913.8915 279 
L 935.0415 279 
L 935.0415 276.107143 
L 913.8915 276.107143 
z
" clip-path="url(#p986e7c8d22)" style="fill: #00ff00; fill-opacity: 0.4; stroke: #000000; stroke-linejoin: miter"/>
   </g>
   <g id="patch_76">
    <path d="M 935.0415 279 
L 956.1915 279 
L 956.1915 276.107143 
L 935.0415 276.107143 
z
" clip-path="url(#p986e7c8d22)" style="fill: #00ff00; fill-opacity: 0.4; stroke: #000000; stroke-linejoin: miter"/>
   </g>
   <g id="patch_77">
    <path d="M 956.1915 279 
L 977.3415 279 
L 977.3415 270.321429 
L 956.1915 270.321429 
z
" clip-path="url(#p986e7c8d22)" style="fill: #00ff00; fill-opacity: 0.4; stroke: #000000; stroke-linejoin: miter"/>
   </g>
   <g id="patch_78">
    <path d="M 977.3415 279 
L 998.4915 279 
L 998.4915 273.214286 
L 977.3415 273.214286 
z
" clip-path="url(#p986e7c8d22)" style="fill: #00ff00; fill-opacity: 0.4; stroke: #000000; stroke-linejoin: miter"/>
   </g>
   <g id="patch_79">
    <path d="M 998.4915 279 
L 1019.6415 279 
L 1019.6415 276.107143 
L 998.4915 276.107143 
z
" clip-path="url(#p986e7c8d22)" style="fill: #00ff00; fill-opacity: 0.4; stroke: #000000; stroke-linejoin: miter"/>
   </g>
   <g id="patch_80">
    <path d="M 1019.6415 279 
L 1040.7915 279 
L 1040.7915 261.642857 
L 1019.6415 261.642857 
z
" clip-path="url(#p986e7c8d22)" style="fill: #00ff00; fill-opacity: 0.4; stroke: #000000; stroke-linejoin: miter"/>
   </g>
   <g id="patch_81">
    <path d="M 1040.7915 279 
L 1061.9415 279 
L 1061.9415 258.75 
L 1040.7915 258.75 
z
" clip-path="url(#p986e7c8d22)" style="fill: #00ff00; fill-opacity: 0.4; stroke: #000000; stroke-linejoin: miter"/>
   </g>
   <g id="patch_82">
    <path d="M 1061.9415 279 
L 1083.0915 279 
L 1083.0915 270.321429 
L 1061.9415 270.321429 
z
" clip-path="url(#p986e7c8d22)" style="fill: #00ff00; fill-opacity: 0.4; stroke: #000000; stroke-linejoin: miter"/>
   </g>
   <g id="patch_83">
    <path d="M 1083.0915 279 
L 1104.2415 279 
L 1104.2415 250.071429 
L 1083.0915 250.071429 
z
" clip-path="url(#p986e7c8d22)" style="fill: #00ff00; fill-opacity: 0.4; stroke: #000000; stroke-linejoin: miter"/>
   </g>
   <g id="patch_84">
    <path d="M 1104.2415 279 
L 1125.3915 279 
L 1125.3915 241.392857 
L 1104.2415 241.392857 
z
" clip-path="url(#p986e7c8d22)" style="fill: #00ff00; fill-opacity: 0.4; stroke: #000000; stroke-linejoin: miter"/>
   </g>
   <g id="patch_85">
    <path d="M 1125.3915 279 
L 1146.5415 279 
L 1146.5415 183.535714 
L 1125.3915 183.535714 
z
" clip-path="url(#p986e7c8d22)" style="fill: #00ff00; fill-opacity: 0.4; stroke: #000000; stroke-linejoin: miter"/>
   </g>
   <g id="patch_86">
    <path d="M 1146.5415 279 
L 1167.6915 279 
L 1167.6915 166.178571 
L 1146.5415 166.178571 
z
" clip-path="url(#p986e7c8d22)" style="fill: #00ff00; fill-opacity: 0.4; stroke: #000000; stroke-linejoin: miter"/>
   </g>
   <g id="patch_87">
    <path d="M 1167.6915 279 
L 1188.8415 279 
L 1188.8415 252.964286 
L 1167.6915 252.964286 
z
" clip-path="url(#p986e7c8d22)" style="fill: #00ff00; fill-opacity: 0.4; stroke: #000000; stroke-linejoin: miter"/>
   </g>
   <g id="patch_88">
    <path d="M 871.5915 273.214286 
L 892.7415 273.214286 
L 892.7415 273.214286 
L 871.5915 273.214286 
z
" clip-path="url(#p986e7c8d22)" style="fill: #9933ff; fill-opacity: 0.4; stroke: #000000; stroke-linejoin: miter"/>
   </g>
   <g id="patch_89">
    <path d="M 892.7415 279 
L 913.8915 279 
L 913.8915 276.107143 
L 892.7415 276.107143 
z
" clip-path="url(#p986e7c8d22)" style="fill: #9933ff; fill-opacity: 0.4; stroke: #000000; stroke-linejoin: miter"/>
   </g>
   <g id="patch_90">
    <path d="M 913.8915 276.107143 
L 935.0415 276.107143 
L 935.0415 276.107143 
L 913.8915 276.107143 
z
" clip-path="url(#p986e7c8d22)" style="fill: #9933ff; fill-opacity: 0.4; stroke: #000000; stroke-linejoin: miter"/>
   </g>
   <g id="patch_91">
    <path d="M 935.0415 276.107143 
L 956.1915 276.107143 
L 956.1915 273.214286 
L 935.0415 273.214286 
z
" clip-path="url(#p986e7c8d22)" style="fill: #9933ff; fill-opacity: 0.4; stroke: #000000; stroke-linejoin: miter"/>
   </g>
   <g id="patch_92">
    <path d="M 956.1915 270.321429 
L 977.3415 270.321429 
L 977.3415 270.321429 
L 956.1915 270.321429 
z
" clip-path="url(#p986e7c8d22)" style="fill: #9933ff; fill-opacity: 0.4; stroke: #000000; stroke-linejoin: miter"/>
   </g>
   <g id="patch_93">
    <path d="M 977.3415 273.214286 
L 998.4915 273.214286 
L 998.4915 270.321429 
L 977.3415 270.321429 
z
" clip-path="url(#p986e7c8d22)" style="fill: #9933ff; fill-opacity: 0.4; stroke: #000000; stroke-linejoin: miter"/>
   </g>
   <g id="patch_94">
    <path d="M 998.4915 276.107143 
L 1019.6415 276.107143 
L 1019.6415 276.107143 
L 998.4915 276.107143 
z
" clip-path="url(#p986e7c8d22)" style="fill: #9933ff; fill-opacity: 0.4; stroke: #000000; stroke-linejoin: miter"/>
   </g>
   <g id="patch_95">
    <path d="M 1019.6415 261.642857 
L 1040.7915 261.642857 
L 1040.7915 261.642857 
L 1019.6415 261.642857 
z
" clip-path="url(#p986e7c8d22)" style="fill: #9933ff; fill-opacity: 0.4; stroke: #000000; stroke-linejoin: miter"/>
   </g>
   <g id="patch_96">
    <path d="M 1040.7915 258.75 
L 1061.9415 258.75 
L 1061.9415 255.857143 
L 1040.7915 255.857143 
z
" clip-path="url(#p986e7c8d22)" style="fill: #9933ff; fill-opacity: 0.4; stroke: #000000; stroke-linejoin: miter"/>
   </g>
   <g id="patch_97">
    <path d="M 1061.9415 270.321429 
L 1083.0915 270.321429 
L 1083.0915 264.535714 
L 1061.9415 264.535714 
z
" clip-path="url(#p986e7c8d22)" style="fill: #9933ff; fill-opacity: 0.4; stroke: #000000; stroke-linejoin: miter"/>
   </g>
   <g id="patch_98">
    <path d="M 1083.0915 250.071429 
L 1104.2415 250.071429 
L 1104.2415 241.392857 
L 1083.0915 241.392857 
z
" clip-path="url(#p986e7c8d22)" style="fill: #9933ff; fill-opacity: 0.4; stroke: #000000; stroke-linejoin: miter"/>
   </g>
   <g id="patch_99">
    <path d="M 1104.2415 241.392857 
L 1125.3915 241.392857 
L 1125.3915 171.964286 
L 1104.2415 171.964286 
z
" clip-path="url(#p986e7c8d22)" style="fill: #9933ff; fill-opacity: 0.4; stroke: #000000; stroke-linejoin: miter"/>
   </g>
   <g id="patch_100">
    <path d="M 1125.3915 183.535714 
L 1146.5415 183.535714 
L 1146.5415 64.928571 
L 1125.3915 64.928571 
z
" clip-path="url(#p986e7c8d22)" style="fill: #9933ff; fill-opacity: 0.4; stroke: #000000; stroke-linejoin: miter"/>
   </g>
   <g id="patch_101">
    <path d="M 1146.5415 166.178571 
L 1167.6915 166.178571 
L 1167.6915 47.571429 
L 1146.5415 47.571429 
z
" clip-path="url(#p986e7c8d22)" style="fill: #9933ff; fill-opacity: 0.4; stroke: #000000; stroke-linejoin: miter"/>
   </g>
   <g id="patch_102">
    <path d="M 1167.6915 252.964286 
L 1188.8415 252.964286 
L 1188.8415 209.571429 
L 1167.6915 209.571429 
z
" clip-path="url(#p986e7c8d22)" style="fill: #9933ff; fill-opacity: 0.4; stroke: #000000; stroke-linejoin: miter"/>
   </g>
   <g id="matplotlib.axis_5">
    <g id="xtick_11">
     <g id="line2d_25">
      <g>
       <use xlink:href="#m6f4c344ded" x="897.077879" y="279" style="stroke: #000000; stroke-width: 3"/>
      </g>
     </g>
     <g id="text_18">
      <!-- −0.15 -->
      <g transform="translate(869.497098 299.677188)scale(0.18 -0.18)">
       <use xlink:href="#DejaVuSans-2212"/>
       <use xlink:href="#DejaVuSans-30" x="83.789062"/>
       <use xlink:href="#DejaVuSans-2e" x="147.412109"/>
       <use xlink:href="#DejaVuSans-31" x="179.199219"/>
       <use xlink:href="#DejaVuSans-35" x="242.822266"/>
      </g>
     </g>
    </g>
    <g id="xtick_12">
     <g id="line2d_26">
      <g>
       <use xlink:href="#m6f4c344ded" x="986.204046" y="279" style="stroke: #000000; stroke-width: 3"/>
      </g>
     </g>
     <g id="text_19">
      <!-- −0.10 -->
      <g transform="translate(958.623265 299.677188)scale(0.18 -0.18)">
       <use xlink:href="#DejaVuSans-2212"/>
       <use xlink:href="#DejaVuSans-30" x="83.789062"/>
       <use xlink:href="#DejaVuSans-2e" x="147.412109"/>
       <use xlink:href="#DejaVuSans-31" x="179.199219"/>
       <use xlink:href="#DejaVuSans-30" x="242.822266"/>
      </g>
     </g>
    </g>
    <g id="xtick_13">
     <g id="line2d_27">
      <g>
       <use xlink:href="#m6f4c344ded" x="1075.330212" y="279" style="stroke: #000000; stroke-width: 3"/>
      </g>
     </g>
     <g id="text_20">
      <!-- −0.05 -->
      <g transform="translate(1047.749431 299.677188)scale(0.18 -0.18)">
       <use xlink:href="#DejaVuSans-2212"/>
       <use xlink:href="#DejaVuSans-30" x="83.789062"/>
       <use xlink:href="#DejaVuSans-2e" x="147.412109"/>
       <use xlink:href="#DejaVuSans-30" x="179.199219"/>
       <use xlink:href="#DejaVuSans-35" x="242.822266"/>
      </g>
     </g>
    </g>
    <g id="xtick_14">
     <g id="line2d_28">
      <g>
       <use xlink:href="#m6f4c344ded" x="1164.456379" y="279" style="stroke: #000000; stroke-width: 3"/>
      </g>
     </g>
     <g id="text_21">
      <!-- 0.00 -->
      <g transform="translate(1144.417316 299.677188)scale(0.18 -0.18)">
       <use xlink:href="#DejaVuSans-30"/>
       <use xlink:href="#DejaVuSans-2e" x="63.623047"/>
       <use xlink:href="#DejaVuSans-30" x="95.410156"/>
       <use xlink:href="#DejaVuSans-30" x="159.033203"/>
      </g>
     </g>
    </g>
    <g id="text_22">
     <!-- Intercept ($\alpha_{i,0}$) -->
     <g transform="translate(964.2465 321.100625)scale(0.18 -0.18)">
      <defs>
       <path id="DejaVuSans-49" d="M 628 4666 
L 1259 4666 
L 1259 0 
L 628 0 
L 628 4666 
z
" transform="scale(0.015625)"/>
      </defs>
      <use xlink:href="#DejaVuSans-49" transform="translate(0 0.125)"/>
      <use xlink:href="#DejaVuSans-6e" transform="translate(29.492188 0.125)"/>
      <use xlink:href="#DejaVuSans-74" transform="translate(92.871094 0.125)"/>
      <use xlink:href="#DejaVuSans-65" transform="translate(132.080078 0.125)"/>
      <use xlink:href="#DejaVuSans-72" transform="translate(193.603516 0.125)"/>
      <use xlink:href="#DejaVuSans-63" transform="translate(234.716797 0.125)"/>
      <use xlink:href="#DejaVuSans-65" transform="translate(289.697266 0.125)"/>
      <use xlink:href="#DejaVuSans-70" transform="translate(351.220703 0.125)"/>
      <use xlink:href="#DejaVuSans-74" transform="translate(414.697266 0.125)"/>
      <use xlink:href="#DejaVuSans-20" transform="translate(453.90625 0.125)"/>
      <use xlink:href="#DejaVuSans-28" transform="translate(485.693359 0.125)"/>
      <use xlink:href="#DejaVuSans-Oblique-3b1" transform="translate(524.707031 0.125)"/>
      <use xlink:href="#DejaVuSans-Oblique-69" transform="translate(590.625 -16.28125)scale(0.7)"/>
      <use xlink:href="#DejaVuSans-2c" transform="translate(610.073242 -16.28125)scale(0.7)"/>
      <use xlink:href="#DejaVuSans-30" transform="translate(645.961914 -16.28125)scale(0.7)"/>
      <use xlink:href="#DejaVuSans-29" transform="translate(693.232422 0.125)"/>
     </g>
    </g>
   </g>
   <g id="matplotlib.axis_6">
    <g id="ytick_11">
     <g id="line2d_29">
      <g>
       <use xlink:href="#md0df1f8d7d" x="855.729" y="279" style="stroke: #000000; stroke-width: 3"/>
      </g>
     </g>
    </g>
    <g id="ytick_12">
     <g id="line2d_30">
      <g>
       <use xlink:href="#md0df1f8d7d" x="855.729" y="221.142857" style="stroke: #000000; stroke-width: 3"/>
      </g>
     </g>
    </g>
    <g id="ytick_13">
     <g id="line2d_31">
      <g>
       <use xlink:href="#md0df1f8d7d" x="855.729" y="163.285714" style="stroke: #000000; stroke-width: 3"/>
      </g>
     </g>
    </g>
    <g id="ytick_14">
     <g id="line2d_32">
      <g>
       <use xlink:href="#md0df1f8d7d" x="855.729" y="105.428571" style="stroke: #000000; stroke-width: 3"/>
      </g>
     </g>
    </g>
    <g id="ytick_15">
     <g id="line2d_33">
      <g>
       <use xlink:href="#md0df1f8d7d" x="855.729" y="47.571429" style="stroke: #000000; stroke-width: 3"/>
      </g>
     </g>
    </g>
   </g>
   <g id="line2d_34">
    <path d="M 871.5915 276.963878 
L 881.156827 276.807386 
L 893.910595 276.874039 
L 906.664364 276.895742 
L 916.229691 276.678703 
L 927.389239 276.15942 
L 943.33145 275.135687 
L 968.838987 273.462301 
L 994.346525 272.076594 
L 1000.72341 271.411952 
L 1007.100294 270.495589 
L 1013.477178 269.344603 
L 1024.636726 267.018638 
L 1034.202053 265.098207 
L 1042.173158 263.744131 
L 1062.898033 260.53549 
L 1067.680696 259.480888 
L 1072.463359 258.154285 
L 1075.651802 257.085835 
L 1078.840244 255.849309 
L 1082.028686 254.428459 
L 1085.217128 252.808258 
L 1088.40557 250.974769 
L 1091.594013 248.915233 
L 1094.782455 246.618511 
L 1097.970897 244.07603 
L 1101.159339 241.283284 
L 1104.347781 238.241899 
L 1107.536224 234.962141 
L 1112.318887 229.646738 
L 1118.695771 222.051639 
L 1125.072656 214.404083 
L 1128.261098 210.809202 
L 1131.44954 207.525596 
L 1134.637982 204.679826 
L 1136.232204 203.46026 
L 1137.826425 202.396127 
L 1139.420646 201.501278 
L 1141.014867 200.78841 
L 1142.609088 200.268822 
L 1144.203309 199.95219 
L 1145.79753 199.846365 
L 1147.391751 199.957203 
L 1148.985972 200.28842 
L 1150.580193 200.841498 
L 1152.174415 201.615617 
L 1153.768636 202.607642 
L 1155.362857 203.812144 
L 1156.957078 205.221475 
L 1158.551299 206.825871 
L 1160.14552 208.613605 
L 1163.333962 212.683488 
L 1166.522405 217.305733 
L 1169.710847 222.337983 
L 1176.087731 233.030542 
L 1182.464616 243.608966 
L 1185.653058 248.553889 
L 1188.8415 253.150907 
L 1188.8415 253.150907 
" clip-path="url(#p986e7c8d22)" style="fill: none; stroke: #00ff00; stroke-width: 2; stroke-linecap: square"/>
   </g>
   <g id="line2d_35">
    <path d="M 871.5915 276.908789 
L 890.722153 276.080017 
L 906.664364 275.189024 
L 913.041249 275.110705 
L 928.98346 275.133394 
L 933.766123 274.864013 
L 940.143008 274.229242 
L 952.896776 272.742902 
L 957.67944 272.407115 
L 964.056324 272.215085 
L 976.810093 271.975873 
L 983.186977 271.54695 
L 991.158083 270.727281 
L 1015.071399 267.987873 
L 1019.854063 267.123582 
L 1024.636726 266.06504 
L 1032.607832 264.0323 
L 1040.578937 262.032479 
L 1058.115369 257.929027 
L 1062.898033 256.420303 
L 1066.086475 255.231317 
L 1069.274917 253.86846 
L 1072.463359 252.290651 
L 1075.651802 250.427261 
L 1078.840244 248.169877 
L 1080.434465 246.848869 
L 1082.028686 245.371599 
L 1083.622907 243.715061 
L 1085.217128 241.855372 
L 1086.811349 239.768475 
L 1088.40557 237.430936 
L 1089.999791 234.82078 
L 1091.594013 231.918366 
L 1093.188234 228.707244 
L 1094.782455 225.174974 
L 1096.376676 221.313868 
L 1097.970897 217.121626 
L 1101.159339 207.764287 
L 1104.347781 197.206985 
L 1107.536224 185.653485 
L 1112.318887 167.11563 
L 1118.695771 142.135447 
L 1121.884214 130.438973 
L 1125.072656 119.769974 
L 1126.666877 114.920316 
L 1128.261098 110.438969 
L 1129.855319 106.354347 
L 1131.44954 102.690463 
L 1133.043761 99.466982 
L 1134.637982 96.699353 
L 1136.232204 94.399029 
L 1137.826425 92.573733 
L 1139.420646 91.227796 
L 1141.014867 90.362527 
L 1142.609088 89.976634 
L 1144.203309 90.06666 
L 1145.79753 90.627431 
L 1147.391751 91.652489 
L 1148.985972 93.134474 
L 1150.580193 95.065433 
L 1152.174415 97.437015 
L 1153.768636 100.240521 
L 1155.362857 103.466793 
L 1156.957078 107.105931 
L 1158.551299 111.146849 
L 1160.14552 115.5767 
L 1161.739741 120.38021 
L 1164.928183 131.030954 
L 1168.116626 142.904249 
L 1171.305068 155.733782 
L 1177.681952 182.865632 
L 1182.464616 202.936714 
L 1185.653058 215.464445 
L 1188.8415 226.948917 
L 1188.8415 226.948917 
" clip-path="url(#p986e7c8d22)" style="fill: none; stroke: #9933ff; stroke-width: 2; stroke-linecap: square"/>
   </g>
   <g id="patch_103">
    <path d="M 855.729 279 
L 855.729 36 
" style="fill: none; stroke: #000000; stroke-width: 2; stroke-linejoin: miter; stroke-linecap: square"/>
   </g>
   <g id="patch_104">
    <path d="M 1204.704 279 
L 1204.704 36 
" style="fill: none; stroke: #000000; stroke-width: 2; stroke-linejoin: miter; stroke-linecap: square"/>
   </g>
   <g id="patch_105">
    <path d="M 855.729 279 
L 1204.704 279 
" style="fill: none; stroke: #000000; stroke-width: 2; stroke-linejoin: miter; stroke-linecap: square"/>
   </g>
   <g id="patch_106">
    <path d="M 855.729 36 
L 1204.704 36 
" style="fill: none; stroke: #000000; stroke-width: 2; stroke-linejoin: miter; stroke-linecap: square"/>
   </g>
   <g id="legend_1">
    <g id="text_23">
     <!-- Instrument -->
     <g transform="translate(1218.059625 136.598125)scale(0.2 -0.2)">
      <defs>
       <path id="DejaVuSans-73" d="M 2834 3397 
L 2834 2853 
Q 2591 2978 2328 3040 
Q 2066 3103 1784 3103 
Q 1356 3103 1142 2972 
Q 928 2841 928 2578 
Q 928 2378 1081 2264 
Q 1234 2150 1697 2047 
L 1894 2003 
Q 2506 1872 2764 1633 
Q 3022 1394 3022 966 
Q 3022 478 2636 193 
Q 2250 -91 1575 -91 
Q 1294 -91 989 -36 
Q 684 19 347 128 
L 347 722 
Q 666 556 975 473 
Q 1284 391 1588 391 
Q 1994 391 2212 530 
Q 2431 669 2431 922 
Q 2431 1156 2273 1281 
Q 2116 1406 1581 1522 
L 1381 1569 
Q 847 1681 609 1914 
Q 372 2147 372 2553 
Q 372 3047 722 3315 
Q 1072 3584 1716 3584 
Q 2034 3584 2315 3537 
Q 2597 3491 2834 3397 
z
" transform="scale(0.015625)"/>
       <path id="DejaVuSans-6d" d="M 3328 2828 
Q 3544 3216 3844 3400 
Q 4144 3584 4550 3584 
Q 5097 3584 5394 3201 
Q 5691 2819 5691 2113 
L 5691 0 
L 5113 0 
L 5113 2094 
Q 5113 2597 4934 2840 
Q 4756 3084 4391 3084 
Q 3944 3084 3684 2787 
Q 3425 2491 3425 1978 
L 3425 0 
L 2847 0 
L 2847 2094 
Q 2847 2600 2669 2842 
Q 2491 3084 2119 3084 
Q 1678 3084 1418 2786 
Q 1159 2488 1159 1978 
L 1159 0 
L 581 0 
L 581 3500 
L 1159 3500 
L 1159 2956 
Q 1356 3278 1631 3431 
Q 1906 3584 2284 3584 
Q 2666 3584 2933 3390 
Q 3200 3197 3328 2828 
z
" transform="scale(0.015625)"/>
      </defs>
      <use xlink:href="#DejaVuSans-49"/>
      <use xlink:href="#DejaVuSans-6e" x="29.492188"/>
      <use xlink:href="#DejaVuSans-73" x="92.871094"/>
      <use xlink:href="#DejaVuSans-74" x="144.970703"/>
      <use xlink:href="#DejaVuSans-72" x="184.179688"/>
      <use xlink:href="#DejaVuSans-75" x="225.292969"/>
      <use xlink:href="#DejaVuSans-6d" x="288.671875"/>
      <use xlink:href="#DejaVuSans-65" x="386.083984"/>
      <use xlink:href="#DejaVuSans-6e" x="447.607422"/>
      <use xlink:href="#DejaVuSans-74" x="510.986328"/>
     </g>
    </g>
    <g id="patch_107">
     <path d="M 1218.088219 163.434687 
L 1254.088219 163.434687 
L 1254.088219 150.834688 
L 1218.088219 150.834688 
z
" style="fill: #9933ff; fill-opacity: 0.4; stroke: #000000; stroke-linejoin: miter"/>
    </g>
    <g id="text_24">
     <!-- Piano -->
     <g transform="translate(1268.488219 163.434687)scale(0.18 -0.18)">
      <use xlink:href="#DejaVuSans-50"/>
      <use xlink:href="#DejaVuSans-69" x="58.052734"/>
      <use xlink:href="#DejaVuSans-61" x="85.835938"/>
      <use xlink:href="#DejaVuSans-6e" x="147.115234"/>
      <use xlink:href="#DejaVuSans-6f" x="210.494141"/>
     </g>
    </g>
    <g id="patch_108">
     <path d="M 1218.088219 189.855312 
L 1254.088219 189.855312 
L 1254.088219 177.255313 
L 1218.088219 177.255313 
z
" style="fill: #00ff00; fill-opacity: 0.4; stroke: #000000; stroke-linejoin: miter"/>
    </g>
    <g id="text_25">
     <!-- Drums -->
     <g transform="translate(1268.488219 189.855312)scale(0.18 -0.18)">
      <defs>
       <path id="DejaVuSans-44" d="M 1259 4147 
L 1259 519 
L 2022 519 
Q 2988 519 3436 956 
Q 3884 1394 3884 2338 
Q 3884 3275 3436 3711 
Q 2988 4147 2022 4147 
L 1259 4147 
z
M 628 4666 
L 1925 4666 
Q 3281 4666 3915 4102 
Q 4550 3538 4550 2338 
Q 4550 1131 3912 565 
Q 3275 0 1925 0 
L 628 0 
L 628 4666 
z
" transform="scale(0.015625)"/>
      </defs>
      <use xlink:href="#DejaVuSans-44"/>
      <use xlink:href="#DejaVuSans-72" x="77.001953"/>
      <use xlink:href="#DejaVuSans-75" x="118.115234"/>
      <use xlink:href="#DejaVuSans-6d" x="181.494141"/>
      <use xlink:href="#DejaVuSans-73" x="278.90625"/>
     </g>
    </g>
   </g>
  </g>
  <g id="text_26">
   <!-- Count -->
   <g transform="translate(43.484625 212.072625)rotate(-90)scale(0.216 -0.216)">
    <use xlink:href="#DejaVuSans-43"/>
    <use xlink:href="#DejaVuSans-6f" x="69.824219"/>
    <use xlink:href="#DejaVuSans-75" x="131.005859"/>
    <use xlink:href="#DejaVuSans-6e" x="194.384766"/>
    <use xlink:href="#DejaVuSans-74" x="257.763672"/>
   </g>
  </g>
  <g id="text_27">
   <!-- Model term -->
   <g transform="translate(615.288938 351.907875)scale(0.216 -0.216)">
    <defs>
     <path id="DejaVuSans-4d" d="M 628 4666 
L 1569 4666 
L 2759 1491 
L 3956 4666 
L 4897 4666 
L 4897 0 
L 4281 0 
L 4281 4097 
L 3078 897 
L 2444 897 
L 1241 4097 
L 1241 0 
L 628 0 
L 628 4666 
z
" transform="scale(0.015625)"/>
     <path id="DejaVuSans-64" d="M 2906 2969 
L 2906 4863 
L 3481 4863 
L 3481 0 
L 2906 0 
L 2906 525 
Q 2725 213 2448 61 
Q 2172 -91 1784 -91 
Q 1150 -91 751 415 
Q 353 922 353 1747 
Q 353 2572 751 3078 
Q 1150 3584 1784 3584 
Q 2172 3584 2448 3432 
Q 2725 3281 2906 2969 
z
M 947 1747 
Q 947 1113 1208 752 
Q 1469 391 1925 391 
Q 2381 391 2643 752 
Q 2906 1113 2906 1747 
Q 2906 2381 2643 2742 
Q 2381 3103 1925 3103 
Q 1469 3103 1208 2742 
Q 947 2381 947 1747 
z
" transform="scale(0.015625)"/>
    </defs>
    <use xlink:href="#DejaVuSans-4d"/>
    <use xlink:href="#DejaVuSans-6f" x="86.279297"/>
    <use xlink:href="#DejaVuSans-64" x="147.460938"/>
    <use xlink:href="#DejaVuSans-65" x="210.9375"/>
    <use xlink:href="#DejaVuSans-6c" x="272.460938"/>
    <use xlink:href="#DejaVuSans-20" x="300.244141"/>
    <use xlink:href="#DejaVuSans-74" x="332.03125"/>
    <use xlink:href="#DejaVuSans-65" x="371.240234"/>
    <use xlink:href="#DejaVuSans-72" x="432.763672"/>
    <use xlink:href="#DejaVuSans-6d" x="472.126953"/>
   </g>
  </g>
 </g>
 <defs>
  <clipPath id="pdfd91b7a1c">
   <rect x="87.984" y="36" width="348.975" height="243"/>
  </clipPath>
  <clipPath id="pfa0e7c74c2">
   <rect x="471.8565" y="36" width="348.975" height="243"/>
  </clipPath>
  <clipPath id="p986e7c8d22">
   <rect x="855.729" y="36" width="348.975" height="243"/>
  </clipPath>
 </defs>
</svg>
