<?xml version="1.0" encoding="utf-8" standalone="no"?>
<!DOCTYPE svg PUBLIC "-//W3C//DTD SVG 1.1//EN"
  "http://www.w3.org/Graphics/SVG/1.1/DTD/svg11.dtd">
<svg xmlns:xlink="http://www.w3.org/1999/xlink" width="1353.6pt" height="504pt" viewBox="0 0 1353.6 504" xmlns="http://www.w3.org/2000/svg" version="1.1">
 <metadata>
  <rdf:RDF xmlns:dc="http://purl.org/dc/elements/1.1/" xmlns:cc="http://creativecommons.org/ns#" xmlns:rdf="http://www.w3.org/1999/02/22-rdf-syntax-ns#">
   <cc:Work>
    <dc:type rdf:resource="http://purl.org/dc/dcmitype/StillImage"/>
    <dc:date>2023-04-18T15:41:46.117564</dc:date>
    <dc:format>image/svg+xml</dc:format>
    <dc:creator>
     <cc:Agent>
      <dc:title>Matplotlib v3.5.1, https://matplotlib.org/</dc:title>
     </cc:Agent>
    </dc:creator>
   </cc:Work>
  </rdf:RDF>
 </metadata>
 <defs>
  <style type="text/css">*{stroke-linejoin: round; stroke-linecap: butt}</style>
 </defs>
 <g id="figure_1">
  <g id="patch_1">
   <path d="M 0 504 
L 1353.6 504 
L 1353.6 0 
L 0 0 
z
" style="fill: #ffffff"/>
  </g>
  <g id="axes_1">
   <g id="patch_2">
    <path d="M 87.984 429.370244 
L 286.071805 429.370244 
L 286.071805 112.429756 
L 87.984 112.429756 
z
" style="fill: #ffffff"/>
   </g>
   <g id="matplotlib.axis_1">
    <g id="xtick_1">
     <g id="line2d_1">
      <defs>
       <path id="mc4438530db" d="M 0 0 
L 0 3.5 
" style="stroke: #000000; stroke-width: 3"/>
      </defs>
      <g>
       <use xlink:href="#mc4438530db" x="96.987991" y="429.370244" style="stroke: #000000; stroke-width: 3"/>
      </g>
     </g>
     <g id="text_1">
      <!-- 0 -->
      <g transform="translate(91.261741 450.047431)scale(0.18 -0.18)">
       <defs>
        <path id="DejaVuSans-30" d="M 2034 4250 
Q 1547 4250 1301 3770 
Q 1056 3291 1056 2328 
Q 1056 1369 1301 889 
Q 1547 409 2034 409 
Q 2525 409 2770 889 
Q 3016 1369 3016 2328 
Q 3016 3291 2770 3770 
Q 2525 4250 2034 4250 
z
M 2034 4750 
Q 2819 4750 3233 4129 
Q 3647 3509 3647 2328 
Q 3647 1150 3233 529 
Q 2819 -91 2034 -91 
Q 1250 -91 836 529 
Q 422 1150 422 2328 
Q 422 3509 836 4129 
Q 1250 4750 2034 4750 
z
" transform="scale(0.015625)"/>
       </defs>
       <use xlink:href="#DejaVuSans-30"/>
      </g>
     </g>
    </g>
    <g id="xtick_2">
     <g id="line2d_2">
      <g>
       <use xlink:href="#mc4438530db" x="157.014599" y="429.370244" style="stroke: #000000; stroke-width: 3"/>
      </g>
     </g>
     <g id="text_2">
      <!-- 30 -->
      <g transform="translate(145.562099 450.047431)scale(0.18 -0.18)">
       <defs>
        <path id="DejaVuSans-33" d="M 2597 2516 
Q 3050 2419 3304 2112 
Q 3559 1806 3559 1356 
Q 3559 666 3084 287 
Q 2609 -91 1734 -91 
Q 1441 -91 1130 -33 
Q 819 25 488 141 
L 488 750 
Q 750 597 1062 519 
Q 1375 441 1716 441 
Q 2309 441 2620 675 
Q 2931 909 2931 1356 
Q 2931 1769 2642 2001 
Q 2353 2234 1838 2234 
L 1294 2234 
L 1294 2753 
L 1863 2753 
Q 2328 2753 2575 2939 
Q 2822 3125 2822 3475 
Q 2822 3834 2567 4026 
Q 2313 4219 1838 4219 
Q 1578 4219 1281 4162 
Q 984 4106 628 3988 
L 628 4550 
Q 988 4650 1302 4700 
Q 1616 4750 1894 4750 
Q 2613 4750 3031 4423 
Q 3450 4097 3450 3541 
Q 3450 3153 3228 2886 
Q 3006 2619 2597 2516 
z
" transform="scale(0.015625)"/>
       </defs>
       <use xlink:href="#DejaVuSans-33"/>
       <use xlink:href="#DejaVuSans-30" x="63.623047"/>
      </g>
     </g>
    </g>
    <g id="xtick_3">
     <g id="line2d_3">
      <g>
       <use xlink:href="#mc4438530db" x="217.041206" y="429.370244" style="stroke: #000000; stroke-width: 3"/>
      </g>
     </g>
     <g id="text_3">
      <!-- 60 -->
      <g transform="translate(205.588706 450.047431)scale(0.18 -0.18)">
       <defs>
        <path id="DejaVuSans-36" d="M 2113 2584 
Q 1688 2584 1439 2293 
Q 1191 2003 1191 1497 
Q 1191 994 1439 701 
Q 1688 409 2113 409 
Q 2538 409 2786 701 
Q 3034 994 3034 1497 
Q 3034 2003 2786 2293 
Q 2538 2584 2113 2584 
z
M 3366 4563 
L 3366 3988 
Q 3128 4100 2886 4159 
Q 2644 4219 2406 4219 
Q 1781 4219 1451 3797 
Q 1122 3375 1075 2522 
Q 1259 2794 1537 2939 
Q 1816 3084 2150 3084 
Q 2853 3084 3261 2657 
Q 3669 2231 3669 1497 
Q 3669 778 3244 343 
Q 2819 -91 2113 -91 
Q 1303 -91 875 529 
Q 447 1150 447 2328 
Q 447 3434 972 4092 
Q 1497 4750 2381 4750 
Q 2619 4750 2861 4703 
Q 3103 4656 3366 4563 
z
" transform="scale(0.015625)"/>
       </defs>
       <use xlink:href="#DejaVuSans-36"/>
       <use xlink:href="#DejaVuSans-30" x="63.623047"/>
      </g>
     </g>
    </g>
    <g id="xtick_4">
     <g id="line2d_4">
      <g>
       <use xlink:href="#mc4438530db" x="277.067814" y="429.370244" style="stroke: #000000; stroke-width: 3"/>
      </g>
     </g>
     <g id="text_4">
      <!-- 90 -->
      <g transform="translate(265.615314 450.047431)scale(0.18 -0.18)">
       <defs>
        <path id="DejaVuSans-39" d="M 703 97 
L 703 672 
Q 941 559 1184 500 
Q 1428 441 1663 441 
Q 2288 441 2617 861 
Q 2947 1281 2994 2138 
Q 2813 1869 2534 1725 
Q 2256 1581 1919 1581 
Q 1219 1581 811 2004 
Q 403 2428 403 3163 
Q 403 3881 828 4315 
Q 1253 4750 1959 4750 
Q 2769 4750 3195 4129 
Q 3622 3509 3622 2328 
Q 3622 1225 3098 567 
Q 2575 -91 1691 -91 
Q 1453 -91 1209 -44 
Q 966 3 703 97 
z
M 1959 2075 
Q 2384 2075 2632 2365 
Q 2881 2656 2881 3163 
Q 2881 3666 2632 3958 
Q 2384 4250 1959 4250 
Q 1534 4250 1286 3958 
Q 1038 3666 1038 3163 
Q 1038 2656 1286 2365 
Q 1534 2075 1959 2075 
z
" transform="scale(0.015625)"/>
       </defs>
       <use xlink:href="#DejaVuSans-39"/>
       <use xlink:href="#DejaVuSans-30" x="63.623047"/>
      </g>
     </g>
    </g>
    <g id="text_5">
     <!-- Call duration (s) -->
     <g transform="translate(102.906496 473.747588)scale(0.21 -0.21)">
      <defs>
       <path id="DejaVuSans-43" d="M 4122 4306 
L 4122 3641 
Q 3803 3938 3442 4084 
Q 3081 4231 2675 4231 
Q 1875 4231 1450 3742 
Q 1025 3253 1025 2328 
Q 1025 1406 1450 917 
Q 1875 428 2675 428 
Q 3081 428 3442 575 
Q 3803 722 4122 1019 
L 4122 359 
Q 3791 134 3420 21 
Q 3050 -91 2638 -91 
Q 1578 -91 968 557 
Q 359 1206 359 2328 
Q 359 3453 968 4101 
Q 1578 4750 2638 4750 
Q 3056 4750 3426 4639 
Q 3797 4528 4122 4306 
z
" transform="scale(0.015625)"/>
       <path id="DejaVuSans-61" d="M 2194 1759 
Q 1497 1759 1228 1600 
Q 959 1441 959 1056 
Q 959 750 1161 570 
Q 1363 391 1709 391 
Q 2188 391 2477 730 
Q 2766 1069 2766 1631 
L 2766 1759 
L 2194 1759 
z
M 3341 1997 
L 3341 0 
L 2766 0 
L 2766 531 
Q 2569 213 2275 61 
Q 1981 -91 1556 -91 
Q 1019 -91 701 211 
Q 384 513 384 1019 
Q 384 1609 779 1909 
Q 1175 2209 1959 2209 
L 2766 2209 
L 2766 2266 
Q 2766 2663 2505 2880 
Q 2244 3097 1772 3097 
Q 1472 3097 1187 3025 
Q 903 2953 641 2809 
L 641 3341 
Q 956 3463 1253 3523 
Q 1550 3584 1831 3584 
Q 2591 3584 2966 3190 
Q 3341 2797 3341 1997 
z
" transform="scale(0.015625)"/>
       <path id="DejaVuSans-6c" d="M 603 4863 
L 1178 4863 
L 1178 0 
L 603 0 
L 603 4863 
z
" transform="scale(0.015625)"/>
       <path id="DejaVuSans-20" transform="scale(0.015625)"/>
       <path id="DejaVuSans-64" d="M 2906 2969 
L 2906 4863 
L 3481 4863 
L 3481 0 
L 2906 0 
L 2906 525 
Q 2725 213 2448 61 
Q 2172 -91 1784 -91 
Q 1150 -91 751 415 
Q 353 922 353 1747 
Q 353 2572 751 3078 
Q 1150 3584 1784 3584 
Q 2172 3584 2448 3432 
Q 2725 3281 2906 2969 
z
M 947 1747 
Q 947 1113 1208 752 
Q 1469 391 1925 391 
Q 2381 391 2643 752 
Q 2906 1113 2906 1747 
Q 2906 2381 2643 2742 
Q 2381 3103 1925 3103 
Q 1469 3103 1208 2742 
Q 947 2381 947 1747 
z
" transform="scale(0.015625)"/>
       <path id="DejaVuSans-75" d="M 544 1381 
L 544 3500 
L 1119 3500 
L 1119 1403 
Q 1119 906 1312 657 
Q 1506 409 1894 409 
Q 2359 409 2629 706 
Q 2900 1003 2900 1516 
L 2900 3500 
L 3475 3500 
L 3475 0 
L 2900 0 
L 2900 538 
Q 2691 219 2414 64 
Q 2138 -91 1772 -91 
Q 1169 -91 856 284 
Q 544 659 544 1381 
z
M 1991 3584 
L 1991 3584 
z
" transform="scale(0.015625)"/>
       <path id="DejaVuSans-72" d="M 2631 2963 
Q 2534 3019 2420 3045 
Q 2306 3072 2169 3072 
Q 1681 3072 1420 2755 
Q 1159 2438 1159 1844 
L 1159 0 
L 581 0 
L 581 3500 
L 1159 3500 
L 1159 2956 
Q 1341 3275 1631 3429 
Q 1922 3584 2338 3584 
Q 2397 3584 2469 3576 
Q 2541 3569 2628 3553 
L 2631 2963 
z
" transform="scale(0.015625)"/>
       <path id="DejaVuSans-74" d="M 1172 4494 
L 1172 3500 
L 2356 3500 
L 2356 3053 
L 1172 3053 
L 1172 1153 
Q 1172 725 1289 603 
Q 1406 481 1766 481 
L 2356 481 
L 2356 0 
L 1766 0 
Q 1100 0 847 248 
Q 594 497 594 1153 
L 594 3053 
L 172 3053 
L 172 3500 
L 594 3500 
L 594 4494 
L 1172 4494 
z
" transform="scale(0.015625)"/>
       <path id="DejaVuSans-69" d="M 603 3500 
L 1178 3500 
L 1178 0 
L 603 0 
L 603 3500 
z
M 603 4863 
L 1178 4863 
L 1178 4134 
L 603 4134 
L 603 4863 
z
" transform="scale(0.015625)"/>
       <path id="DejaVuSans-6f" d="M 1959 3097 
Q 1497 3097 1228 2736 
Q 959 2375 959 1747 
Q 959 1119 1226 758 
Q 1494 397 1959 397 
Q 2419 397 2687 759 
Q 2956 1122 2956 1747 
Q 2956 2369 2687 2733 
Q 2419 3097 1959 3097 
z
M 1959 3584 
Q 2709 3584 3137 3096 
Q 3566 2609 3566 1747 
Q 3566 888 3137 398 
Q 2709 -91 1959 -91 
Q 1206 -91 779 398 
Q 353 888 353 1747 
Q 353 2609 779 3096 
Q 1206 3584 1959 3584 
z
" transform="scale(0.015625)"/>
       <path id="DejaVuSans-6e" d="M 3513 2113 
L 3513 0 
L 2938 0 
L 2938 2094 
Q 2938 2591 2744 2837 
Q 2550 3084 2163 3084 
Q 1697 3084 1428 2787 
Q 1159 2491 1159 1978 
L 1159 0 
L 581 0 
L 581 3500 
L 1159 3500 
L 1159 2956 
Q 1366 3272 1645 3428 
Q 1925 3584 2291 3584 
Q 2894 3584 3203 3211 
Q 3513 2838 3513 2113 
z
" transform="scale(0.015625)"/>
       <path id="DejaVuSans-28" d="M 1984 4856 
Q 1566 4138 1362 3434 
Q 1159 2731 1159 2009 
Q 1159 1288 1364 580 
Q 1569 -128 1984 -844 
L 1484 -844 
Q 1016 -109 783 600 
Q 550 1309 550 2009 
Q 550 2706 781 3412 
Q 1013 4119 1484 4856 
L 1984 4856 
z
" transform="scale(0.015625)"/>
       <path id="DejaVuSans-73" d="M 2834 3397 
L 2834 2853 
Q 2591 2978 2328 3040 
Q 2066 3103 1784 3103 
Q 1356 3103 1142 2972 
Q 928 2841 928 2578 
Q 928 2378 1081 2264 
Q 1234 2150 1697 2047 
L 1894 2003 
Q 2506 1872 2764 1633 
Q 3022 1394 3022 966 
Q 3022 478 2636 193 
Q 2250 -91 1575 -91 
Q 1294 -91 989 -36 
Q 684 19 347 128 
L 347 722 
Q 666 556 975 473 
Q 1284 391 1588 391 
Q 1994 391 2212 530 
Q 2431 669 2431 922 
Q 2431 1156 2273 1281 
Q 2116 1406 1581 1522 
L 1381 1569 
Q 847 1681 609 1914 
Q 372 2147 372 2553 
Q 372 3047 722 3315 
Q 1072 3584 1716 3584 
Q 2034 3584 2315 3537 
Q 2597 3491 2834 3397 
z
" transform="scale(0.015625)"/>
       <path id="DejaVuSans-29" d="M 513 4856 
L 1013 4856 
Q 1481 4119 1714 3412 
Q 1947 2706 1947 2009 
Q 1947 1309 1714 600 
Q 1481 -109 1013 -844 
L 513 -844 
Q 928 -128 1133 580 
Q 1338 1288 1338 2009 
Q 1338 2731 1133 3434 
Q 928 4138 513 4856 
z
" transform="scale(0.015625)"/>
      </defs>
      <use xlink:href="#DejaVuSans-43"/>
      <use xlink:href="#DejaVuSans-61" x="69.824219"/>
      <use xlink:href="#DejaVuSans-6c" x="131.103516"/>
      <use xlink:href="#DejaVuSans-6c" x="158.886719"/>
      <use xlink:href="#DejaVuSans-20" x="186.669922"/>
      <use xlink:href="#DejaVuSans-64" x="218.457031"/>
      <use xlink:href="#DejaVuSans-75" x="281.933594"/>
      <use xlink:href="#DejaVuSans-72" x="345.3125"/>
      <use xlink:href="#DejaVuSans-61" x="386.425781"/>
      <use xlink:href="#DejaVuSans-74" x="447.705078"/>
      <use xlink:href="#DejaVuSans-69" x="486.914062"/>
      <use xlink:href="#DejaVuSans-6f" x="514.697266"/>
      <use xlink:href="#DejaVuSans-6e" x="575.878906"/>
      <use xlink:href="#DejaVuSans-20" x="639.257812"/>
      <use xlink:href="#DejaVuSans-28" x="671.044922"/>
      <use xlink:href="#DejaVuSans-73" x="710.058594"/>
      <use xlink:href="#DejaVuSans-29" x="762.158203"/>
     </g>
    </g>
   </g>
   <g id="matplotlib.axis_2">
    <g id="ytick_1">
     <g id="line2d_5">
      <defs>
       <path id="mcf501d4d78" d="M 0 0 
L -3.5 0 
" style="stroke: #000000; stroke-width: 3"/>
      </defs>
      <g>
       <use xlink:href="#mcf501d4d78" x="87.984" y="414.963858" style="stroke: #000000; stroke-width: 3"/>
      </g>
     </g>
     <g id="text_6">
      <!-- 0 -->
      <g transform="translate(69.5315 421.802452)scale(0.18 -0.18)">
       <use xlink:href="#DejaVuSans-30"/>
      </g>
     </g>
    </g>
    <g id="ytick_2">
     <g id="line2d_6">
      <g>
       <use xlink:href="#mcf501d4d78" x="87.984" y="314.919512" style="stroke: #000000; stroke-width: 3"/>
      </g>
     </g>
     <g id="text_7">
      <!-- 50 -->
      <g transform="translate(58.079 321.758106)scale(0.18 -0.18)">
       <defs>
        <path id="DejaVuSans-35" d="M 691 4666 
L 3169 4666 
L 3169 4134 
L 1269 4134 
L 1269 2991 
Q 1406 3038 1543 3061 
Q 1681 3084 1819 3084 
Q 2600 3084 3056 2656 
Q 3513 2228 3513 1497 
Q 3513 744 3044 326 
Q 2575 -91 1722 -91 
Q 1428 -91 1123 -41 
Q 819 9 494 109 
L 494 744 
Q 775 591 1075 516 
Q 1375 441 1709 441 
Q 2250 441 2565 725 
Q 2881 1009 2881 1497 
Q 2881 1984 2565 2268 
Q 2250 2553 1709 2553 
Q 1456 2553 1204 2497 
Q 953 2441 691 2322 
L 691 4666 
z
" transform="scale(0.015625)"/>
       </defs>
       <use xlink:href="#DejaVuSans-35"/>
       <use xlink:href="#DejaVuSans-30" x="63.623047"/>
      </g>
     </g>
    </g>
    <g id="ytick_3">
     <g id="line2d_7">
      <g>
       <use xlink:href="#mcf501d4d78" x="87.984" y="214.875166" style="stroke: #000000; stroke-width: 3"/>
      </g>
     </g>
     <g id="text_8">
      <!-- 100 -->
      <g transform="translate(46.6265 221.71376)scale(0.18 -0.18)">
       <defs>
        <path id="DejaVuSans-31" d="M 794 531 
L 1825 531 
L 1825 4091 
L 703 3866 
L 703 4441 
L 1819 4666 
L 2450 4666 
L 2450 531 
L 3481 531 
L 3481 0 
L 794 0 
L 794 531 
z
" transform="scale(0.015625)"/>
       </defs>
       <use xlink:href="#DejaVuSans-31"/>
       <use xlink:href="#DejaVuSans-30" x="63.623047"/>
       <use xlink:href="#DejaVuSans-30" x="127.246094"/>
      </g>
     </g>
    </g>
    <g id="ytick_4">
     <g id="line2d_8">
      <g>
       <use xlink:href="#mcf501d4d78" x="87.984" y="114.83082" style="stroke: #000000; stroke-width: 3"/>
      </g>
     </g>
     <g id="text_9">
      <!-- 150 -->
      <g transform="translate(46.6265 121.669414)scale(0.18 -0.18)">
       <use xlink:href="#DejaVuSans-31"/>
       <use xlink:href="#DejaVuSans-35" x="63.623047"/>
       <use xlink:href="#DejaVuSans-30" x="127.246094"/>
      </g>
     </g>
    </g>
   </g>
   <g id="line2d_9">
    <path d="M 96.987991 409.62816 
L 98.487322 404.292461 
L 99.986654 404.292461 
L 101.491321 409.62816 
L 102.990652 404.292461 
L 104.489983 404.292461 
L 105.989314 404.292461 
L 107.493981 409.62816 
L 108.993313 409.62816 
L 110.492644 404.292461 
L 111.991975 350.935477 
L 113.496642 404.292461 
L 114.995973 404.292461 
L 116.495305 398.956763 
L 117.994636 329.592683 
L 119.499303 382.949667 
L 120.998634 377.613969 
L 122.497965 382.949667 
L 123.997297 388.285366 
L 125.501964 398.956763 
L 127.001295 398.956763 
L 128.500626 398.956763 
L 129.999957 393.621064 
L 131.504624 398.956763 
L 133.003956 414.963858 
L 134.503287 393.621064 
L 136.002618 393.621064 
L 137.507285 398.956763 
L 139.006616 398.956763 
L 140.505948 393.621064 
L 142.005279 398.956763 
L 143.509946 398.956763 
L 145.009277 398.956763 
L 146.508608 398.956763 
L 148.00794 398.956763 
L 149.512607 334.928381 
L 151.011938 372.278271 
L 152.511269 398.956763 
L 154.0106 361.606874 
L 155.515267 366.942572 
L 157.014599 366.942572 
L 158.51393 393.621064 
L 160.013261 388.285366 
L 161.517928 398.956763 
L 163.017259 398.956763 
L 164.516591 398.956763 
L 166.015922 393.621064 
L 167.520589 398.956763 
L 169.01992 398.956763 
L 170.519251 398.956763 
L 172.018583 393.621064 
L 173.52325 398.956763 
L 175.022581 398.956763 
L 176.521912 398.956763 
L 178.021243 393.621064 
L 179.52591 398.956763 
L 181.025242 201.53592 
L 182.524573 254.892905 
L 184.023904 340.26408 
L 185.528571 393.621064 
L 187.027902 398.956763 
L 188.527234 361.606874 
L 190.026565 382.949667 
L 191.531232 398.956763 
L 193.030563 414.963858 
L 194.529894 361.606874 
L 196.029226 404.292461 
L 197.533893 404.292461 
L 199.033224 409.62816 
L 200.532555 404.292461 
L 202.031886 404.292461 
L 203.536553 409.62816 
L 205.035885 409.62816 
L 206.535216 404.292461 
L 208.034547 404.292461 
L 209.539214 409.62816 
L 211.038545 404.292461 
L 212.537877 409.62816 
L 214.037208 404.292461 
L 215.541875 414.963858 
L 217.041206 409.62816 
L 218.540537 404.292461 
L 220.039869 409.62816 
L 221.544536 414.963858 
L 223.043867 196.200222 
L 224.543198 292.242794 
L 226.042529 377.613969 
L 227.547196 398.956763 
L 229.046528 340.26408 
L 230.545859 377.613969 
L 232.04519 265.564302 
L 233.549857 372.278271 
L 235.049188 382.949667 
L 236.54852 409.62816 
L 238.047851 409.62816 
L 239.552518 409.62816 
L 241.051849 372.278271 
L 242.55118 404.292461 
L 244.050512 398.956763 
L 245.555179 404.292461 
L 247.05451 404.292461 
L 248.553841 404.292461 
L 250.053173 398.956763 
L 251.557839 361.606874 
L 253.057171 398.956763 
L 254.556502 350.935477 
L 256.055833 377.613969 
L 257.5605 388.285366 
L 259.059831 393.621064 
L 260.559163 404.292461 
L 262.058494 398.956763 
L 263.563161 404.292461 
L 265.062492 404.292461 
L 266.561824 398.956763 
L 268.061155 398.956763 
L 269.565822 404.292461 
L 271.065153 398.956763 
L 272.564484 356.271175 
L 274.063816 372.278271 
L 275.568482 393.621064 
L 277.067814 409.62816 
" clip-path="url(#p511e3ded91)" style="fill: none; stroke: #000000; stroke-width: 2; stroke-linecap: square"/>
   </g>
   <g id="patch_3">
    <path d="M 87.984 429.370244 
L 87.984 112.429756 
" style="fill: none; stroke: #000000; stroke-width: 2; stroke-linejoin: miter; stroke-linecap: square"/>
   </g>
   <g id="patch_4">
    <path d="M 286.071805 429.370244 
L 286.071805 112.429756 
" style="fill: none; stroke: #000000; stroke-width: 2; stroke-linejoin: miter; stroke-linecap: square"/>
   </g>
   <g id="patch_5">
    <path d="M 87.984 429.370244 
L 286.071805 429.370244 
" style="fill: none; stroke: #000000; stroke-width: 2; stroke-linejoin: miter; stroke-linecap: square"/>
   </g>
   <g id="patch_6">
    <path d="M 87.984 112.429756 
L 286.071805 112.429756 
" style="fill: none; stroke: #000000; stroke-width: 2; stroke-linejoin: miter; stroke-linecap: square"/>
   </g>
   <g id="text_10">
    <!-- Original -->
    <g transform="translate(36.530484 58.888683)scale(0.23 -0.23)">
     <defs>
      <path id="DejaVuSans-Bold-4f" d="M 2719 3878 
Q 2169 3878 1866 3472 
Q 1563 3066 1563 2328 
Q 1563 1594 1866 1187 
Q 2169 781 2719 781 
Q 3272 781 3575 1187 
Q 3878 1594 3878 2328 
Q 3878 3066 3575 3472 
Q 3272 3878 2719 3878 
z
M 2719 4750 
Q 3844 4750 4481 4106 
Q 5119 3463 5119 2328 
Q 5119 1197 4481 553 
Q 3844 -91 2719 -91 
Q 1597 -91 958 553 
Q 319 1197 319 2328 
Q 319 3463 958 4106 
Q 1597 4750 2719 4750 
z
" transform="scale(0.015625)"/>
      <path id="DejaVuSans-Bold-72" d="M 3138 2547 
Q 2991 2616 2845 2648 
Q 2700 2681 2553 2681 
Q 2122 2681 1889 2404 
Q 1656 2128 1656 1613 
L 1656 0 
L 538 0 
L 538 3500 
L 1656 3500 
L 1656 2925 
Q 1872 3269 2151 3426 
Q 2431 3584 2822 3584 
Q 2878 3584 2943 3579 
Q 3009 3575 3134 3559 
L 3138 2547 
z
" transform="scale(0.015625)"/>
      <path id="DejaVuSans-Bold-69" d="M 538 3500 
L 1656 3500 
L 1656 0 
L 538 0 
L 538 3500 
z
M 538 4863 
L 1656 4863 
L 1656 3950 
L 538 3950 
L 538 4863 
z
" transform="scale(0.015625)"/>
      <path id="DejaVuSans-Bold-67" d="M 2919 594 
Q 2688 288 2409 144 
Q 2131 0 1766 0 
Q 1125 0 706 504 
Q 288 1009 288 1791 
Q 288 2575 706 3076 
Q 1125 3578 1766 3578 
Q 2131 3578 2409 3434 
Q 2688 3291 2919 2981 
L 2919 3500 
L 4044 3500 
L 4044 353 
Q 4044 -491 3511 -936 
Q 2978 -1381 1966 -1381 
Q 1638 -1381 1331 -1331 
Q 1025 -1281 716 -1178 
L 716 -306 
Q 1009 -475 1290 -558 
Q 1572 -641 1856 -641 
Q 2406 -641 2662 -400 
Q 2919 -159 2919 353 
L 2919 594 
z
M 2181 2772 
Q 1834 2772 1640 2515 
Q 1447 2259 1447 1791 
Q 1447 1309 1634 1061 
Q 1822 813 2181 813 
Q 2531 813 2725 1069 
Q 2919 1325 2919 1791 
Q 2919 2259 2725 2515 
Q 2531 2772 2181 2772 
z
" transform="scale(0.015625)"/>
      <path id="DejaVuSans-Bold-6e" d="M 4056 2131 
L 4056 0 
L 2931 0 
L 2931 347 
L 2931 1631 
Q 2931 2084 2911 2256 
Q 2891 2428 2841 2509 
Q 2775 2619 2662 2680 
Q 2550 2741 2406 2741 
Q 2056 2741 1856 2470 
Q 1656 2200 1656 1722 
L 1656 0 
L 538 0 
L 538 3500 
L 1656 3500 
L 1656 2988 
Q 1909 3294 2193 3439 
Q 2478 3584 2822 3584 
Q 3428 3584 3742 3212 
Q 4056 2841 4056 2131 
z
" transform="scale(0.015625)"/>
      <path id="DejaVuSans-Bold-61" d="M 2106 1575 
Q 1756 1575 1579 1456 
Q 1403 1338 1403 1106 
Q 1403 894 1545 773 
Q 1688 653 1941 653 
Q 2256 653 2472 879 
Q 2688 1106 2688 1447 
L 2688 1575 
L 2106 1575 
z
M 3816 1997 
L 3816 0 
L 2688 0 
L 2688 519 
Q 2463 200 2181 54 
Q 1900 -91 1497 -91 
Q 953 -91 614 226 
Q 275 544 275 1050 
Q 275 1666 698 1953 
Q 1122 2241 2028 2241 
L 2688 2241 
L 2688 2328 
Q 2688 2594 2478 2717 
Q 2269 2841 1825 2841 
Q 1466 2841 1156 2769 
Q 847 2697 581 2553 
L 581 3406 
Q 941 3494 1303 3539 
Q 1666 3584 2028 3584 
Q 2975 3584 3395 3211 
Q 3816 2838 3816 1997 
z
" transform="scale(0.015625)"/>
      <path id="DejaVuSans-Bold-6c" d="M 538 4863 
L 1656 4863 
L 1656 0 
L 538 0 
L 538 4863 
z
" transform="scale(0.015625)"/>
     </defs>
     <use xlink:href="#DejaVuSans-Bold-4f"/>
     <use xlink:href="#DejaVuSans-Bold-72" x="85.009766"/>
     <use xlink:href="#DejaVuSans-Bold-69" x="134.326172"/>
     <use xlink:href="#DejaVuSans-Bold-67" x="168.603516"/>
     <use xlink:href="#DejaVuSans-Bold-69" x="240.185547"/>
     <use xlink:href="#DejaVuSans-Bold-6e" x="274.462891"/>
     <use xlink:href="#DejaVuSans-Bold-61" x="345.654297"/>
     <use xlink:href="#DejaVuSans-Bold-6c" x="413.134766"/>
    </g>
   </g>
  </g>
  <g id="axes_2">
   <g id="patch_7">
    <path d="M 299.607805 441 
L 365.637073 441 
L 365.637073 100.8 
L 299.607805 100.8 
z
" style="fill: #ffffff"/>
   </g>
   <g id="patch_8">
    <path d="M 299.607805 425.536364 
L 357.713561 425.536364 
L 357.713561 402.054545 
L 299.607805 402.054545 
z
" clip-path="url(#pb4af2c6b30)" style="fill-opacity: 0.5; stroke: #000000; stroke-linejoin: miter"/>
   </g>
   <g id="patch_9">
    <path d="M 299.607805 402.054545 
L 309.512195 402.054545 
L 309.512195 378.572727 
L 299.607805 378.572727 
z
" clip-path="url(#pb4af2c6b30)" style="fill-opacity: 0.5; stroke: #000000; stroke-linejoin: miter"/>
   </g>
   <g id="patch_10">
    <path d="M 299.607805 378.572727 
L 305.550439 378.572727 
L 305.550439 355.090909 
L 299.607805 355.090909 
z
" clip-path="url(#pb4af2c6b30)" style="fill-opacity: 0.5; stroke: #000000; stroke-linejoin: miter"/>
   </g>
   <g id="patch_11">
    <path d="M 299.607805 355.090909 
L 302.248976 355.090909 
L 302.248976 331.609091 
L 299.607805 331.609091 
z
" clip-path="url(#pb4af2c6b30)" style="fill-opacity: 0.5; stroke: #000000; stroke-linejoin: miter"/>
   </g>
   <g id="patch_12">
    <path d="M 299.607805 331.609091 
L 299.607805 331.609091 
L 299.607805 308.127273 
L 299.607805 308.127273 
z
" clip-path="url(#pb4af2c6b30)" style="fill-opacity: 0.5; stroke: #000000; stroke-linejoin: miter"/>
   </g>
   <g id="patch_13">
    <path d="M 299.607805 308.127273 
L 300.268098 308.127273 
L 300.268098 284.645455 
L 299.607805 284.645455 
z
" clip-path="url(#pb4af2c6b30)" style="fill-opacity: 0.5; stroke: #000000; stroke-linejoin: miter"/>
   </g>
   <g id="patch_14">
    <path d="M 299.607805 284.645455 
L 300.268098 284.645455 
L 300.268098 261.163636 
L 299.607805 261.163636 
z
" clip-path="url(#pb4af2c6b30)" style="fill-opacity: 0.5; stroke: #000000; stroke-linejoin: miter"/>
   </g>
   <g id="patch_15">
    <path d="M 299.607805 261.163636 
L 300.268098 261.163636 
L 300.268098 237.681818 
L 299.607805 237.681818 
z
" clip-path="url(#pb4af2c6b30)" style="fill-opacity: 0.5; stroke: #000000; stroke-linejoin: miter"/>
   </g>
   <g id="patch_16">
    <path d="M 299.607805 237.681818 
L 299.607805 237.681818 
L 299.607805 214.2 
L 299.607805 214.2 
z
" clip-path="url(#pb4af2c6b30)" style="fill-opacity: 0.5; stroke: #000000; stroke-linejoin: miter"/>
   </g>
   <g id="patch_17">
    <path d="M 299.607805 214.2 
L 300.92839 214.2 
L 300.92839 190.718182 
L 299.607805 190.718182 
z
" clip-path="url(#pb4af2c6b30)" style="fill-opacity: 0.5; stroke: #000000; stroke-linejoin: miter"/>
   </g>
   <g id="matplotlib.axis_3">
    <g id="xtick_5">
     <g id="line2d_10">
      <defs>
       <path id="m4619b01bcd" d="M 0 0 
L 0 -3.5 
" style="stroke: #000000; stroke-width: 3"/>
      </defs>
      <g>
       <use xlink:href="#m4619b01bcd" x="299.607805" y="100.8" style="stroke: #000000; stroke-width: 3"/>
      </g>
     </g>
     <g id="text_11">
      <!-- 0 -->
      <g transform="translate(293.881555 90.056562)scale(0.18 -0.18)">
       <use xlink:href="#DejaVuSans-30"/>
      </g>
     </g>
    </g>
    <g id="xtick_6">
     <g id="line2d_11">
      <g>
       <use xlink:href="#m4619b01bcd" x="365.637073" y="100.8" style="stroke: #000000; stroke-width: 3"/>
      </g>
     </g>
     <g id="text_12">
      <!-- 100 -->
      <g transform="translate(348.458323 90.056562)scale(0.18 -0.18)">
       <use xlink:href="#DejaVuSans-31"/>
       <use xlink:href="#DejaVuSans-30" x="63.623047"/>
       <use xlink:href="#DejaVuSans-30" x="127.246094"/>
      </g>
     </g>
    </g>
    <g id="text_13">
     <!-- Density -->
     <g transform="translate(292.704392 72.379375)scale(0.21 -0.21)">
      <defs>
       <path id="DejaVuSans-44" d="M 1259 4147 
L 1259 519 
L 2022 519 
Q 2988 519 3436 956 
Q 3884 1394 3884 2338 
Q 3884 3275 3436 3711 
Q 2988 4147 2022 4147 
L 1259 4147 
z
M 628 4666 
L 1925 4666 
Q 3281 4666 3915 4102 
Q 4550 3538 4550 2338 
Q 4550 1131 3912 565 
Q 3275 0 1925 0 
L 628 0 
L 628 4666 
z
" transform="scale(0.015625)"/>
       <path id="DejaVuSans-65" d="M 3597 1894 
L 3597 1613 
L 953 1613 
Q 991 1019 1311 708 
Q 1631 397 2203 397 
Q 2534 397 2845 478 
Q 3156 559 3463 722 
L 3463 178 
Q 3153 47 2828 -22 
Q 2503 -91 2169 -91 
Q 1331 -91 842 396 
Q 353 884 353 1716 
Q 353 2575 817 3079 
Q 1281 3584 2069 3584 
Q 2775 3584 3186 3129 
Q 3597 2675 3597 1894 
z
M 3022 2063 
Q 3016 2534 2758 2815 
Q 2500 3097 2075 3097 
Q 1594 3097 1305 2825 
Q 1016 2553 972 2059 
L 3022 2063 
z
" transform="scale(0.015625)"/>
       <path id="DejaVuSans-79" d="M 2059 -325 
Q 1816 -950 1584 -1140 
Q 1353 -1331 966 -1331 
L 506 -1331 
L 506 -850 
L 844 -850 
Q 1081 -850 1212 -737 
Q 1344 -625 1503 -206 
L 1606 56 
L 191 3500 
L 800 3500 
L 1894 763 
L 2988 3500 
L 3597 3500 
L 2059 -325 
z
" transform="scale(0.015625)"/>
      </defs>
      <use xlink:href="#DejaVuSans-44"/>
      <use xlink:href="#DejaVuSans-65" x="77.001953"/>
      <use xlink:href="#DejaVuSans-6e" x="138.525391"/>
      <use xlink:href="#DejaVuSans-73" x="201.904297"/>
      <use xlink:href="#DejaVuSans-69" x="254.003906"/>
      <use xlink:href="#DejaVuSans-74" x="281.787109"/>
      <use xlink:href="#DejaVuSans-79" x="320.996094"/>
     </g>
    </g>
   </g>
   <g id="matplotlib.axis_4">
    <g id="ytick_5">
     <g id="line2d_12">
      <g>
       <use xlink:href="#mcf501d4d78" x="299.607805" y="425.536364" style="stroke: #000000; stroke-width: 3"/>
      </g>
     </g>
    </g>
    <g id="ytick_6">
     <g id="line2d_13">
      <g>
       <use xlink:href="#mcf501d4d78" x="299.607805" y="318.15" style="stroke: #000000; stroke-width: 3"/>
      </g>
     </g>
    </g>
    <g id="ytick_7">
     <g id="line2d_14">
      <g>
       <use xlink:href="#mcf501d4d78" x="299.607805" y="210.763636" style="stroke: #000000; stroke-width: 3"/>
      </g>
     </g>
    </g>
    <g id="ytick_8">
     <g id="line2d_15">
      <g>
       <use xlink:href="#mcf501d4d78" x="299.607805" y="103.377273" style="stroke: #000000; stroke-width: 3"/>
      </g>
     </g>
    </g>
   </g>
   <g id="line2d_16">
    <path d="M 323.640115 425.536364 
L 328.11629 421.996391 
L 330.742797 419.636409 
L 332.92595 417.276428 
L 333.81477 416.096437 
L 334.552527 414.916446 
L 335.130083 413.736455 
L 335.540809 412.556464 
L 335.780755 411.376473 
L 335.848742 410.196482 
L 335.746376 409.016492 
L 335.477994 407.836501 
L 335.050523 406.65651 
L 334.473283 405.476519 
L 332.917069 403.116537 
L 330.920386 400.756556 
L 328.611173 398.396574 
L 317.624872 387.776656 
L 315.578919 385.416674 
L 313.769659 383.056693 
L 312.197413 380.696711 
L 310.847186 378.336729 
L 309.694261 375.976747 
L 308.27057 372.436775 
L 307.127559 368.896802 
L 305.904502 364.176839 
L 304.913788 359.456875 
L 303.901646 353.556921 
L 302.92097 346.476976 
L 301.713279 335.857058 
L 300.820029 326.417131 
L 300.345807 319.337186 
L 300.098554 312.257241 
L 300.046777 303.997305 
L 300.284733 274.497533 
L 300.404875 257.977661 
L 300.196604 247.357743 
L 299.787437 229.65788 
L 299.81435 220.217953 
L 300.07948 209.598036 
L 300.415175 196.618136 
L 300.416806 190.718182 
L 300.416806 190.718182 
" clip-path="url(#pb4af2c6b30)" style="fill: none; stroke: #000000; stroke-width: 3; stroke-linecap: square"/>
   </g>
   <g id="patch_18">
    <path d="M 299.607805 441 
L 299.607805 100.8 
" style="fill: none; stroke: #000000; stroke-width: 2; stroke-linejoin: miter; stroke-linecap: square"/>
   </g>
   <g id="patch_19">
    <path d="M 299.607805 100.8 
L 365.637073 100.8 
" style="fill: none; stroke: #000000; stroke-width: 2; stroke-linejoin: miter; stroke-linecap: square"/>
   </g>
  </g>
  <g id="axes_3"/>
  <g id="axes_4">
   <g id="patch_20">
    <path d="M 399.312 429.370244 
L 597.399805 429.370244 
L 597.399805 112.429756 
L 399.312 112.429756 
z
" style="fill: #ffffff"/>
   </g>
   <g id="matplotlib.axis_5">
    <g id="xtick_7">
     <g id="line2d_17">
      <g>
       <use xlink:href="#mc4438530db" x="408.315991" y="429.370244" style="stroke: #000000; stroke-width: 3"/>
      </g>
     </g>
     <g id="text_14">
      <!-- 0 -->
      <g transform="translate(402.589741 450.047431)scale(0.18 -0.18)">
       <use xlink:href="#DejaVuSans-30"/>
      </g>
     </g>
    </g>
    <g id="xtick_8">
     <g id="line2d_18">
      <g>
       <use xlink:href="#mc4438530db" x="468.342599" y="429.370244" style="stroke: #000000; stroke-width: 3"/>
      </g>
     </g>
     <g id="text_15">
      <!-- 30 -->
      <g transform="translate(456.890099 450.047431)scale(0.18 -0.18)">
       <use xlink:href="#DejaVuSans-33"/>
       <use xlink:href="#DejaVuSans-30" x="63.623047"/>
      </g>
     </g>
    </g>
    <g id="xtick_9">
     <g id="line2d_19">
      <g>
       <use xlink:href="#mc4438530db" x="528.369206" y="429.370244" style="stroke: #000000; stroke-width: 3"/>
      </g>
     </g>
     <g id="text_16">
      <!-- 60 -->
      <g transform="translate(516.916706 450.047431)scale(0.18 -0.18)">
       <use xlink:href="#DejaVuSans-36"/>
       <use xlink:href="#DejaVuSans-30" x="63.623047"/>
      </g>
     </g>
    </g>
    <g id="xtick_10">
     <g id="line2d_20">
      <g>
       <use xlink:href="#mc4438530db" x="588.395814" y="429.370244" style="stroke: #000000; stroke-width: 3"/>
      </g>
     </g>
     <g id="text_17">
      <!-- 90 -->
      <g transform="translate(576.943314 450.047431)scale(0.18 -0.18)">
       <use xlink:href="#DejaVuSans-39"/>
       <use xlink:href="#DejaVuSans-30" x="63.623047"/>
      </g>
     </g>
    </g>
   </g>
   <g id="matplotlib.axis_6">
    <g id="ytick_9">
     <g id="line2d_21">
      <g>
       <use xlink:href="#mcf501d4d78" x="399.312" y="414.963858" style="stroke: #000000; stroke-width: 3"/>
      </g>
     </g>
    </g>
    <g id="ytick_10">
     <g id="line2d_22">
      <g>
       <use xlink:href="#mcf501d4d78" x="399.312" y="314.919512" style="stroke: #000000; stroke-width: 3"/>
      </g>
     </g>
    </g>
    <g id="ytick_11">
     <g id="line2d_23">
      <g>
       <use xlink:href="#mcf501d4d78" x="399.312" y="214.875166" style="stroke: #000000; stroke-width: 3"/>
      </g>
     </g>
    </g>
    <g id="ytick_12">
     <g id="line2d_24">
      <g>
       <use xlink:href="#mcf501d4d78" x="399.312" y="114.83082" style="stroke: #000000; stroke-width: 3"/>
      </g>
     </g>
    </g>
   </g>
   <g id="line2d_25">
    <path d="M 408.315991 398.956763 
L 409.815322 393.621064 
L 411.314654 393.621064 
L 412.813985 393.621064 
L 414.318652 398.956763 
L 415.817983 393.621064 
L 417.317314 393.621064 
L 418.816646 393.621064 
L 420.321313 398.956763 
L 421.820644 393.621064 
L 423.319975 393.621064 
L 424.819306 382.949667 
L 426.323973 388.285366 
L 427.823305 393.621064 
L 429.322636 372.278271 
L 430.821967 372.278271 
L 432.326634 414.963858 
L 433.825965 388.285366 
L 435.325297 388.285366 
L 436.824628 388.285366 
L 438.329295 393.621064 
L 439.828626 393.621064 
L 441.327957 388.285366 
L 442.827289 382.949667 
L 444.331956 334.928381 
L 445.831287 334.928381 
L 447.330618 361.606874 
L 448.829949 382.949667 
L 450.334616 404.292461 
L 451.833948 404.292461 
L 453.333279 404.292461 
L 454.83261 398.956763 
L 456.337277 404.292461 
L 457.836608 404.292461 
L 459.33594 404.292461 
L 460.835271 398.956763 
L 462.339938 404.292461 
L 463.839269 404.292461 
L 465.3386 404.292461 
L 466.837932 398.956763 
L 468.342599 404.292461 
L 469.84193 404.292461 
L 471.341261 404.292461 
L 472.840592 398.956763 
L 474.345259 404.292461 
L 475.844591 404.292461 
L 477.343922 404.292461 
L 478.843253 398.956763 
L 480.34792 404.292461 
L 481.847251 404.292461 
L 483.346583 404.292461 
L 484.845914 404.292461 
L 486.350581 404.292461 
L 487.849912 404.292461 
L 489.349243 404.292461 
L 490.848575 404.292461 
L 492.353242 404.292461 
L 493.852573 404.292461 
L 495.351904 404.292461 
L 496.851235 404.292461 
L 498.355902 404.292461 
L 499.855234 404.292461 
L 501.354565 404.292461 
L 502.853896 404.292461 
L 504.358563 409.62816 
L 505.857894 404.292461 
L 507.357226 404.292461 
L 508.856557 404.292461 
L 510.361224 409.62816 
L 511.860555 153.514634 
L 513.359886 190.864523 
L 514.859218 206.871619 
L 516.363885 201.53592 
L 517.863216 196.200222 
L 519.362547 201.53592 
L 520.861878 238.885809 
L 522.366545 302.914191 
L 523.865877 377.613969 
L 525.365208 377.613969 
L 526.864539 377.613969 
L 528.369206 393.621064 
L 529.868537 393.621064 
L 531.367869 414.963858 
L 532.8672 393.621064 
L 534.371867 398.956763 
L 535.871198 398.956763 
L 537.370529 393.621064 
L 538.869861 393.621064 
L 540.374528 398.956763 
L 541.873859 398.956763 
L 543.37319 398.956763 
L 544.872522 393.621064 
L 546.377188 398.956763 
L 547.87652 398.956763 
L 549.375851 398.956763 
L 550.875182 393.621064 
L 552.379849 398.956763 
L 553.87918 398.956763 
L 555.378512 398.956763 
L 556.877843 393.621064 
L 558.38251 398.956763 
L 559.881841 398.956763 
L 561.381173 398.956763 
L 562.880504 393.621064 
L 564.385171 398.956763 
L 565.884502 398.956763 
L 567.383833 398.956763 
L 568.883165 393.621064 
L 570.387831 398.956763 
L 571.887163 398.956763 
L 573.386494 398.956763 
L 574.885825 398.956763 
L 576.390492 398.956763 
L 577.889824 398.956763 
L 579.389155 398.956763 
L 580.888486 398.956763 
L 582.393153 398.956763 
L 583.892484 398.956763 
L 585.391816 398.956763 
L 586.891147 398.956763 
L 588.395814 398.956763 
" clip-path="url(#p355a55c728)" style="fill: none; stroke: #000000; stroke-width: 2; stroke-linecap: square"/>
   </g>
   <g id="patch_21">
    <path d="M 399.312 429.370244 
L 399.312 112.429756 
" style="fill: none; stroke: #000000; stroke-width: 2; stroke-linejoin: miter; stroke-linecap: square"/>
   </g>
   <g id="patch_22">
    <path d="M 597.399805 429.370244 
L 597.399805 112.429756 
" style="fill: none; stroke: #000000; stroke-width: 2; stroke-linejoin: miter; stroke-linecap: square"/>
   </g>
   <g id="patch_23">
    <path d="M 399.312 429.370244 
L 597.399805 429.370244 
" style="fill: none; stroke: #000000; stroke-width: 2; stroke-linejoin: miter; stroke-linecap: square"/>
   </g>
   <g id="patch_24">
    <path d="M 399.312 112.429756 
L 597.399805 112.429756 
" style="fill: none; stroke: #000000; stroke-width: 2; stroke-linejoin: miter; stroke-linecap: square"/>
   </g>
   <g id="text_18">
    <!-- 1 -->
    <g transform="translate(391.310516 58.888683)scale(0.23 -0.23)">
     <defs>
      <path id="DejaVuSans-Bold-31" d="M 750 831 
L 1813 831 
L 1813 3847 
L 722 3622 
L 722 4441 
L 1806 4666 
L 2950 4666 
L 2950 831 
L 4013 831 
L 4013 0 
L 750 0 
L 750 831 
z
" transform="scale(0.015625)"/>
     </defs>
     <use xlink:href="#DejaVuSans-Bold-31"/>
    </g>
   </g>
  </g>
  <g id="axes_5">
   <g id="patch_25">
    <path d="M 610.935805 441 
L 676.965073 441 
L 676.965073 100.8 
L 610.935805 100.8 
z
" style="fill: #ffffff"/>
   </g>
   <g id="patch_26">
    <path d="M 610.935805 425.536364 
L 674.984195 425.536364 
L 674.984195 397.472727 
L 610.935805 397.472727 
z
" clip-path="url(#p58f69b4f3a)" style="fill-opacity: 0.5; stroke: #000000; stroke-linejoin: miter"/>
   </g>
   <g id="patch_27">
    <path d="M 610.935805 397.472727 
L 619.51961 397.472727 
L 619.51961 369.409091 
L 610.935805 369.409091 
z
" clip-path="url(#p58f69b4f3a)" style="fill-opacity: 0.5; stroke: #000000; stroke-linejoin: miter"/>
   </g>
   <g id="patch_28">
    <path d="M 610.935805 369.409091 
L 611.596098 369.409091 
L 611.596098 341.345455 
L 610.935805 341.345455 
z
" clip-path="url(#p58f69b4f3a)" style="fill-opacity: 0.5; stroke: #000000; stroke-linejoin: miter"/>
   </g>
   <g id="patch_29">
    <path d="M 610.935805 341.345455 
L 612.25639 341.345455 
L 612.25639 313.281818 
L 610.935805 313.281818 
z
" clip-path="url(#p58f69b4f3a)" style="fill-opacity: 0.5; stroke: #000000; stroke-linejoin: miter"/>
   </g>
   <g id="patch_30">
    <path d="M 610.935805 313.281818 
L 611.596098 313.281818 
L 611.596098 285.218182 
L 610.935805 285.218182 
z
" clip-path="url(#p58f69b4f3a)" style="fill-opacity: 0.5; stroke: #000000; stroke-linejoin: miter"/>
   </g>
   <g id="patch_31">
    <path d="M 610.935805 285.218182 
L 610.935805 285.218182 
L 610.935805 257.154545 
L 610.935805 257.154545 
z
" clip-path="url(#p58f69b4f3a)" style="fill-opacity: 0.5; stroke: #000000; stroke-linejoin: miter"/>
   </g>
   <g id="patch_32">
    <path d="M 610.935805 257.154545 
L 611.596098 257.154545 
L 611.596098 229.090909 
L 610.935805 229.090909 
z
" clip-path="url(#p58f69b4f3a)" style="fill-opacity: 0.5; stroke: #000000; stroke-linejoin: miter"/>
   </g>
   <g id="patch_33">
    <path d="M 610.935805 229.090909 
L 611.596098 229.090909 
L 611.596098 201.027273 
L 610.935805 201.027273 
z
" clip-path="url(#p58f69b4f3a)" style="fill-opacity: 0.5; stroke: #000000; stroke-linejoin: miter"/>
   </g>
   <g id="patch_34">
    <path d="M 610.935805 201.027273 
L 613.576976 201.027273 
L 613.576976 172.963636 
L 610.935805 172.963636 
z
" clip-path="url(#p58f69b4f3a)" style="fill-opacity: 0.5; stroke: #000000; stroke-linejoin: miter"/>
   </g>
   <g id="patch_35">
    <path d="M 610.935805 172.963636 
L 611.596098 172.963636 
L 611.596098 144.9 
L 610.935805 144.9 
z
" clip-path="url(#p58f69b4f3a)" style="fill-opacity: 0.5; stroke: #000000; stroke-linejoin: miter"/>
   </g>
   <g id="matplotlib.axis_7">
    <g id="xtick_11">
     <g id="line2d_26">
      <g>
       <use xlink:href="#m4619b01bcd" x="610.935805" y="100.8" style="stroke: #000000; stroke-width: 3"/>
      </g>
     </g>
     <g id="text_19">
      <!-- 0 -->
      <g transform="translate(605.209555 90.056562)scale(0.18 -0.18)">
       <use xlink:href="#DejaVuSans-30"/>
      </g>
     </g>
    </g>
    <g id="xtick_12">
     <g id="line2d_27">
      <g>
       <use xlink:href="#m4619b01bcd" x="676.965073" y="100.8" style="stroke: #000000; stroke-width: 3"/>
      </g>
     </g>
     <g id="text_20">
      <!-- 100 -->
      <g transform="translate(659.786323 90.056562)scale(0.18 -0.18)">
       <use xlink:href="#DejaVuSans-31"/>
       <use xlink:href="#DejaVuSans-30" x="63.623047"/>
       <use xlink:href="#DejaVuSans-30" x="127.246094"/>
      </g>
     </g>
    </g>
   </g>
   <g id="matplotlib.axis_8">
    <g id="ytick_13">
     <g id="line2d_28">
      <g>
       <use xlink:href="#mcf501d4d78" x="610.935805" y="425.536364" style="stroke: #000000; stroke-width: 3"/>
      </g>
     </g>
    </g>
    <g id="ytick_14">
     <g id="line2d_29">
      <g>
       <use xlink:href="#mcf501d4d78" x="610.935805" y="318.15" style="stroke: #000000; stroke-width: 3"/>
      </g>
     </g>
    </g>
    <g id="ytick_15">
     <g id="line2d_30">
      <g>
       <use xlink:href="#mcf501d4d78" x="610.935805" y="210.763636" style="stroke: #000000; stroke-width: 3"/>
      </g>
     </g>
    </g>
    <g id="ytick_16">
     <g id="line2d_31">
      <g>
       <use xlink:href="#mcf501d4d78" x="610.935805" y="103.377273" style="stroke: #000000; stroke-width: 3"/>
      </g>
     </g>
    </g>
   </g>
   <g id="line2d_32">
    <path d="M 637.900118 425.536364 
L 640.763526 422.715898 
L 643.346478 419.895432 
L 645.531849 417.074966 
L 646.442396 415.664733 
L 647.216389 414.2545 
L 647.844461 412.844267 
L 648.319077 411.434034 
L 648.634682 410.023801 
L 648.787824 408.613568 
L 648.777212 407.203335 
L 648.603742 405.793102 
L 648.270458 404.382869 
L 647.782478 402.972636 
L 647.146869 401.562403 
L 646.372481 400.15217 
L 644.450453 397.331704 
L 642.114569 394.511238 
L 639.47631 391.690772 
L 633.75384 386.04984 
L 628.130861 380.408908 
L 625.560602 377.588442 
L 623.221951 374.767976 
L 621.143727 371.94751 
L 619.337405 369.127044 
L 617.799953 366.306578 
L 616.517132 363.486112 
L 615.466823 360.665646 
L 614.622126 357.84518 
L 613.954001 355.024714 
L 613.219705 350.794016 
L 612.727202 346.563317 
L 612.317899 340.922385 
L 611.985259 332.460987 
L 611.661761 316.948424 
L 611.138256 278.872133 
L 611.135329 263.359571 
L 611.36713 245.026542 
L 611.789594 226.693513 
L 612.762852 194.258154 
L 612.628193 185.796757 
L 612.138586 173.10466 
L 611.653493 159.00233 
L 611.414796 144.9 
L 611.414796 144.9 
" clip-path="url(#p58f69b4f3a)" style="fill: none; stroke: #000000; stroke-width: 3; stroke-linecap: square"/>
   </g>
   <g id="patch_36">
    <path d="M 610.935805 441 
L 610.935805 100.8 
" style="fill: none; stroke: #000000; stroke-width: 2; stroke-linejoin: miter; stroke-linecap: square"/>
   </g>
   <g id="patch_37">
    <path d="M 610.935805 100.8 
L 676.965073 100.8 
" style="fill: none; stroke: #000000; stroke-width: 2; stroke-linejoin: miter; stroke-linecap: square"/>
   </g>
  </g>
  <g id="axes_6"/>
  <g id="axes_7">
   <g id="patch_38">
    <path d="M 710.64 429.370244 
L 908.727805 429.370244 
L 908.727805 112.429756 
L 710.64 112.429756 
z
" style="fill: #ffffff"/>
   </g>
   <g id="matplotlib.axis_9">
    <g id="xtick_13">
     <g id="line2d_33">
      <g>
       <use xlink:href="#mc4438530db" x="719.643991" y="429.370244" style="stroke: #000000; stroke-width: 3"/>
      </g>
     </g>
     <g id="text_21">
      <!-- 0 -->
      <g transform="translate(713.917741 450.047431)scale(0.18 -0.18)">
       <use xlink:href="#DejaVuSans-30"/>
      </g>
     </g>
    </g>
    <g id="xtick_14">
     <g id="line2d_34">
      <g>
       <use xlink:href="#mc4438530db" x="779.670599" y="429.370244" style="stroke: #000000; stroke-width: 3"/>
      </g>
     </g>
     <g id="text_22">
      <!-- 30 -->
      <g transform="translate(768.218099 450.047431)scale(0.18 -0.18)">
       <use xlink:href="#DejaVuSans-33"/>
       <use xlink:href="#DejaVuSans-30" x="63.623047"/>
      </g>
     </g>
    </g>
    <g id="xtick_15">
     <g id="line2d_35">
      <g>
       <use xlink:href="#mc4438530db" x="839.697206" y="429.370244" style="stroke: #000000; stroke-width: 3"/>
      </g>
     </g>
     <g id="text_23">
      <!-- 60 -->
      <g transform="translate(828.244706 450.047431)scale(0.18 -0.18)">
       <use xlink:href="#DejaVuSans-36"/>
       <use xlink:href="#DejaVuSans-30" x="63.623047"/>
      </g>
     </g>
    </g>
    <g id="xtick_16">
     <g id="line2d_36">
      <g>
       <use xlink:href="#mc4438530db" x="899.723814" y="429.370244" style="stroke: #000000; stroke-width: 3"/>
      </g>
     </g>
     <g id="text_24">
      <!-- 90 -->
      <g transform="translate(888.271314 450.047431)scale(0.18 -0.18)">
       <use xlink:href="#DejaVuSans-39"/>
       <use xlink:href="#DejaVuSans-30" x="63.623047"/>
      </g>
     </g>
    </g>
   </g>
   <g id="matplotlib.axis_10">
    <g id="ytick_17">
     <g id="line2d_37">
      <g>
       <use xlink:href="#mcf501d4d78" x="710.64" y="414.963858" style="stroke: #000000; stroke-width: 3"/>
      </g>
     </g>
    </g>
    <g id="ytick_18">
     <g id="line2d_38">
      <g>
       <use xlink:href="#mcf501d4d78" x="710.64" y="314.919512" style="stroke: #000000; stroke-width: 3"/>
      </g>
     </g>
    </g>
    <g id="ytick_19">
     <g id="line2d_39">
      <g>
       <use xlink:href="#mcf501d4d78" x="710.64" y="214.875166" style="stroke: #000000; stroke-width: 3"/>
      </g>
     </g>
    </g>
    <g id="ytick_20">
     <g id="line2d_40">
      <g>
       <use xlink:href="#mcf501d4d78" x="710.64" y="114.83082" style="stroke: #000000; stroke-width: 3"/>
      </g>
     </g>
    </g>
   </g>
   <g id="line2d_41">
    <path d="M 719.643991 398.956763 
L 721.148658 398.956763 
L 722.647989 398.956763 
L 724.147321 398.956763 
L 725.646652 398.956763 
L 727.151319 398.956763 
L 728.65065 398.956763 
L 730.149981 398.956763 
L 731.649313 398.956763 
L 733.148644 393.621064 
L 734.653311 398.956763 
L 736.152642 398.956763 
L 737.651973 398.956763 
L 739.15664 398.956763 
L 740.655972 292.242794 
L 742.155303 340.26408 
L 743.654634 260.228603 
L 745.159301 329.592683 
L 746.658632 270.9 
L 748.157964 260.228603 
L 749.657295 377.613969 
L 751.161962 404.292461 
L 752.661293 404.292461 
L 754.160624 398.956763 
L 755.659956 398.956763 
L 757.164623 404.292461 
L 758.663954 404.292461 
L 760.163285 398.956763 
L 761.662616 398.956763 
L 763.167283 404.292461 
L 764.666615 404.292461 
L 766.165946 404.292461 
L 767.665277 398.956763 
L 769.164608 398.956763 
L 770.669275 404.292461 
L 772.168607 404.292461 
L 773.667938 398.956763 
L 775.172605 404.292461 
L 776.671936 404.292461 
L 778.171267 404.292461 
L 779.670599 404.292461 
L 781.175266 404.292461 
L 782.674597 404.292461 
L 784.173928 382.949667 
L 785.673259 409.62816 
L 787.177926 414.963858 
L 788.677258 414.963858 
L 790.176589 409.62816 
L 791.67592 409.62816 
L 793.180587 414.963858 
L 794.679918 414.963858 
L 796.17925 409.62816 
L 797.678581 409.62816 
L 799.183248 414.963858 
L 800.682579 414.963858 
L 802.18191 409.62816 
L 803.681242 409.62816 
L 805.185909 414.963858 
L 806.68524 414.963858 
L 808.184571 414.963858 
L 809.683902 409.62816 
L 811.188569 414.963858 
L 812.687901 414.963858 
L 814.187232 414.963858 
L 815.686563 409.62816 
L 817.19123 414.963858 
L 818.690561 414.963858 
L 820.189893 414.963858 
L 821.689224 414.963858 
L 823.193891 414.963858 
L 824.693222 414.963858 
L 826.192553 414.963858 
L 827.691885 414.963858 
L 829.196552 414.963858 
L 830.695883 414.963858 
L 832.195214 414.963858 
L 833.694545 414.963858 
L 835.199212 414.963858 
L 836.698544 414.963858 
L 838.197875 414.963858 
L 839.697206 414.963858 
L 841.201873 414.963858 
L 842.701204 414.963858 
L 844.200536 414.963858 
L 845.699867 414.963858 
L 847.204534 414.963858 
L 848.703865 414.963858 
L 850.203196 414.963858 
L 851.702528 414.963858 
L 853.207195 414.963858 
L 854.706526 414.963858 
L 856.205857 414.963858 
L 857.705188 414.963858 
L 859.209855 414.963858 
L 860.709187 414.963858 
L 862.208518 414.963858 
L 863.707849 414.963858 
L 865.212516 414.963858 
L 866.711847 414.963858 
L 868.211179 414.963858 
L 869.71051 414.963858 
L 871.215177 414.963858 
L 872.714508 414.963858 
L 874.213839 329.592683 
L 875.713171 388.285366 
L 877.217838 414.963858 
L 878.717169 414.963858 
L 880.2165 414.963858 
L 881.715831 409.62816 
L 883.215163 409.62816 
L 884.71983 414.963858 
L 886.219161 414.963858 
L 887.718492 409.62816 
L 889.223159 414.963858 
L 890.72249 414.963858 
L 892.221822 414.963858 
L 893.721153 409.62816 
L 895.22582 414.963858 
L 896.725151 414.963858 
L 898.224482 414.963858 
L 899.723814 414.963858 
" clip-path="url(#p003488af00)" style="fill: none; stroke: #000000; stroke-width: 2; stroke-linecap: square"/>
   </g>
   <g id="patch_39">
    <path d="M 710.64 429.370244 
L 710.64 112.429756 
" style="fill: none; stroke: #000000; stroke-width: 2; stroke-linejoin: miter; stroke-linecap: square"/>
   </g>
   <g id="patch_40">
    <path d="M 908.727805 429.370244 
L 908.727805 112.429756 
" style="fill: none; stroke: #000000; stroke-width: 2; stroke-linejoin: miter; stroke-linecap: square"/>
   </g>
   <g id="patch_41">
    <path d="M 710.64 429.370244 
L 908.727805 429.370244 
" style="fill: none; stroke: #000000; stroke-width: 2; stroke-linejoin: miter; stroke-linecap: square"/>
   </g>
   <g id="patch_42">
    <path d="M 710.64 112.429756 
L 908.727805 112.429756 
" style="fill: none; stroke: #000000; stroke-width: 2; stroke-linejoin: miter; stroke-linecap: square"/>
   </g>
   <g id="text_25">
    <!-- 2 -->
    <g transform="translate(702.638516 58.888683)scale(0.23 -0.23)">
     <defs>
      <path id="DejaVuSans-Bold-32" d="M 1844 884 
L 3897 884 
L 3897 0 
L 506 0 
L 506 884 
L 2209 2388 
Q 2438 2594 2547 2791 
Q 2656 2988 2656 3200 
Q 2656 3528 2436 3728 
Q 2216 3928 1850 3928 
Q 1569 3928 1234 3808 
Q 900 3688 519 3450 
L 519 4475 
Q 925 4609 1322 4679 
Q 1719 4750 2100 4750 
Q 2938 4750 3402 4381 
Q 3866 4013 3866 3353 
Q 3866 2972 3669 2642 
Q 3472 2313 2841 1759 
L 1844 884 
z
" transform="scale(0.015625)"/>
     </defs>
     <use xlink:href="#DejaVuSans-Bold-32"/>
    </g>
   </g>
  </g>
  <g id="axes_8">
   <g id="patch_43">
    <path d="M 922.263805 441 
L 988.293073 441 
L 988.293073 100.8 
L 922.263805 100.8 
z
" style="fill: #ffffff"/>
   </g>
   <g id="patch_44">
    <path d="M 922.263805 425.536364 
L 981.690146 425.536364 
L 981.690146 408.927273 
L 922.263805 408.927273 
z
" clip-path="url(#p442a88cd0f)" style="fill-opacity: 0.5; stroke: #000000; stroke-linejoin: miter"/>
   </g>
   <g id="patch_45">
    <path d="M 922.263805 408.927273 
L 936.790244 408.927273 
L 936.790244 392.318182 
L 922.263805 392.318182 
z
" clip-path="url(#p442a88cd0f)" style="fill-opacity: 0.5; stroke: #000000; stroke-linejoin: miter"/>
   </g>
   <g id="patch_46">
    <path d="M 922.263805 392.318182 
L 923.58439 392.318182 
L 923.58439 375.709091 
L 922.263805 375.709091 
z
" clip-path="url(#p442a88cd0f)" style="fill-opacity: 0.5; stroke: #000000; stroke-linejoin: miter"/>
   </g>
   <g id="patch_47">
    <path d="M 922.263805 375.709091 
L 922.263805 375.709091 
L 922.263805 359.1 
L 922.263805 359.1 
z
" clip-path="url(#p442a88cd0f)" style="fill-opacity: 0.5; stroke: #000000; stroke-linejoin: miter"/>
   </g>
   <g id="patch_48">
    <path d="M 922.263805 359.1 
L 922.924098 359.1 
L 922.924098 342.490909 
L 922.263805 342.490909 
z
" clip-path="url(#p442a88cd0f)" style="fill-opacity: 0.5; stroke: #000000; stroke-linejoin: miter"/>
   </g>
   <g id="patch_49">
    <path d="M 922.263805 342.490909 
L 923.58439 342.490909 
L 923.58439 325.881818 
L 922.263805 325.881818 
z
" clip-path="url(#p442a88cd0f)" style="fill-opacity: 0.5; stroke: #000000; stroke-linejoin: miter"/>
   </g>
   <g id="patch_50">
    <path d="M 922.263805 325.881818 
L 922.263805 325.881818 
L 922.263805 309.272727 
L 922.263805 309.272727 
z
" clip-path="url(#p442a88cd0f)" style="fill-opacity: 0.5; stroke: #000000; stroke-linejoin: miter"/>
   </g>
   <g id="patch_51">
    <path d="M 922.263805 309.272727 
L 922.924098 309.272727 
L 922.924098 292.663636 
L 922.263805 292.663636 
z
" clip-path="url(#p442a88cd0f)" style="fill-opacity: 0.5; stroke: #000000; stroke-linejoin: miter"/>
   </g>
   <g id="patch_52">
    <path d="M 922.263805 292.663636 
L 922.263805 292.663636 
L 922.263805 276.054545 
L 922.263805 276.054545 
z
" clip-path="url(#p442a88cd0f)" style="fill-opacity: 0.5; stroke: #000000; stroke-linejoin: miter"/>
   </g>
   <g id="patch_53">
    <path d="M 922.263805 276.054545 
L 924.244683 276.054545 
L 924.244683 259.445455 
L 922.263805 259.445455 
z
" clip-path="url(#p442a88cd0f)" style="fill-opacity: 0.5; stroke: #000000; stroke-linejoin: miter"/>
   </g>
   <g id="matplotlib.axis_11">
    <g id="xtick_17">
     <g id="line2d_42">
      <g>
       <use xlink:href="#m4619b01bcd" x="922.263805" y="100.8" style="stroke: #000000; stroke-width: 3"/>
      </g>
     </g>
     <g id="text_26">
      <!-- 0 -->
      <g transform="translate(916.537555 90.056562)scale(0.18 -0.18)">
       <use xlink:href="#DejaVuSans-30"/>
      </g>
     </g>
    </g>
    <g id="xtick_18">
     <g id="line2d_43">
      <g>
       <use xlink:href="#m4619b01bcd" x="988.293073" y="100.8" style="stroke: #000000; stroke-width: 3"/>
      </g>
     </g>
     <g id="text_27">
      <!-- 100 -->
      <g transform="translate(971.114323 90.056562)scale(0.18 -0.18)">
       <use xlink:href="#DejaVuSans-31"/>
       <use xlink:href="#DejaVuSans-30" x="63.623047"/>
       <use xlink:href="#DejaVuSans-30" x="127.246094"/>
      </g>
     </g>
    </g>
   </g>
   <g id="matplotlib.axis_12">
    <g id="ytick_21">
     <g id="line2d_44">
      <g>
       <use xlink:href="#mcf501d4d78" x="922.263805" y="425.536364" style="stroke: #000000; stroke-width: 3"/>
      </g>
     </g>
    </g>
    <g id="ytick_22">
     <g id="line2d_45">
      <g>
       <use xlink:href="#mcf501d4d78" x="922.263805" y="318.15" style="stroke: #000000; stroke-width: 3"/>
      </g>
     </g>
    </g>
    <g id="ytick_23">
     <g id="line2d_46">
      <g>
       <use xlink:href="#mcf501d4d78" x="922.263805" y="210.763636" style="stroke: #000000; stroke-width: 3"/>
      </g>
     </g>
    </g>
    <g id="ytick_24">
     <g id="line2d_47">
      <g>
       <use xlink:href="#mcf501d4d78" x="922.263805" y="103.377273" style="stroke: #000000; stroke-width: 3"/>
      </g>
     </g>
    </g>
   </g>
   <g id="line2d_48">
    <path d="M 955.949134 425.536364 
L 957.055014 423.867108 
L 957.417259 423.032481 
L 957.649402 422.197853 
L 957.751158 421.363225 
L 957.723748 420.528598 
L 957.569821 419.69397 
L 957.293353 418.859342 
L 956.394555 417.190087 
L 955.080557 415.520831 
L 953.416507 413.851576 
L 951.474455 412.182321 
L 948.20228 409.678438 
L 936.830446 401.332161 
L 933.903929 398.828278 
L 931.36441 396.324395 
L 929.236862 393.820512 
L 927.512089 391.316629 
L 926.155214 388.812746 
L 925.115355 386.308862 
L 924.335193 383.804979 
L 923.758985 381.301096 
L 923.225215 377.962586 
L 922.816202 373.789447 
L 922.569447 368.781681 
L 922.506604 362.939287 
L 922.676598 355.427638 
L 923.279391 337.065829 
L 923.148631 330.388808 
L 922.503805 310.357743 
L 922.613765 300.342211 
L 923.25107 259.445455 
L 923.25107 259.445455 
" clip-path="url(#p442a88cd0f)" style="fill: none; stroke: #000000; stroke-width: 3; stroke-linecap: square"/>
   </g>
   <g id="patch_54">
    <path d="M 922.263805 441 
L 922.263805 100.8 
" style="fill: none; stroke: #000000; stroke-width: 2; stroke-linejoin: miter; stroke-linecap: square"/>
   </g>
   <g id="patch_55">
    <path d="M 922.263805 100.8 
L 988.293073 100.8 
" style="fill: none; stroke: #000000; stroke-width: 2; stroke-linejoin: miter; stroke-linecap: square"/>
   </g>
  </g>
  <g id="axes_9"/>
  <g id="axes_10">
   <g id="patch_56">
    <path d="M 1021.968 429.370244 
L 1220.055805 429.370244 
L 1220.055805 112.429756 
L 1021.968 112.429756 
z
" style="fill: #ffffff"/>
   </g>
   <g id="matplotlib.axis_13">
    <g id="xtick_19">
     <g id="line2d_49">
      <g>
       <use xlink:href="#mc4438530db" x="1030.971991" y="429.370244" style="stroke: #000000; stroke-width: 3"/>
      </g>
     </g>
     <g id="text_28">
      <!-- 0 -->
      <g transform="translate(1025.245741 450.047431)scale(0.18 -0.18)">
       <use xlink:href="#DejaVuSans-30"/>
      </g>
     </g>
    </g>
    <g id="xtick_20">
     <g id="line2d_50">
      <g>
       <use xlink:href="#mc4438530db" x="1090.998599" y="429.370244" style="stroke: #000000; stroke-width: 3"/>
      </g>
     </g>
     <g id="text_29">
      <!-- 30 -->
      <g transform="translate(1079.546099 450.047431)scale(0.18 -0.18)">
       <use xlink:href="#DejaVuSans-33"/>
       <use xlink:href="#DejaVuSans-30" x="63.623047"/>
      </g>
     </g>
    </g>
    <g id="xtick_21">
     <g id="line2d_51">
      <g>
       <use xlink:href="#mc4438530db" x="1151.025206" y="429.370244" style="stroke: #000000; stroke-width: 3"/>
      </g>
     </g>
     <g id="text_30">
      <!-- 60 -->
      <g transform="translate(1139.572706 450.047431)scale(0.18 -0.18)">
       <use xlink:href="#DejaVuSans-36"/>
       <use xlink:href="#DejaVuSans-30" x="63.623047"/>
      </g>
     </g>
    </g>
    <g id="xtick_22">
     <g id="line2d_52">
      <g>
       <use xlink:href="#mc4438530db" x="1211.051814" y="429.370244" style="stroke: #000000; stroke-width: 3"/>
      </g>
     </g>
     <g id="text_31">
      <!-- 90 -->
      <g transform="translate(1199.599314 450.047431)scale(0.18 -0.18)">
       <use xlink:href="#DejaVuSans-39"/>
       <use xlink:href="#DejaVuSans-30" x="63.623047"/>
      </g>
     </g>
    </g>
   </g>
   <g id="matplotlib.axis_14">
    <g id="ytick_25">
     <g id="line2d_53">
      <g>
       <use xlink:href="#mcf501d4d78" x="1021.968" y="414.963858" style="stroke: #000000; stroke-width: 3"/>
      </g>
     </g>
    </g>
    <g id="ytick_26">
     <g id="line2d_54">
      <g>
       <use xlink:href="#mcf501d4d78" x="1021.968" y="314.919512" style="stroke: #000000; stroke-width: 3"/>
      </g>
     </g>
    </g>
    <g id="ytick_27">
     <g id="line2d_55">
      <g>
       <use xlink:href="#mcf501d4d78" x="1021.968" y="214.875166" style="stroke: #000000; stroke-width: 3"/>
      </g>
     </g>
    </g>
    <g id="ytick_28">
     <g id="line2d_56">
      <g>
       <use xlink:href="#mcf501d4d78" x="1021.968" y="114.83082" style="stroke: #000000; stroke-width: 3"/>
      </g>
     </g>
    </g>
   </g>
   <g id="line2d_57">
    <path d="M 1030.971991 388.285366 
L 1032.471322 388.285366 
L 1033.970654 382.949667 
L 1035.469985 382.949667 
L 1036.974652 388.285366 
L 1038.473983 388.285366 
L 1039.973314 382.949667 
L 1041.472646 382.949667 
L 1042.977313 388.285366 
L 1044.476644 388.285366 
L 1045.975975 388.285366 
L 1047.475306 382.949667 
L 1048.979973 388.285366 
L 1050.479305 382.949667 
L 1051.978636 382.949667 
L 1053.477967 377.613969 
L 1054.982634 366.942572 
L 1056.481965 361.606874 
L 1057.981297 356.271175 
L 1059.480628 372.278271 
L 1060.985295 377.613969 
L 1062.484626 388.285366 
L 1063.983957 382.949667 
L 1065.483289 382.949667 
L 1066.987956 388.285366 
L 1068.487287 388.285366 
L 1069.986618 388.285366 
L 1071.485949 382.949667 
L 1072.990616 388.285366 
L 1074.489948 388.285366 
L 1075.989279 388.285366 
L 1077.48861 372.278271 
L 1078.993277 382.949667 
L 1080.492608 126.836142 
L 1081.99194 222.878714 
L 1083.491271 228.214412 
L 1084.995938 190.864523 
L 1086.495269 228.214412 
L 1087.9946 286.907095 
L 1089.493932 366.942572 
L 1090.998599 398.956763 
L 1092.49793 393.621064 
L 1093.997261 393.621064 
L 1095.496592 393.621064 
L 1097.001259 398.956763 
L 1098.500591 393.621064 
L 1099.999922 393.621064 
L 1101.499253 393.621064 
L 1103.00392 398.956763 
L 1104.503251 169.521729 
L 1106.002583 270.9 
L 1107.501914 377.613969 
L 1109.006581 398.956763 
L 1110.505912 398.956763 
L 1112.005243 393.621064 
L 1113.504575 393.621064 
L 1115.009242 398.956763 
L 1116.508573 398.956763 
L 1118.007904 393.621064 
L 1119.507235 393.621064 
L 1121.011902 398.956763 
L 1122.511234 398.956763 
L 1124.010565 393.621064 
L 1125.509896 393.621064 
L 1127.014563 398.956763 
L 1128.513894 398.956763 
L 1130.013226 388.285366 
L 1131.512557 382.949667 
L 1133.017224 388.285366 
L 1134.516555 388.285366 
L 1136.015886 388.285366 
L 1137.515218 388.285366 
L 1139.019885 345.599778 
L 1140.519216 377.613969 
L 1142.018547 393.621064 
L 1143.517878 393.621064 
L 1145.022545 398.956763 
L 1146.521877 393.621064 
L 1148.021208 393.621064 
L 1149.520539 393.621064 
L 1151.025206 398.956763 
L 1152.524537 393.621064 
L 1154.023869 393.621064 
L 1155.5232 393.621064 
L 1157.027867 398.956763 
L 1158.527198 393.621064 
L 1160.026529 393.621064 
L 1161.525861 393.621064 
L 1163.030528 398.956763 
L 1164.529859 398.956763 
L 1166.02919 393.621064 
L 1167.528522 393.621064 
L 1169.033188 398.956763 
L 1170.53252 398.956763 
L 1172.031851 393.621064 
L 1173.531182 393.621064 
L 1175.035849 398.956763 
L 1176.53518 398.956763 
L 1178.034512 393.621064 
L 1179.533843 393.621064 
L 1181.03851 398.956763 
L 1182.537841 398.956763 
L 1184.037173 393.621064 
L 1185.536504 393.621064 
L 1187.041171 398.956763 
L 1188.540502 398.956763 
L 1190.039833 393.621064 
L 1191.539165 393.621064 
L 1193.043831 398.956763 
L 1194.543163 398.956763 
L 1196.042494 398.956763 
L 1197.541825 356.271175 
L 1199.046492 388.285366 
L 1200.545824 414.963858 
L 1202.045155 388.285366 
L 1203.544486 388.285366 
L 1205.049153 393.621064 
L 1206.548484 388.285366 
L 1208.047816 388.285366 
L 1209.547147 388.285366 
L 1211.051814 393.621064 
" clip-path="url(#p66aac9544f)" style="fill: none; stroke: #000000; stroke-width: 2; stroke-linecap: square"/>
   </g>
   <g id="patch_57">
    <path d="M 1021.968 429.370244 
L 1021.968 112.429756 
" style="fill: none; stroke: #000000; stroke-width: 2; stroke-linejoin: miter; stroke-linecap: square"/>
   </g>
   <g id="patch_58">
    <path d="M 1220.055805 429.370244 
L 1220.055805 112.429756 
" style="fill: none; stroke: #000000; stroke-width: 2; stroke-linejoin: miter; stroke-linecap: square"/>
   </g>
   <g id="patch_59">
    <path d="M 1021.968 429.370244 
L 1220.055805 429.370244 
" style="fill: none; stroke: #000000; stroke-width: 2; stroke-linejoin: miter; stroke-linecap: square"/>
   </g>
   <g id="patch_60">
    <path d="M 1021.968 112.429756 
L 1220.055805 112.429756 
" style="fill: none; stroke: #000000; stroke-width: 2; stroke-linejoin: miter; stroke-linecap: square"/>
   </g>
   <g id="text_32">
    <!-- 3 -->
    <g transform="translate(1013.966516 58.888683)scale(0.23 -0.23)">
     <defs>
      <path id="DejaVuSans-Bold-33" d="M 2981 2516 
Q 3453 2394 3698 2092 
Q 3944 1791 3944 1325 
Q 3944 631 3412 270 
Q 2881 -91 1863 -91 
Q 1503 -91 1142 -33 
Q 781 25 428 141 
L 428 1069 
Q 766 900 1098 814 
Q 1431 728 1753 728 
Q 2231 728 2486 893 
Q 2741 1059 2741 1369 
Q 2741 1688 2480 1852 
Q 2219 2016 1709 2016 
L 1228 2016 
L 1228 2791 
L 1734 2791 
Q 2188 2791 2409 2933 
Q 2631 3075 2631 3366 
Q 2631 3634 2415 3781 
Q 2200 3928 1806 3928 
Q 1516 3928 1219 3862 
Q 922 3797 628 3669 
L 628 4550 
Q 984 4650 1334 4700 
Q 1684 4750 2022 4750 
Q 2931 4750 3382 4451 
Q 3834 4153 3834 3553 
Q 3834 3144 3618 2883 
Q 3403 2622 2981 2516 
z
" transform="scale(0.015625)"/>
     </defs>
     <use xlink:href="#DejaVuSans-Bold-33"/>
    </g>
   </g>
  </g>
  <g id="axes_11">
   <g id="patch_61">
    <path d="M 1233.591805 441 
L 1299.621073 441 
L 1299.621073 100.8 
L 1233.591805 100.8 
z
" style="fill: #ffffff"/>
   </g>
   <g id="patch_62">
    <path d="M 1233.591805 425.536364 
L 1292.357854 425.536364 
L 1292.357854 394.609091 
L 1233.591805 394.609091 
z
" clip-path="url(#pbca452fbff)" style="fill-opacity: 0.5; stroke: #000000; stroke-linejoin: miter"/>
   </g>
   <g id="patch_63">
    <path d="M 1233.591805 394.609091 
L 1247.457951 394.609091 
L 1247.457951 363.681818 
L 1233.591805 363.681818 
z
" clip-path="url(#pbca452fbff)" style="fill-opacity: 0.5; stroke: #000000; stroke-linejoin: miter"/>
   </g>
   <g id="patch_64">
    <path d="M 1233.591805 363.681818 
L 1235.572683 363.681818 
L 1235.572683 332.754545 
L 1233.591805 332.754545 
z
" clip-path="url(#pbca452fbff)" style="fill-opacity: 0.5; stroke: #000000; stroke-linejoin: miter"/>
   </g>
   <g id="patch_65">
    <path d="M 1233.591805 332.754545 
L 1233.591805 332.754545 
L 1233.591805 301.827273 
L 1233.591805 301.827273 
z
" clip-path="url(#pbca452fbff)" style="fill-opacity: 0.5; stroke: #000000; stroke-linejoin: miter"/>
   </g>
   <g id="patch_66">
    <path d="M 1233.591805 301.827273 
L 1234.252098 301.827273 
L 1234.252098 270.9 
L 1233.591805 270.9 
z
" clip-path="url(#pbca452fbff)" style="fill-opacity: 0.5; stroke: #000000; stroke-linejoin: miter"/>
   </g>
   <g id="patch_67">
    <path d="M 1233.591805 270.9 
L 1234.252098 270.9 
L 1234.252098 239.972727 
L 1233.591805 239.972727 
z
" clip-path="url(#pbca452fbff)" style="fill-opacity: 0.5; stroke: #000000; stroke-linejoin: miter"/>
   </g>
   <g id="patch_68">
    <path d="M 1233.591805 239.972727 
L 1235.572683 239.972727 
L 1235.572683 209.045455 
L 1233.591805 209.045455 
z
" clip-path="url(#pbca452fbff)" style="fill-opacity: 0.5; stroke: #000000; stroke-linejoin: miter"/>
   </g>
   <g id="patch_69">
    <path d="M 1233.591805 209.045455 
L 1234.252098 209.045455 
L 1234.252098 178.118182 
L 1233.591805 178.118182 
z
" clip-path="url(#pbca452fbff)" style="fill-opacity: 0.5; stroke: #000000; stroke-linejoin: miter"/>
   </g>
   <g id="patch_70">
    <path d="M 1233.591805 178.118182 
L 1234.252098 178.118182 
L 1234.252098 147.190909 
L 1233.591805 147.190909 
z
" clip-path="url(#pbca452fbff)" style="fill-opacity: 0.5; stroke: #000000; stroke-linejoin: miter"/>
   </g>
   <g id="patch_71">
    <path d="M 1233.591805 147.190909 
L 1234.252098 147.190909 
L 1234.252098 116.263636 
L 1233.591805 116.263636 
z
" clip-path="url(#pbca452fbff)" style="fill-opacity: 0.5; stroke: #000000; stroke-linejoin: miter"/>
   </g>
   <g id="matplotlib.axis_15">
    <g id="xtick_23">
     <g id="line2d_58">
      <g>
       <use xlink:href="#m4619b01bcd" x="1233.591805" y="100.8" style="stroke: #000000; stroke-width: 3"/>
      </g>
     </g>
     <g id="text_33">
      <!-- 0 -->
      <g transform="translate(1227.865555 90.056562)scale(0.18 -0.18)">
       <use xlink:href="#DejaVuSans-30"/>
      </g>
     </g>
    </g>
    <g id="xtick_24">
     <g id="line2d_59">
      <g>
       <use xlink:href="#m4619b01bcd" x="1299.621073" y="100.8" style="stroke: #000000; stroke-width: 3"/>
      </g>
     </g>
     <g id="text_34">
      <!-- 100 -->
      <g transform="translate(1282.442323 90.056562)scale(0.18 -0.18)">
       <use xlink:href="#DejaVuSans-31"/>
       <use xlink:href="#DejaVuSans-30" x="63.623047"/>
       <use xlink:href="#DejaVuSans-30" x="127.246094"/>
      </g>
     </g>
    </g>
   </g>
   <g id="matplotlib.axis_16">
    <g id="ytick_29">
     <g id="line2d_60">
      <g>
       <use xlink:href="#mcf501d4d78" x="1233.591805" y="425.536364" style="stroke: #000000; stroke-width: 3"/>
      </g>
     </g>
    </g>
    <g id="ytick_30">
     <g id="line2d_61">
      <g>
       <use xlink:href="#mcf501d4d78" x="1233.591805" y="318.15" style="stroke: #000000; stroke-width: 3"/>
      </g>
     </g>
    </g>
    <g id="ytick_31">
     <g id="line2d_62">
      <g>
       <use xlink:href="#mcf501d4d78" x="1233.591805" y="210.763636" style="stroke: #000000; stroke-width: 3"/>
      </g>
     </g>
    </g>
    <g id="ytick_32">
     <g id="line2d_63">
      <g>
       <use xlink:href="#mcf501d4d78" x="1233.591805" y="103.377273" style="stroke: #000000; stroke-width: 3"/>
      </g>
     </g>
    </g>
   </g>
   <g id="line2d_64">
    <path d="M 1253.840757 425.536364 
L 1261.784624 419.319826 
L 1267.56099 414.657423 
L 1270.944545 411.549155 
L 1272.419494 409.995021 
L 1273.718922 408.440886 
L 1274.822512 406.886752 
L 1275.712949 405.332618 
L 1276.3764 403.778483 
L 1276.802889 402.224349 
L 1276.986571 400.670215 
L 1276.925873 399.11608 
L 1276.623512 397.561946 
L 1276.086387 396.007812 
L 1275.325349 394.453677 
L 1274.354851 392.899543 
L 1273.192512 391.345409 
L 1271.858595 389.791275 
L 1268.7668 386.683006 
L 1265.271826 383.574737 
L 1252.534512 372.695797 
L 1249.342889 369.587529 
L 1246.505542 366.47926 
L 1244.048143 363.370991 
L 1241.96774 360.262723 
L 1240.240537 357.154454 
L 1238.829723 354.046185 
L 1237.692353 350.937917 
L 1236.784719 347.829648 
L 1236.066032 344.72138 
L 1235.265619 340.058977 
L 1234.715026 335.396574 
L 1234.253742 329.180037 
L 1234.009713 322.963499 
L 1233.911953 315.192828 
L 1234.013855 304.313888 
L 1234.384499 277.893604 
L 1234.459816 245.256784 
L 1234.94386 221.944769 
L 1234.819639 211.065829 
L 1234.421466 187.753815 
L 1234.043658 116.263636 
L 1234.043658 116.263636 
" clip-path="url(#pbca452fbff)" style="fill: none; stroke: #000000; stroke-width: 3; stroke-linecap: square"/>
   </g>
   <g id="patch_72">
    <path d="M 1233.591805 441 
L 1233.591805 100.8 
" style="fill: none; stroke: #000000; stroke-width: 2; stroke-linejoin: miter; stroke-linecap: square"/>
   </g>
   <g id="patch_73">
    <path d="M 1233.591805 100.8 
L 1299.621073 100.8 
" style="fill: none; stroke: #000000; stroke-width: 2; stroke-linejoin: miter; stroke-linecap: square"/>
   </g>
  </g>
  <g id="axes_12"/>
  <g id="text_35">
   <!-- Normalized latency (ms) -->
   <g transform="translate(43.028719 380.682422)rotate(-90)scale(0.21 -0.21)">
    <defs>
     <path id="DejaVuSans-4e" d="M 628 4666 
L 1478 4666 
L 3547 763 
L 3547 4666 
L 4159 4666 
L 4159 0 
L 3309 0 
L 1241 3903 
L 1241 0 
L 628 0 
L 628 4666 
z
" transform="scale(0.015625)"/>
     <path id="DejaVuSans-6d" d="M 3328 2828 
Q 3544 3216 3844 3400 
Q 4144 3584 4550 3584 
Q 5097 3584 5394 3201 
Q 5691 2819 5691 2113 
L 5691 0 
L 5113 0 
L 5113 2094 
Q 5113 2597 4934 2840 
Q 4756 3084 4391 3084 
Q 3944 3084 3684 2787 
Q 3425 2491 3425 1978 
L 3425 0 
L 2847 0 
L 2847 2094 
Q 2847 2600 2669 2842 
Q 2491 3084 2119 3084 
Q 1678 3084 1418 2786 
Q 1159 2488 1159 1978 
L 1159 0 
L 581 0 
L 581 3500 
L 1159 3500 
L 1159 2956 
Q 1356 3278 1631 3431 
Q 1906 3584 2284 3584 
Q 2666 3584 2933 3390 
Q 3200 3197 3328 2828 
z
" transform="scale(0.015625)"/>
     <path id="DejaVuSans-7a" d="M 353 3500 
L 3084 3500 
L 3084 2975 
L 922 459 
L 3084 459 
L 3084 0 
L 275 0 
L 275 525 
L 2438 3041 
L 353 3041 
L 353 3500 
z
" transform="scale(0.015625)"/>
     <path id="DejaVuSans-63" d="M 3122 3366 
L 3122 2828 
Q 2878 2963 2633 3030 
Q 2388 3097 2138 3097 
Q 1578 3097 1268 2742 
Q 959 2388 959 1747 
Q 959 1106 1268 751 
Q 1578 397 2138 397 
Q 2388 397 2633 464 
Q 2878 531 3122 666 
L 3122 134 
Q 2881 22 2623 -34 
Q 2366 -91 2075 -91 
Q 1284 -91 818 406 
Q 353 903 353 1747 
Q 353 2603 823 3093 
Q 1294 3584 2113 3584 
Q 2378 3584 2631 3529 
Q 2884 3475 3122 3366 
z
" transform="scale(0.015625)"/>
    </defs>
    <use xlink:href="#DejaVuSans-4e"/>
    <use xlink:href="#DejaVuSans-6f" x="74.804688"/>
    <use xlink:href="#DejaVuSans-72" x="135.986328"/>
    <use xlink:href="#DejaVuSans-6d" x="175.349609"/>
    <use xlink:href="#DejaVuSans-61" x="272.761719"/>
    <use xlink:href="#DejaVuSans-6c" x="334.041016"/>
    <use xlink:href="#DejaVuSans-69" x="361.824219"/>
    <use xlink:href="#DejaVuSans-7a" x="389.607422"/>
    <use xlink:href="#DejaVuSans-65" x="442.097656"/>
    <use xlink:href="#DejaVuSans-64" x="503.621094"/>
    <use xlink:href="#DejaVuSans-20" x="567.097656"/>
    <use xlink:href="#DejaVuSans-6c" x="598.884766"/>
    <use xlink:href="#DejaVuSans-61" x="626.667969"/>
    <use xlink:href="#DejaVuSans-74" x="687.947266"/>
    <use xlink:href="#DejaVuSans-65" x="727.15625"/>
    <use xlink:href="#DejaVuSans-6e" x="788.679688"/>
    <use xlink:href="#DejaVuSans-63" x="852.058594"/>
    <use xlink:href="#DejaVuSans-79" x="907.039062"/>
    <use xlink:href="#DejaVuSans-20" x="966.21875"/>
    <use xlink:href="#DejaVuSans-28" x="998.005859"/>
    <use xlink:href="#DejaVuSans-6d" x="1037.019531"/>
    <use xlink:href="#DejaVuSans-73" x="1134.431641"/>
    <use xlink:href="#DejaVuSans-29" x="1186.53125"/>
   </g>
  </g>
 </g>
 <defs>
  <clipPath id="p511e3ded91">
   <rect x="87.984" y="112.429756" width="198.087805" height="316.940488"/>
  </clipPath>
  <clipPath id="pb4af2c6b30">
   <rect x="299.607805" y="100.8" width="66.029268" height="340.2"/>
  </clipPath>
  <clipPath id="p355a55c728">
   <rect x="399.312" y="112.429756" width="198.087805" height="316.940488"/>
  </clipPath>
  <clipPath id="p58f69b4f3a">
   <rect x="610.935805" y="100.8" width="66.029268" height="340.2"/>
  </clipPath>
  <clipPath id="p003488af00">
   <rect x="710.64" y="112.429756" width="198.087805" height="316.940488"/>
  </clipPath>
  <clipPath id="p442a88cd0f">
   <rect x="922.263805" y="100.8" width="66.029268" height="340.2"/>
  </clipPath>
  <clipPath id="p66aac9544f">
   <rect x="1021.968" y="112.429756" width="198.087805" height="316.940488"/>
  </clipPath>
  <clipPath id="pbca452fbff">
   <rect x="1233.591805" y="100.8" width="66.029268" height="340.2"/>
  </clipPath>
 </defs>
</svg>
