<?xml version="1.0" encoding="utf-8" standalone="no"?>
<!DOCTYPE svg PUBLIC "-//W3C//DTD SVG 1.1//EN"
  "http://www.w3.org/Graphics/SVG/1.1/DTD/svg11.dtd">
<svg xmlns:xlink="http://www.w3.org/1999/xlink" width="1353.6pt" height="288pt" viewBox="0 0 1353.6 288" xmlns="http://www.w3.org/2000/svg" version="1.1">
 <metadata>
  <rdf:RDF xmlns:dc="http://purl.org/dc/elements/1.1/" xmlns:cc="http://creativecommons.org/ns#" xmlns:rdf="http://www.w3.org/1999/02/22-rdf-syntax-ns#">
   <cc:Work>
    <dc:type rdf:resource="http://purl.org/dc/dcmitype/StillImage"/>
    <dc:date>2023-06-30T10:13:18.338302</dc:date>
    <dc:format>image/svg+xml</dc:format>
    <dc:creator>
     <cc:Agent>
      <dc:title>Matplotlib v3.5.1, https://matplotlib.org/</dc:title>
     </cc:Agent>
    </dc:creator>
   </cc:Work>
  </rdf:RDF>
 </metadata>
 <defs>
  <style type="text/css">*{stroke-linejoin: round; stroke-linecap: butt}</style>
 </defs>
 <g id="figure_1">
  <g id="patch_1">
   <path d="M 0 288 
L 1353.6 288 
L 1353.6 0 
L 0 0 
z
" style="fill: #ffffff"/>
  </g>
  <g id="axes_1">
   <g id="patch_2">
    <path d="M 67.68 237.6 
L 634.902857 237.6 
L 634.902857 28.8 
L 67.68 28.8 
z
" style="fill: #ffffff"/>
   </g>
   <g id="LineCollection_1">
    <path d="M -1 42.81039 
L 1354.6 42.81039 
" clip-path="url(#p96c36d4b76)" style="fill: none; stroke: #000000; stroke-opacity: 0.2; stroke-width: 2"/>
   </g>
   <g id="LineCollection_2">
    <path d="M 209.365117 38.290909 
L 209.365117 47.32987 
" clip-path="url(#p96c36d4b76)" style="fill: none; stroke: #000000; stroke-width: 3"/>
   </g>
   <g id="LineCollection_3">
    <path d="M 336.058268 38.290909 
L 336.058268 47.32987 
" clip-path="url(#p96c36d4b76)" style="fill: none; stroke: #000000; stroke-width: 3"/>
   </g>
   <g id="LineCollection_4">
    <path d="M -1 88.005195 
L 1354.6 88.005195 
" clip-path="url(#p96c36d4b76)" style="fill: none; stroke: #000000; stroke-opacity: 0.2; stroke-width: 2"/>
   </g>
   <g id="LineCollection_5">
    <path d="M 193.412208 83.485714 
L 193.412208 92.524675 
" clip-path="url(#p96c36d4b76)" style="fill: none; stroke: #000000; stroke-width: 3"/>
   </g>
   <g id="LineCollection_6">
    <path d="M 271.50065 83.485714 
L 271.50065 92.524675 
" clip-path="url(#p96c36d4b76)" style="fill: none; stroke: #000000; stroke-width: 3"/>
   </g>
   <g id="LineCollection_7">
    <path d="M -1 133.2 
L 1354.6 133.2 
" clip-path="url(#p96c36d4b76)" style="fill: none; stroke: #000000; stroke-opacity: 0.2; stroke-width: 2"/>
   </g>
   <g id="LineCollection_8">
    <path d="M 304.33638 128.680519 
L 304.33638 137.719481 
" clip-path="url(#p96c36d4b76)" style="fill: none; stroke: #000000; stroke-width: 3"/>
   </g>
   <g id="LineCollection_9">
    <path d="M 371.11425 128.680519 
L 371.11425 137.719481 
" clip-path="url(#p96c36d4b76)" style="fill: none; stroke: #000000; stroke-width: 3"/>
   </g>
   <g id="LineCollection_10">
    <path d="M -1 178.394805 
L 1354.6 178.394805 
" clip-path="url(#p96c36d4b76)" style="fill: none; stroke: #000000; stroke-opacity: 0.2; stroke-width: 2"/>
   </g>
   <g id="LineCollection_11">
    <path d="M 222.796641 173.875325 
L 222.796641 182.914286 
" clip-path="url(#p96c36d4b76)" style="fill: none; stroke: #000000; stroke-width: 3"/>
   </g>
   <g id="LineCollection_12">
    <path d="M 343.604035 173.875325 
L 343.604035 182.914286 
" clip-path="url(#p96c36d4b76)" style="fill: none; stroke: #000000; stroke-width: 3"/>
   </g>
   <g id="LineCollection_13">
    <path d="M -1 223.58961 
L 1354.6 223.58961 
" clip-path="url(#p96c36d4b76)" style="fill: none; stroke: #000000; stroke-opacity: 0.2; stroke-width: 2"/>
   </g>
   <g id="LineCollection_14">
    <path d="M 131.224195 219.07013 
L 131.224195 228.109091 
" clip-path="url(#p96c36d4b76)" style="fill: none; stroke: #000000; stroke-width: 3"/>
   </g>
   <g id="LineCollection_15">
    <path d="M 208.984303 219.07013 
L 208.984303 228.109091 
" clip-path="url(#p96c36d4b76)" style="fill: none; stroke: #000000; stroke-width: 3"/>
   </g>
   <g id="PathCollection_1"/>
   <g id="PathCollection_2"/>
   <g id="PathCollection_3"/>
   <g id="PathCollection_4"/>
   <g id="PathCollection_5"/>
   <g id="matplotlib.axis_1">
    <g id="xtick_1">
     <g id="line2d_1">
      <defs>
       <path id="m99931497ea" d="M 0 0 
L 0 3.5 
" style="stroke: #000000; stroke-width: 3"/>
      </defs>
      <g>
       <use xlink:href="#m99931497ea" x="124.402286" y="237.6" style="stroke: #000000; stroke-width: 3"/>
      </g>
     </g>
     <g id="text_1">
      <!-- −0.2 -->
      <g transform="translate(102.547754 258.277188)scale(0.18 -0.18)">
       <defs>
        <path id="DejaVuSans-2212" d="M 678 2272 
L 4684 2272 
L 4684 1741 
L 678 1741 
L 678 2272 
z
" transform="scale(0.015625)"/>
        <path id="DejaVuSans-30" d="M 2034 4250 
Q 1547 4250 1301 3770 
Q 1056 3291 1056 2328 
Q 1056 1369 1301 889 
Q 1547 409 2034 409 
Q 2525 409 2770 889 
Q 3016 1369 3016 2328 
Q 3016 3291 2770 3770 
Q 2525 4250 2034 4250 
z
M 2034 4750 
Q 2819 4750 3233 4129 
Q 3647 3509 3647 2328 
Q 3647 1150 3233 529 
Q 2819 -91 2034 -91 
Q 1250 -91 836 529 
Q 422 1150 422 2328 
Q 422 3509 836 4129 
Q 1250 4750 2034 4750 
z
" transform="scale(0.015625)"/>
        <path id="DejaVuSans-2e" d="M 684 794 
L 1344 794 
L 1344 0 
L 684 0 
L 684 794 
z
" transform="scale(0.015625)"/>
        <path id="DejaVuSans-32" d="M 1228 531 
L 3431 531 
L 3431 0 
L 469 0 
L 469 531 
Q 828 903 1448 1529 
Q 2069 2156 2228 2338 
Q 2531 2678 2651 2914 
Q 2772 3150 2772 3378 
Q 2772 3750 2511 3984 
Q 2250 4219 1831 4219 
Q 1534 4219 1204 4116 
Q 875 4013 500 3803 
L 500 4441 
Q 881 4594 1212 4672 
Q 1544 4750 1819 4750 
Q 2544 4750 2975 4387 
Q 3406 4025 3406 3419 
Q 3406 3131 3298 2873 
Q 3191 2616 2906 2266 
Q 2828 2175 2409 1742 
Q 1991 1309 1228 531 
z
" transform="scale(0.015625)"/>
       </defs>
       <use xlink:href="#DejaVuSans-2212"/>
       <use xlink:href="#DejaVuSans-30" x="83.789062"/>
       <use xlink:href="#DejaVuSans-2e" x="147.412109"/>
       <use xlink:href="#DejaVuSans-32" x="179.199219"/>
      </g>
     </g>
    </g>
    <g id="xtick_2">
     <g id="line2d_2">
      <g>
       <use xlink:href="#m99931497ea" x="237.846857" y="237.6" style="stroke: #000000; stroke-width: 3"/>
      </g>
     </g>
     <g id="text_2">
      <!-- −0.1 -->
      <g transform="translate(215.992326 258.277188)scale(0.18 -0.18)">
       <defs>
        <path id="DejaVuSans-31" d="M 794 531 
L 1825 531 
L 1825 4091 
L 703 3866 
L 703 4441 
L 1819 4666 
L 2450 4666 
L 2450 531 
L 3481 531 
L 3481 0 
L 794 0 
L 794 531 
z
" transform="scale(0.015625)"/>
       </defs>
       <use xlink:href="#DejaVuSans-2212"/>
       <use xlink:href="#DejaVuSans-30" x="83.789062"/>
       <use xlink:href="#DejaVuSans-2e" x="147.412109"/>
       <use xlink:href="#DejaVuSans-31" x="179.199219"/>
      </g>
     </g>
    </g>
    <g id="xtick_3">
     <g id="line2d_3">
      <g>
       <use xlink:href="#m99931497ea" x="351.291429" y="237.6" style="stroke: #000000; stroke-width: 3"/>
      </g>
     </g>
     <g id="text_3">
      <!-- 0.0 -->
      <g transform="translate(336.978616 258.277188)scale(0.18 -0.18)">
       <use xlink:href="#DejaVuSans-30"/>
       <use xlink:href="#DejaVuSans-2e" x="63.623047"/>
       <use xlink:href="#DejaVuSans-30" x="95.410156"/>
      </g>
     </g>
    </g>
    <g id="xtick_4">
     <g id="line2d_4">
      <g>
       <use xlink:href="#m99931497ea" x="464.736" y="237.6" style="stroke: #000000; stroke-width: 3"/>
      </g>
     </g>
     <g id="text_4">
      <!-- 0.1 -->
      <g transform="translate(450.423188 258.277188)scale(0.18 -0.18)">
       <use xlink:href="#DejaVuSans-30"/>
       <use xlink:href="#DejaVuSans-2e" x="63.623047"/>
       <use xlink:href="#DejaVuSans-31" x="95.410156"/>
      </g>
     </g>
    </g>
    <g id="xtick_5">
     <g id="line2d_5">
      <g>
       <use xlink:href="#m99931497ea" x="578.180571" y="237.6" style="stroke: #000000; stroke-width: 3"/>
      </g>
     </g>
     <g id="text_5">
      <!-- 0.2 -->
      <g transform="translate(563.867759 258.277188)scale(0.18 -0.18)">
       <use xlink:href="#DejaVuSans-30"/>
       <use xlink:href="#DejaVuSans-2e" x="63.623047"/>
       <use xlink:href="#DejaVuSans-32" x="95.410156"/>
      </g>
     </g>
    </g>
   </g>
   <g id="matplotlib.axis_2">
    <g id="ytick_1">
     <g id="line2d_6">
      <defs>
       <path id="mc90263b78a" d="M 0 0 
L -3.5 0 
" style="stroke: #000000; stroke-width: 3"/>
      </defs>
      <g>
       <use xlink:href="#mc90263b78a" x="67.68" y="42.81039" style="stroke: #000000; stroke-width: 3"/>
      </g>
     </g>
     <g id="text_6">
      <!-- 1 -->
      <g transform="translate(49.2275 49.648983)scale(0.18 -0.18)">
       <use xlink:href="#DejaVuSans-31"/>
      </g>
     </g>
    </g>
    <g id="ytick_2">
     <g id="line2d_7">
      <g>
       <use xlink:href="#mc90263b78a" x="67.68" y="88.005195" style="stroke: #000000; stroke-width: 3"/>
      </g>
     </g>
     <g id="text_7">
      <!-- 2 -->
      <g transform="translate(49.2275 94.843789)scale(0.18 -0.18)">
       <use xlink:href="#DejaVuSans-32"/>
      </g>
     </g>
    </g>
    <g id="ytick_3">
     <g id="line2d_8">
      <g>
       <use xlink:href="#mc90263b78a" x="67.68" y="133.2" style="stroke: #000000; stroke-width: 3"/>
      </g>
     </g>
     <g id="text_8">
      <!-- 3 -->
      <g transform="translate(49.2275 140.038594)scale(0.18 -0.18)">
       <defs>
        <path id="DejaVuSans-33" d="M 2597 2516 
Q 3050 2419 3304 2112 
Q 3559 1806 3559 1356 
Q 3559 666 3084 287 
Q 2609 -91 1734 -91 
Q 1441 -91 1130 -33 
Q 819 25 488 141 
L 488 750 
Q 750 597 1062 519 
Q 1375 441 1716 441 
Q 2309 441 2620 675 
Q 2931 909 2931 1356 
Q 2931 1769 2642 2001 
Q 2353 2234 1838 2234 
L 1294 2234 
L 1294 2753 
L 1863 2753 
Q 2328 2753 2575 2939 
Q 2822 3125 2822 3475 
Q 2822 3834 2567 4026 
Q 2313 4219 1838 4219 
Q 1578 4219 1281 4162 
Q 984 4106 628 3988 
L 628 4550 
Q 988 4650 1302 4700 
Q 1616 4750 1894 4750 
Q 2613 4750 3031 4423 
Q 3450 4097 3450 3541 
Q 3450 3153 3228 2886 
Q 3006 2619 2597 2516 
z
" transform="scale(0.015625)"/>
       </defs>
       <use xlink:href="#DejaVuSans-33"/>
      </g>
     </g>
    </g>
    <g id="ytick_4">
     <g id="line2d_9">
      <g>
       <use xlink:href="#mc90263b78a" x="67.68" y="178.394805" style="stroke: #000000; stroke-width: 3"/>
      </g>
     </g>
     <g id="text_9">
      <!-- 4 -->
      <g transform="translate(49.2275 185.233399)scale(0.18 -0.18)">
       <defs>
        <path id="DejaVuSans-34" d="M 2419 4116 
L 825 1625 
L 2419 1625 
L 2419 4116 
z
M 2253 4666 
L 3047 4666 
L 3047 1625 
L 3713 1625 
L 3713 1100 
L 3047 1100 
L 3047 0 
L 2419 0 
L 2419 1100 
L 313 1100 
L 313 1709 
L 2253 4666 
z
" transform="scale(0.015625)"/>
       </defs>
       <use xlink:href="#DejaVuSans-34"/>
      </g>
     </g>
    </g>
    <g id="ytick_5">
     <g id="line2d_10">
      <g>
       <use xlink:href="#mc90263b78a" x="67.68" y="223.58961" style="stroke: #000000; stroke-width: 3"/>
      </g>
     </g>
     <g id="text_10">
      <!-- 5 -->
      <g transform="translate(49.2275 230.428204)scale(0.18 -0.18)">
       <defs>
        <path id="DejaVuSans-35" d="M 691 4666 
L 3169 4666 
L 3169 4134 
L 1269 4134 
L 1269 2991 
Q 1406 3038 1543 3061 
Q 1681 3084 1819 3084 
Q 2600 3084 3056 2656 
Q 3513 2228 3513 1497 
Q 3513 744 3044 326 
Q 2575 -91 1722 -91 
Q 1428 -91 1123 -41 
Q 819 9 494 109 
L 494 744 
Q 775 591 1075 516 
Q 1375 441 1709 441 
Q 2250 441 2565 725 
Q 2881 1009 2881 1497 
Q 2881 1984 2565 2268 
Q 2250 2553 1709 2553 
Q 1456 2553 1204 2497 
Q 953 2441 691 2322 
L 691 4666 
z
" transform="scale(0.015625)"/>
       </defs>
       <use xlink:href="#DejaVuSans-35"/>
      </g>
     </g>
    </g>
   </g>
   <g id="line2d_11">
    <path d="M 351.291429 237.6 
L 351.291429 28.8 
" clip-path="url(#p96c36d4b76)" style="fill: none; stroke-dasharray: 7.4,3.2; stroke-dashoffset: 0; stroke: #000000; stroke-opacity: 0.8; stroke-width: 2"/>
   </g>
   <g id="patch_3">
    <path d="M 67.68 237.6 
L 67.68 28.8 
" style="fill: none; stroke: #000000; stroke-width: 2; stroke-linejoin: miter; stroke-linecap: square"/>
   </g>
   <g id="patch_4">
    <path d="M 634.902857 237.6 
L 634.902857 28.8 
" style="fill: none; stroke: #000000; stroke-width: 2; stroke-linejoin: miter; stroke-linecap: square"/>
   </g>
   <g id="patch_5">
    <path d="M 67.68 237.6 
L 634.902857 237.6 
" style="fill: none; stroke: #000000; stroke-width: 2; stroke-linejoin: miter; stroke-linecap: square"/>
   </g>
   <g id="patch_6">
    <path d="M 67.68 28.8 
L 634.902857 28.8 
" style="fill: none; stroke: #000000; stroke-width: 2; stroke-linejoin: miter; stroke-linecap: square"/>
   </g>
   <g id="text_11">
    <!-- Self coupling ($\alpha_{i, i}$) -->
    <g transform="translate(254.199429 22.8)scale(0.216 -0.216)">
     <defs>
      <path id="DejaVuSans-53" d="M 3425 4513 
L 3425 3897 
Q 3066 4069 2747 4153 
Q 2428 4238 2131 4238 
Q 1616 4238 1336 4038 
Q 1056 3838 1056 3469 
Q 1056 3159 1242 3001 
Q 1428 2844 1947 2747 
L 2328 2669 
Q 3034 2534 3370 2195 
Q 3706 1856 3706 1288 
Q 3706 609 3251 259 
Q 2797 -91 1919 -91 
Q 1588 -91 1214 -16 
Q 841 59 441 206 
L 441 856 
Q 825 641 1194 531 
Q 1563 422 1919 422 
Q 2459 422 2753 634 
Q 3047 847 3047 1241 
Q 3047 1584 2836 1778 
Q 2625 1972 2144 2069 
L 1759 2144 
Q 1053 2284 737 2584 
Q 422 2884 422 3419 
Q 422 4038 858 4394 
Q 1294 4750 2059 4750 
Q 2388 4750 2728 4690 
Q 3069 4631 3425 4513 
z
" transform="scale(0.015625)"/>
      <path id="DejaVuSans-65" d="M 3597 1894 
L 3597 1613 
L 953 1613 
Q 991 1019 1311 708 
Q 1631 397 2203 397 
Q 2534 397 2845 478 
Q 3156 559 3463 722 
L 3463 178 
Q 3153 47 2828 -22 
Q 2503 -91 2169 -91 
Q 1331 -91 842 396 
Q 353 884 353 1716 
Q 353 2575 817 3079 
Q 1281 3584 2069 3584 
Q 2775 3584 3186 3129 
Q 3597 2675 3597 1894 
z
M 3022 2063 
Q 3016 2534 2758 2815 
Q 2500 3097 2075 3097 
Q 1594 3097 1305 2825 
Q 1016 2553 972 2059 
L 3022 2063 
z
" transform="scale(0.015625)"/>
      <path id="DejaVuSans-6c" d="M 603 4863 
L 1178 4863 
L 1178 0 
L 603 0 
L 603 4863 
z
" transform="scale(0.015625)"/>
      <path id="DejaVuSans-66" d="M 2375 4863 
L 2375 4384 
L 1825 4384 
Q 1516 4384 1395 4259 
Q 1275 4134 1275 3809 
L 1275 3500 
L 2222 3500 
L 2222 3053 
L 1275 3053 
L 1275 0 
L 697 0 
L 697 3053 
L 147 3053 
L 147 3500 
L 697 3500 
L 697 3744 
Q 697 4328 969 4595 
Q 1241 4863 1831 4863 
L 2375 4863 
z
" transform="scale(0.015625)"/>
      <path id="DejaVuSans-20" transform="scale(0.015625)"/>
      <path id="DejaVuSans-63" d="M 3122 3366 
L 3122 2828 
Q 2878 2963 2633 3030 
Q 2388 3097 2138 3097 
Q 1578 3097 1268 2742 
Q 959 2388 959 1747 
Q 959 1106 1268 751 
Q 1578 397 2138 397 
Q 2388 397 2633 464 
Q 2878 531 3122 666 
L 3122 134 
Q 2881 22 2623 -34 
Q 2366 -91 2075 -91 
Q 1284 -91 818 406 
Q 353 903 353 1747 
Q 353 2603 823 3093 
Q 1294 3584 2113 3584 
Q 2378 3584 2631 3529 
Q 2884 3475 3122 3366 
z
" transform="scale(0.015625)"/>
      <path id="DejaVuSans-6f" d="M 1959 3097 
Q 1497 3097 1228 2736 
Q 959 2375 959 1747 
Q 959 1119 1226 758 
Q 1494 397 1959 397 
Q 2419 397 2687 759 
Q 2956 1122 2956 1747 
Q 2956 2369 2687 2733 
Q 2419 3097 1959 3097 
z
M 1959 3584 
Q 2709 3584 3137 3096 
Q 3566 2609 3566 1747 
Q 3566 888 3137 398 
Q 2709 -91 1959 -91 
Q 1206 -91 779 398 
Q 353 888 353 1747 
Q 353 2609 779 3096 
Q 1206 3584 1959 3584 
z
" transform="scale(0.015625)"/>
      <path id="DejaVuSans-75" d="M 544 1381 
L 544 3500 
L 1119 3500 
L 1119 1403 
Q 1119 906 1312 657 
Q 1506 409 1894 409 
Q 2359 409 2629 706 
Q 2900 1003 2900 1516 
L 2900 3500 
L 3475 3500 
L 3475 0 
L 2900 0 
L 2900 538 
Q 2691 219 2414 64 
Q 2138 -91 1772 -91 
Q 1169 -91 856 284 
Q 544 659 544 1381 
z
M 1991 3584 
L 1991 3584 
z
" transform="scale(0.015625)"/>
      <path id="DejaVuSans-70" d="M 1159 525 
L 1159 -1331 
L 581 -1331 
L 581 3500 
L 1159 3500 
L 1159 2969 
Q 1341 3281 1617 3432 
Q 1894 3584 2278 3584 
Q 2916 3584 3314 3078 
Q 3713 2572 3713 1747 
Q 3713 922 3314 415 
Q 2916 -91 2278 -91 
Q 1894 -91 1617 61 
Q 1341 213 1159 525 
z
M 3116 1747 
Q 3116 2381 2855 2742 
Q 2594 3103 2138 3103 
Q 1681 3103 1420 2742 
Q 1159 2381 1159 1747 
Q 1159 1113 1420 752 
Q 1681 391 2138 391 
Q 2594 391 2855 752 
Q 3116 1113 3116 1747 
z
" transform="scale(0.015625)"/>
      <path id="DejaVuSans-69" d="M 603 3500 
L 1178 3500 
L 1178 0 
L 603 0 
L 603 3500 
z
M 603 4863 
L 1178 4863 
L 1178 4134 
L 603 4134 
L 603 4863 
z
" transform="scale(0.015625)"/>
      <path id="DejaVuSans-6e" d="M 3513 2113 
L 3513 0 
L 2938 0 
L 2938 2094 
Q 2938 2591 2744 2837 
Q 2550 3084 2163 3084 
Q 1697 3084 1428 2787 
Q 1159 2491 1159 1978 
L 1159 0 
L 581 0 
L 581 3500 
L 1159 3500 
L 1159 2956 
Q 1366 3272 1645 3428 
Q 1925 3584 2291 3584 
Q 2894 3584 3203 3211 
Q 3513 2838 3513 2113 
z
" transform="scale(0.015625)"/>
      <path id="DejaVuSans-67" d="M 2906 1791 
Q 2906 2416 2648 2759 
Q 2391 3103 1925 3103 
Q 1463 3103 1205 2759 
Q 947 2416 947 1791 
Q 947 1169 1205 825 
Q 1463 481 1925 481 
Q 2391 481 2648 825 
Q 2906 1169 2906 1791 
z
M 3481 434 
Q 3481 -459 3084 -895 
Q 2688 -1331 1869 -1331 
Q 1566 -1331 1297 -1286 
Q 1028 -1241 775 -1147 
L 775 -588 
Q 1028 -725 1275 -790 
Q 1522 -856 1778 -856 
Q 2344 -856 2625 -561 
Q 2906 -266 2906 331 
L 2906 616 
Q 2728 306 2450 153 
Q 2172 0 1784 0 
Q 1141 0 747 490 
Q 353 981 353 1791 
Q 353 2603 747 3093 
Q 1141 3584 1784 3584 
Q 2172 3584 2450 3431 
Q 2728 3278 2906 2969 
L 2906 3500 
L 3481 3500 
L 3481 434 
z
" transform="scale(0.015625)"/>
      <path id="DejaVuSans-28" d="M 1984 4856 
Q 1566 4138 1362 3434 
Q 1159 2731 1159 2009 
Q 1159 1288 1364 580 
Q 1569 -128 1984 -844 
L 1484 -844 
Q 1016 -109 783 600 
Q 550 1309 550 2009 
Q 550 2706 781 3412 
Q 1013 4119 1484 4856 
L 1984 4856 
z
" transform="scale(0.015625)"/>
      <path id="DejaVuSans-Oblique-3b1" d="M 2619 1628 
L 2622 2350 
Q 2625 3088 2069 3091 
Q 1653 3094 1394 2747 
Q 1069 2319 959 1747 
Q 825 1059 994 731 
Q 1169 397 1547 397 
Q 1966 397 2319 1063 
L 2619 1628 
z
M 2166 3578 
Q 3141 3594 3128 2584 
Q 3128 2584 3616 3500 
L 4128 3500 
L 3119 1603 
L 3109 919 
Q 3109 766 3194 638 
Q 3291 488 3391 488 
L 3669 488 
L 3575 0 
L 3228 0 
Q 2934 0 2722 263 
Q 2622 394 2619 669 
Q 2416 334 2066 50 
Q 1900 -81 1453 -78 
Q 722 -72 456 397 
Q 184 884 353 1747 
Q 534 2675 1009 3097 
Q 1544 3569 2166 3578 
z
" transform="scale(0.015625)"/>
      <path id="DejaVuSans-Oblique-69" d="M 1172 4863 
L 1747 4863 
L 1606 4134 
L 1031 4134 
L 1172 4863 
z
M 909 3500 
L 1484 3500 
L 800 0 
L 225 0 
L 909 3500 
z
" transform="scale(0.015625)"/>
      <path id="DejaVuSans-2c" d="M 750 794 
L 1409 794 
L 1409 256 
L 897 -744 
L 494 -744 
L 750 256 
L 750 794 
z
" transform="scale(0.015625)"/>
      <path id="DejaVuSans-29" d="M 513 4856 
L 1013 4856 
Q 1481 4119 1714 3412 
Q 1947 2706 1947 2009 
Q 1947 1309 1714 600 
Q 1481 -109 1013 -844 
L 513 -844 
Q 928 -128 1133 580 
Q 1338 1288 1338 2009 
Q 1338 2731 1133 3434 
Q 928 4138 513 4856 
z
" transform="scale(0.015625)"/>
     </defs>
     <use xlink:href="#DejaVuSans-53" transform="translate(0 0.015625)"/>
     <use xlink:href="#DejaVuSans-65" transform="translate(63.476562 0.015625)"/>
     <use xlink:href="#DejaVuSans-6c" transform="translate(125 0.015625)"/>
     <use xlink:href="#DejaVuSans-66" transform="translate(152.783203 0.015625)"/>
     <use xlink:href="#DejaVuSans-20" transform="translate(187.988281 0.015625)"/>
     <use xlink:href="#DejaVuSans-63" transform="translate(219.775391 0.015625)"/>
     <use xlink:href="#DejaVuSans-6f" transform="translate(274.755859 0.015625)"/>
     <use xlink:href="#DejaVuSans-75" transform="translate(335.9375 0.015625)"/>
     <use xlink:href="#DejaVuSans-70" transform="translate(399.316406 0.015625)"/>
     <use xlink:href="#DejaVuSans-6c" transform="translate(462.792969 0.015625)"/>
     <use xlink:href="#DejaVuSans-69" transform="translate(490.576172 0.015625)"/>
     <use xlink:href="#DejaVuSans-6e" transform="translate(518.359375 0.015625)"/>
     <use xlink:href="#DejaVuSans-67" transform="translate(581.738281 0.015625)"/>
     <use xlink:href="#DejaVuSans-20" transform="translate(645.214844 0.015625)"/>
     <use xlink:href="#DejaVuSans-28" transform="translate(677.001953 0.015625)"/>
     <use xlink:href="#DejaVuSans-Oblique-3b1" transform="translate(716.015625 0.015625)"/>
     <use xlink:href="#DejaVuSans-Oblique-69" transform="translate(781.933594 -16.390625)scale(0.7)"/>
     <use xlink:href="#DejaVuSans-2c" transform="translate(801.381836 -16.390625)scale(0.7)"/>
     <use xlink:href="#DejaVuSans-Oblique-69" transform="translate(837.270508 -16.390625)scale(0.7)"/>
     <use xlink:href="#DejaVuSans-29" transform="translate(859.453125 0.015625)"/>
    </g>
   </g>
   <g id="LineCollection_16">
    <path d="M 209.365117 42.81039 
L 336.058268 42.81039 
" clip-path="url(#p96c36d4b76)" style="fill: none; stroke: #000000; stroke-width: 3"/>
   </g>
   <g id="LineCollection_17">
    <path d="M 193.412208 88.005195 
L 271.50065 88.005195 
" clip-path="url(#p96c36d4b76)" style="fill: none; stroke: #000000; stroke-width: 3"/>
   </g>
   <g id="LineCollection_18">
    <path d="M 304.33638 133.2 
L 371.11425 133.2 
" clip-path="url(#p96c36d4b76)" style="fill: none; stroke: #000000; stroke-width: 3"/>
   </g>
   <g id="LineCollection_19">
    <path d="M 222.796641 178.394805 
L 343.604035 178.394805 
" clip-path="url(#p96c36d4b76)" style="fill: none; stroke: #000000; stroke-width: 3"/>
   </g>
   <g id="LineCollection_20">
    <path d="M 131.224195 223.58961 
L 208.984303 223.58961 
" clip-path="url(#p96c36d4b76)" style="fill: none; stroke: #000000; stroke-width: 3"/>
   </g>
   <g id="PathCollection_6">
    <path d="M 269.766214 49.881457 
C 271.641483 49.881457 273.440199 49.136405 274.766214 47.81039 
C 276.09223 46.484374 276.837282 44.685659 276.837282 42.81039 
C 276.837282 40.935121 276.09223 39.136405 274.766214 37.81039 
C 273.440199 36.484374 271.641483 35.739322 269.766214 35.739322 
C 267.890945 35.739322 266.09223 36.484374 264.766214 37.81039 
C 263.440199 39.136405 262.695146 40.935121 262.695146 42.81039 
C 262.695146 44.685659 263.440199 46.484374 264.766214 47.81039 
C 266.09223 49.136405 267.890945 49.881457 269.766214 49.881457 
z
" clip-path="url(#p96c36d4b76)" style="fill: #1f77b4; stroke: #000000; stroke-width: 1.131371"/>
    <path d="M 227.809791 95.076263 
L 231.345325 91.540729 
L 234.880859 95.076263 
L 238.416393 91.540729 
L 234.880859 88.005195 
L 238.416393 84.469661 
L 234.880859 80.934127 
L 231.345325 84.469661 
L 227.809791 80.934127 
L 224.274257 84.469661 
L 227.809791 88.005195 
L 224.274257 91.540729 
z
" clip-path="url(#p96c36d4b76)" style="fill: #ff7f0e; stroke: #000000; stroke-width: 1.131371"/>
    <path d="M 329.002477 140.271068 
L 343.144613 140.271068 
L 343.144613 126.128932 
L 329.002477 126.128932 
z
" clip-path="url(#p96c36d4b76)" style="fill: #2ca02c; stroke: #000000; stroke-width: 1.131371"/>
    <path d="M 277.410636 185.465873 
L 282.124682 185.465873 
L 282.124682 180.751828 
L 286.838727 180.751828 
L 286.838727 176.037783 
L 282.124682 176.037783 
L 282.124682 171.323737 
L 277.410636 171.323737 
L 277.410636 176.037783 
L 272.696591 176.037783 
L 272.696591 180.751828 
L 277.410636 180.751828 
z
" clip-path="url(#p96c36d4b76)" style="fill: #d62728; stroke: #000000; stroke-width: 1.131371"/>
    <path d="M 167.308488 233.58961 
L 177.308488 223.58961 
L 167.308488 213.58961 
L 157.308488 223.58961 
z
" clip-path="url(#p96c36d4b76)" style="fill: #9467bd; stroke: #000000; stroke-width: 1.131371"/>
   </g>
  </g>
  <g id="axes_2">
   <g id="patch_7">
    <path d="M 691.625143 237.6 
L 1258.848 237.6 
L 1258.848 28.8 
L 691.625143 28.8 
z
" style="fill: #ffffff"/>
   </g>
   <g id="LineCollection_21">
    <path d="M 660.112762 42.81039 
L 1290.360381 42.81039 
" clip-path="url(#pf3ee86d3df)" style="fill: none; stroke: #000000; stroke-opacity: 0.2; stroke-width: 2"/>
   </g>
   <g id="LineCollection_22">
    <path d="M 957.292826 38.290909 
L 957.292826 47.32987 
" clip-path="url(#pf3ee86d3df)" style="fill: none; stroke: #000000; stroke-width: 3"/>
   </g>
   <g id="LineCollection_23">
    <path d="M 1003.05938 38.290909 
L 1003.05938 47.32987 
" clip-path="url(#pf3ee86d3df)" style="fill: none; stroke: #000000; stroke-width: 3"/>
   </g>
   <g id="LineCollection_24">
    <path d="M 660.112762 88.005195 
L 1290.360381 88.005195 
" clip-path="url(#pf3ee86d3df)" style="fill: none; stroke: #000000; stroke-opacity: 0.2; stroke-width: 2"/>
   </g>
   <g id="LineCollection_25">
    <path d="M 714.02723 83.485714 
L 714.02723 92.524675 
" clip-path="url(#pf3ee86d3df)" style="fill: none; stroke: #000000; stroke-width: 3"/>
   </g>
   <g id="LineCollection_26">
    <path d="M 774.317521 83.485714 
L 774.317521 92.524675 
" clip-path="url(#pf3ee86d3df)" style="fill: none; stroke: #000000; stroke-width: 3"/>
   </g>
   <g id="LineCollection_27">
    <path d="M 660.112762 133.2 
L 1290.360381 133.2 
" clip-path="url(#pf3ee86d3df)" style="fill: none; stroke: #000000; stroke-opacity: 0.2; stroke-width: 2"/>
   </g>
   <g id="LineCollection_28">
    <path d="M 906.300507 128.680519 
L 906.300507 137.719481 
" clip-path="url(#pf3ee86d3df)" style="fill: none; stroke: #000000; stroke-width: 3"/>
   </g>
   <g id="LineCollection_29">
    <path d="M 933.591303 128.680519 
L 933.591303 137.719481 
" clip-path="url(#pf3ee86d3df)" style="fill: none; stroke: #000000; stroke-width: 3"/>
   </g>
   <g id="LineCollection_30">
    <path d="M 660.112762 178.394805 
L 1290.360381 178.394805 
" clip-path="url(#pf3ee86d3df)" style="fill: none; stroke: #000000; stroke-opacity: 0.2; stroke-width: 2"/>
   </g>
   <g id="LineCollection_31">
    <path d="M 769.220382 173.875325 
L 769.220382 182.914286 
" clip-path="url(#pf3ee86d3df)" style="fill: none; stroke: #000000; stroke-width: 3"/>
   </g>
   <g id="LineCollection_32">
    <path d="M 834.27092 173.875325 
L 834.27092 182.914286 
" clip-path="url(#pf3ee86d3df)" style="fill: none; stroke: #000000; stroke-width: 3"/>
   </g>
   <g id="LineCollection_33">
    <path d="M 660.112762 223.58961 
L 1290.360381 223.58961 
" clip-path="url(#pf3ee86d3df)" style="fill: none; stroke: #000000; stroke-opacity: 0.2; stroke-width: 2"/>
   </g>
   <g id="LineCollection_34">
    <path d="M 763.233104 219.07013 
L 763.233104 228.109091 
" clip-path="url(#pf3ee86d3df)" style="fill: none; stroke: #000000; stroke-width: 3"/>
   </g>
   <g id="LineCollection_35">
    <path d="M 802.075424 219.07013 
L 802.075424 228.109091 
" clip-path="url(#pf3ee86d3df)" style="fill: none; stroke: #000000; stroke-width: 3"/>
   </g>
   <g id="PathCollection_7"/>
   <g id="PathCollection_8"/>
   <g id="PathCollection_9"/>
   <g id="PathCollection_10"/>
   <g id="PathCollection_11"/>
   <g id="matplotlib.axis_3">
    <g id="xtick_6">
     <g id="line2d_12">
      <g>
       <use xlink:href="#m99931497ea" x="723.137524" y="237.6" style="stroke: #000000; stroke-width: 3"/>
      </g>
     </g>
     <g id="text_12">
      <!-- −0.8 -->
      <g transform="translate(701.282993 258.277188)scale(0.18 -0.18)">
       <defs>
        <path id="DejaVuSans-38" d="M 2034 2216 
Q 1584 2216 1326 1975 
Q 1069 1734 1069 1313 
Q 1069 891 1326 650 
Q 1584 409 2034 409 
Q 2484 409 2743 651 
Q 3003 894 3003 1313 
Q 3003 1734 2745 1975 
Q 2488 2216 2034 2216 
z
M 1403 2484 
Q 997 2584 770 2862 
Q 544 3141 544 3541 
Q 544 4100 942 4425 
Q 1341 4750 2034 4750 
Q 2731 4750 3128 4425 
Q 3525 4100 3525 3541 
Q 3525 3141 3298 2862 
Q 3072 2584 2669 2484 
Q 3125 2378 3379 2068 
Q 3634 1759 3634 1313 
Q 3634 634 3220 271 
Q 2806 -91 2034 -91 
Q 1263 -91 848 271 
Q 434 634 434 1313 
Q 434 1759 690 2068 
Q 947 2378 1403 2484 
z
M 1172 3481 
Q 1172 3119 1398 2916 
Q 1625 2713 2034 2713 
Q 2441 2713 2670 2916 
Q 2900 3119 2900 3481 
Q 2900 3844 2670 4047 
Q 2441 4250 2034 4250 
Q 1625 4250 1398 4047 
Q 1172 3844 1172 3481 
z
" transform="scale(0.015625)"/>
       </defs>
       <use xlink:href="#DejaVuSans-2212"/>
       <use xlink:href="#DejaVuSans-30" x="83.789062"/>
       <use xlink:href="#DejaVuSans-2e" x="147.412109"/>
       <use xlink:href="#DejaVuSans-38" x="179.199219"/>
      </g>
     </g>
    </g>
    <g id="xtick_7">
     <g id="line2d_13">
      <g>
       <use xlink:href="#m99931497ea" x="786.162286" y="237.6" style="stroke: #000000; stroke-width: 3"/>
      </g>
     </g>
     <g id="text_13">
      <!-- −0.6 -->
      <g transform="translate(764.307754 258.277188)scale(0.18 -0.18)">
       <defs>
        <path id="DejaVuSans-36" d="M 2113 2584 
Q 1688 2584 1439 2293 
Q 1191 2003 1191 1497 
Q 1191 994 1439 701 
Q 1688 409 2113 409 
Q 2538 409 2786 701 
Q 3034 994 3034 1497 
Q 3034 2003 2786 2293 
Q 2538 2584 2113 2584 
z
M 3366 4563 
L 3366 3988 
Q 3128 4100 2886 4159 
Q 2644 4219 2406 4219 
Q 1781 4219 1451 3797 
Q 1122 3375 1075 2522 
Q 1259 2794 1537 2939 
Q 1816 3084 2150 3084 
Q 2853 3084 3261 2657 
Q 3669 2231 3669 1497 
Q 3669 778 3244 343 
Q 2819 -91 2113 -91 
Q 1303 -91 875 529 
Q 447 1150 447 2328 
Q 447 3434 972 4092 
Q 1497 4750 2381 4750 
Q 2619 4750 2861 4703 
Q 3103 4656 3366 4563 
z
" transform="scale(0.015625)"/>
       </defs>
       <use xlink:href="#DejaVuSans-2212"/>
       <use xlink:href="#DejaVuSans-30" x="83.789062"/>
       <use xlink:href="#DejaVuSans-2e" x="147.412109"/>
       <use xlink:href="#DejaVuSans-36" x="179.199219"/>
      </g>
     </g>
    </g>
    <g id="xtick_8">
     <g id="line2d_14">
      <g>
       <use xlink:href="#m99931497ea" x="849.187048" y="237.6" style="stroke: #000000; stroke-width: 3"/>
      </g>
     </g>
     <g id="text_14">
      <!-- −0.4 -->
      <g transform="translate(827.332516 258.277188)scale(0.18 -0.18)">
       <use xlink:href="#DejaVuSans-2212"/>
       <use xlink:href="#DejaVuSans-30" x="83.789062"/>
       <use xlink:href="#DejaVuSans-2e" x="147.412109"/>
       <use xlink:href="#DejaVuSans-34" x="179.199219"/>
      </g>
     </g>
    </g>
    <g id="xtick_9">
     <g id="line2d_15">
      <g>
       <use xlink:href="#m99931497ea" x="912.21181" y="237.6" style="stroke: #000000; stroke-width: 3"/>
      </g>
     </g>
     <g id="text_15">
      <!-- −0.2 -->
      <g transform="translate(890.357278 258.277188)scale(0.18 -0.18)">
       <use xlink:href="#DejaVuSans-2212"/>
       <use xlink:href="#DejaVuSans-30" x="83.789062"/>
       <use xlink:href="#DejaVuSans-2e" x="147.412109"/>
       <use xlink:href="#DejaVuSans-32" x="179.199219"/>
      </g>
     </g>
    </g>
    <g id="xtick_10">
     <g id="line2d_16">
      <g>
       <use xlink:href="#m99931497ea" x="975.236571" y="237.6" style="stroke: #000000; stroke-width: 3"/>
      </g>
     </g>
     <g id="text_16">
      <!-- 0.0 -->
      <g transform="translate(960.923759 258.277188)scale(0.18 -0.18)">
       <use xlink:href="#DejaVuSans-30"/>
       <use xlink:href="#DejaVuSans-2e" x="63.623047"/>
       <use xlink:href="#DejaVuSans-30" x="95.410156"/>
      </g>
     </g>
    </g>
    <g id="xtick_11">
     <g id="line2d_17">
      <g>
       <use xlink:href="#m99931497ea" x="1038.261333" y="237.6" style="stroke: #000000; stroke-width: 3"/>
      </g>
     </g>
     <g id="text_17">
      <!-- 0.2 -->
      <g transform="translate(1023.948521 258.277188)scale(0.18 -0.18)">
       <use xlink:href="#DejaVuSans-30"/>
       <use xlink:href="#DejaVuSans-2e" x="63.623047"/>
       <use xlink:href="#DejaVuSans-32" x="95.410156"/>
      </g>
     </g>
    </g>
    <g id="xtick_12">
     <g id="line2d_18">
      <g>
       <use xlink:href="#m99931497ea" x="1101.286095" y="237.6" style="stroke: #000000; stroke-width: 3"/>
      </g>
     </g>
     <g id="text_18">
      <!-- 0.4 -->
      <g transform="translate(1086.973283 258.277188)scale(0.18 -0.18)">
       <use xlink:href="#DejaVuSans-30"/>
       <use xlink:href="#DejaVuSans-2e" x="63.623047"/>
       <use xlink:href="#DejaVuSans-34" x="95.410156"/>
      </g>
     </g>
    </g>
    <g id="xtick_13">
     <g id="line2d_19">
      <g>
       <use xlink:href="#m99931497ea" x="1164.310857" y="237.6" style="stroke: #000000; stroke-width: 3"/>
      </g>
     </g>
     <g id="text_19">
      <!-- 0.6 -->
      <g transform="translate(1149.998045 258.277188)scale(0.18 -0.18)">
       <use xlink:href="#DejaVuSans-30"/>
       <use xlink:href="#DejaVuSans-2e" x="63.623047"/>
       <use xlink:href="#DejaVuSans-36" x="95.410156"/>
      </g>
     </g>
    </g>
    <g id="xtick_14">
     <g id="line2d_20">
      <g>
       <use xlink:href="#m99931497ea" x="1227.335619" y="237.6" style="stroke: #000000; stroke-width: 3"/>
      </g>
     </g>
     <g id="text_20">
      <!-- 0.8 -->
      <g transform="translate(1213.022807 258.277188)scale(0.18 -0.18)">
       <use xlink:href="#DejaVuSans-30"/>
       <use xlink:href="#DejaVuSans-2e" x="63.623047"/>
       <use xlink:href="#DejaVuSans-38" x="95.410156"/>
      </g>
     </g>
    </g>
   </g>
   <g id="matplotlib.axis_4">
    <g id="ytick_6">
     <g id="line2d_21">
      <g>
       <use xlink:href="#mc90263b78a" x="691.625143" y="42.81039" style="stroke: #000000; stroke-width: 3"/>
      </g>
     </g>
    </g>
    <g id="ytick_7">
     <g id="line2d_22">
      <g>
       <use xlink:href="#mc90263b78a" x="691.625143" y="88.005195" style="stroke: #000000; stroke-width: 3"/>
      </g>
     </g>
    </g>
    <g id="ytick_8">
     <g id="line2d_23">
      <g>
       <use xlink:href="#mc90263b78a" x="691.625143" y="133.2" style="stroke: #000000; stroke-width: 3"/>
      </g>
     </g>
    </g>
    <g id="ytick_9">
     <g id="line2d_24">
      <g>
       <use xlink:href="#mc90263b78a" x="691.625143" y="178.394805" style="stroke: #000000; stroke-width: 3"/>
      </g>
     </g>
    </g>
    <g id="ytick_10">
     <g id="line2d_25">
      <g>
       <use xlink:href="#mc90263b78a" x="691.625143" y="223.58961" style="stroke: #000000; stroke-width: 3"/>
      </g>
     </g>
    </g>
   </g>
   <g id="line2d_26">
    <path d="M 975.236571 237.6 
L 975.236571 28.8 
" clip-path="url(#pf3ee86d3df)" style="fill: none; stroke-dasharray: 7.4,3.2; stroke-dashoffset: 0; stroke: #000000; stroke-opacity: 0.8; stroke-width: 2"/>
   </g>
   <g id="patch_8">
    <path d="M 691.625143 237.6 
L 691.625143 28.8 
" style="fill: none; stroke: #000000; stroke-width: 2; stroke-linejoin: miter; stroke-linecap: square"/>
   </g>
   <g id="patch_9">
    <path d="M 1258.848 237.6 
L 1258.848 28.8 
" style="fill: none; stroke: #000000; stroke-width: 2; stroke-linejoin: miter; stroke-linecap: square"/>
   </g>
   <g id="patch_10">
    <path d="M 691.625143 237.6 
L 1258.848 237.6 
" style="fill: none; stroke: #000000; stroke-width: 2; stroke-linejoin: miter; stroke-linecap: square"/>
   </g>
   <g id="patch_11">
    <path d="M 691.625143 28.8 
L 1258.848 28.8 
" style="fill: none; stroke: #000000; stroke-width: 2; stroke-linejoin: miter; stroke-linecap: square"/>
   </g>
   <g id="text_21">
    <!-- Partner coupling ($\alpha_{i, j}$) -->
    <g transform="translate(858.704571 22.104)scale(0.216 -0.216)">
     <defs>
      <path id="DejaVuSans-50" d="M 1259 4147 
L 1259 2394 
L 2053 2394 
Q 2494 2394 2734 2622 
Q 2975 2850 2975 3272 
Q 2975 3691 2734 3919 
Q 2494 4147 2053 4147 
L 1259 4147 
z
M 628 4666 
L 2053 4666 
Q 2838 4666 3239 4311 
Q 3641 3956 3641 3272 
Q 3641 2581 3239 2228 
Q 2838 1875 2053 1875 
L 1259 1875 
L 1259 0 
L 628 0 
L 628 4666 
z
" transform="scale(0.015625)"/>
      <path id="DejaVuSans-61" d="M 2194 1759 
Q 1497 1759 1228 1600 
Q 959 1441 959 1056 
Q 959 750 1161 570 
Q 1363 391 1709 391 
Q 2188 391 2477 730 
Q 2766 1069 2766 1631 
L 2766 1759 
L 2194 1759 
z
M 3341 1997 
L 3341 0 
L 2766 0 
L 2766 531 
Q 2569 213 2275 61 
Q 1981 -91 1556 -91 
Q 1019 -91 701 211 
Q 384 513 384 1019 
Q 384 1609 779 1909 
Q 1175 2209 1959 2209 
L 2766 2209 
L 2766 2266 
Q 2766 2663 2505 2880 
Q 2244 3097 1772 3097 
Q 1472 3097 1187 3025 
Q 903 2953 641 2809 
L 641 3341 
Q 956 3463 1253 3523 
Q 1550 3584 1831 3584 
Q 2591 3584 2966 3190 
Q 3341 2797 3341 1997 
z
" transform="scale(0.015625)"/>
      <path id="DejaVuSans-72" d="M 2631 2963 
Q 2534 3019 2420 3045 
Q 2306 3072 2169 3072 
Q 1681 3072 1420 2755 
Q 1159 2438 1159 1844 
L 1159 0 
L 581 0 
L 581 3500 
L 1159 3500 
L 1159 2956 
Q 1341 3275 1631 3429 
Q 1922 3584 2338 3584 
Q 2397 3584 2469 3576 
Q 2541 3569 2628 3553 
L 2631 2963 
z
" transform="scale(0.015625)"/>
      <path id="DejaVuSans-74" d="M 1172 4494 
L 1172 3500 
L 2356 3500 
L 2356 3053 
L 1172 3053 
L 1172 1153 
Q 1172 725 1289 603 
Q 1406 481 1766 481 
L 2356 481 
L 2356 0 
L 1766 0 
Q 1100 0 847 248 
Q 594 497 594 1153 
L 594 3053 
L 172 3053 
L 172 3500 
L 594 3500 
L 594 4494 
L 1172 4494 
z
" transform="scale(0.015625)"/>
      <path id="DejaVuSans-Oblique-6a" d="M 928 3500 
L 1503 3500 
L 813 -63 
L 809 -78 
Q 694 -675 544 -897 
Q 403 -1106 132 -1218 
Q -138 -1331 -506 -1331 
L -722 -1331 
L -628 -844 
L -481 -844 
Q -144 -844 -1 -703 
Q 141 -563 238 -63 
L 928 3500 
z
M 1197 4863 
L 1772 4863 
L 1631 4134 
L 1056 4134 
L 1197 4863 
z
" transform="scale(0.015625)"/>
     </defs>
     <use xlink:href="#DejaVuSans-50" transform="translate(0 0.015625)"/>
     <use xlink:href="#DejaVuSans-61" transform="translate(60.302734 0.015625)"/>
     <use xlink:href="#DejaVuSans-72" transform="translate(121.582031 0.015625)"/>
     <use xlink:href="#DejaVuSans-74" transform="translate(162.695312 0.015625)"/>
     <use xlink:href="#DejaVuSans-6e" transform="translate(201.904297 0.015625)"/>
     <use xlink:href="#DejaVuSans-65" transform="translate(265.283203 0.015625)"/>
     <use xlink:href="#DejaVuSans-72" transform="translate(326.806641 0.015625)"/>
     <use xlink:href="#DejaVuSans-20" transform="translate(367.919922 0.015625)"/>
     <use xlink:href="#DejaVuSans-63" transform="translate(399.707031 0.015625)"/>
     <use xlink:href="#DejaVuSans-6f" transform="translate(454.6875 0.015625)"/>
     <use xlink:href="#DejaVuSans-75" transform="translate(515.869141 0.015625)"/>
     <use xlink:href="#DejaVuSans-70" transform="translate(579.248047 0.015625)"/>
     <use xlink:href="#DejaVuSans-6c" transform="translate(642.724609 0.015625)"/>
     <use xlink:href="#DejaVuSans-69" transform="translate(670.507812 0.015625)"/>
     <use xlink:href="#DejaVuSans-6e" transform="translate(698.291016 0.015625)"/>
     <use xlink:href="#DejaVuSans-67" transform="translate(761.669922 0.015625)"/>
     <use xlink:href="#DejaVuSans-20" transform="translate(825.146484 0.015625)"/>
     <use xlink:href="#DejaVuSans-28" transform="translate(856.933594 0.015625)"/>
     <use xlink:href="#DejaVuSans-Oblique-3b1" transform="translate(895.947266 0.015625)"/>
     <use xlink:href="#DejaVuSans-Oblique-69" transform="translate(961.865234 -16.390625)scale(0.7)"/>
     <use xlink:href="#DejaVuSans-2c" transform="translate(981.313477 -16.390625)scale(0.7)"/>
     <use xlink:href="#DejaVuSans-Oblique-6a" transform="translate(1017.202148 -16.390625)scale(0.7)"/>
     <use xlink:href="#DejaVuSans-29" transform="translate(1039.384766 0.015625)"/>
    </g>
   </g>
   <g id="LineCollection_36">
    <path d="M 957.292826 42.81039 
L 1003.05938 42.81039 
" clip-path="url(#pf3ee86d3df)" style="fill: none; stroke: #000000; stroke-width: 3"/>
   </g>
   <g id="LineCollection_37">
    <path d="M 714.02723 88.005195 
L 774.317521 88.005195 
" clip-path="url(#pf3ee86d3df)" style="fill: none; stroke: #000000; stroke-width: 3"/>
   </g>
   <g id="LineCollection_38">
    <path d="M 906.300507 133.2 
L 933.591303 133.2 
" clip-path="url(#pf3ee86d3df)" style="fill: none; stroke: #000000; stroke-width: 3"/>
   </g>
   <g id="LineCollection_39">
    <path d="M 769.220382 178.394805 
L 834.27092 178.394805 
" clip-path="url(#pf3ee86d3df)" style="fill: none; stroke: #000000; stroke-width: 3"/>
   </g>
   <g id="LineCollection_40">
    <path d="M 763.233104 223.58961 
L 802.075424 223.58961 
" clip-path="url(#pf3ee86d3df)" style="fill: none; stroke: #000000; stroke-width: 3"/>
   </g>
   <g id="PathCollection_12">
    <path d="M 979.484315 49.881457 
C 981.359584 49.881457 983.158299 49.136405 984.484315 47.81039 
C 985.81033 46.484374 986.555383 44.685659 986.555383 42.81039 
C 986.555383 40.935121 985.81033 39.136405 984.484315 37.81039 
C 983.158299 36.484374 981.359584 35.739322 979.484315 35.739322 
C 977.609046 35.739322 975.81033 36.484374 974.484315 37.81039 
C 973.158299 39.136405 972.413247 40.935121 972.413247 42.81039 
C 972.413247 44.685659 973.158299 46.484374 974.484315 47.81039 
C 975.81033 49.136405 977.609046 49.881457 979.484315 49.881457 
z
" clip-path="url(#pf3ee86d3df)" style="fill: #1f77b4; stroke: #000000; stroke-width: 1.131371"/>
    <path d="M 740.217318 95.076263 
L 743.752852 91.540729 
L 747.288385 95.076263 
L 750.823919 91.540729 
L 747.288385 88.005195 
L 750.823919 84.469661 
L 747.288385 80.934127 
L 743.752852 84.469661 
L 740.217318 80.934127 
L 736.681784 84.469661 
L 740.217318 88.005195 
L 736.681784 91.540729 
z
" clip-path="url(#pf3ee86d3df)" style="fill: #ff7f0e; stroke: #000000; stroke-width: 1.131371"/>
    <path d="M 912.840182 140.271068 
L 926.982318 140.271068 
L 926.982318 126.128932 
L 912.840182 126.128932 
z
" clip-path="url(#pf3ee86d3df)" style="fill: #2ca02c; stroke: #000000; stroke-width: 1.131371"/>
    <path d="M 798.950871 185.465873 
L 803.664916 185.465873 
L 803.664916 180.751828 
L 808.378962 180.751828 
L 808.378962 176.037783 
L 803.664916 176.037783 
L 803.664916 171.323737 
L 798.950871 171.323737 
L 798.950871 176.037783 
L 794.236826 176.037783 
L 794.236826 180.751828 
L 798.950871 180.751828 
z
" clip-path="url(#pf3ee86d3df)" style="fill: #d62728; stroke: #000000; stroke-width: 1.131371"/>
    <path d="M 782.078834 233.58961 
L 792.078834 223.58961 
L 782.078834 213.58961 
L 772.078834 223.58961 
z
" clip-path="url(#pf3ee86d3df)" style="fill: #9467bd; stroke: #000000; stroke-width: 1.131371"/>
   </g>
  </g>
  <g id="text_22">
   <!-- Difference in means -->
   <g transform="translate(568.000125 280.627875)scale(0.216 -0.216)">
    <defs>
     <path id="DejaVuSans-44" d="M 1259 4147 
L 1259 519 
L 2022 519 
Q 2988 519 3436 956 
Q 3884 1394 3884 2338 
Q 3884 3275 3436 3711 
Q 2988 4147 2022 4147 
L 1259 4147 
z
M 628 4666 
L 1925 4666 
Q 3281 4666 3915 4102 
Q 4550 3538 4550 2338 
Q 4550 1131 3912 565 
Q 3275 0 1925 0 
L 628 0 
L 628 4666 
z
" transform="scale(0.015625)"/>
     <path id="DejaVuSans-6d" d="M 3328 2828 
Q 3544 3216 3844 3400 
Q 4144 3584 4550 3584 
Q 5097 3584 5394 3201 
Q 5691 2819 5691 2113 
L 5691 0 
L 5113 0 
L 5113 2094 
Q 5113 2597 4934 2840 
Q 4756 3084 4391 3084 
Q 3944 3084 3684 2787 
Q 3425 2491 3425 1978 
L 3425 0 
L 2847 0 
L 2847 2094 
Q 2847 2600 2669 2842 
Q 2491 3084 2119 3084 
Q 1678 3084 1418 2786 
Q 1159 2488 1159 1978 
L 1159 0 
L 581 0 
L 581 3500 
L 1159 3500 
L 1159 2956 
Q 1356 3278 1631 3431 
Q 1906 3584 2284 3584 
Q 2666 3584 2933 3390 
Q 3200 3197 3328 2828 
z
" transform="scale(0.015625)"/>
     <path id="DejaVuSans-73" d="M 2834 3397 
L 2834 2853 
Q 2591 2978 2328 3040 
Q 2066 3103 1784 3103 
Q 1356 3103 1142 2972 
Q 928 2841 928 2578 
Q 928 2378 1081 2264 
Q 1234 2150 1697 2047 
L 1894 2003 
Q 2506 1872 2764 1633 
Q 3022 1394 3022 966 
Q 3022 478 2636 193 
Q 2250 -91 1575 -91 
Q 1294 -91 989 -36 
Q 684 19 347 128 
L 347 722 
Q 666 556 975 473 
Q 1284 391 1588 391 
Q 1994 391 2212 530 
Q 2431 669 2431 922 
Q 2431 1156 2273 1281 
Q 2116 1406 1581 1522 
L 1381 1569 
Q 847 1681 609 1914 
Q 372 2147 372 2553 
Q 372 3047 722 3315 
Q 1072 3584 1716 3584 
Q 2034 3584 2315 3537 
Q 2597 3491 2834 3397 
z
" transform="scale(0.015625)"/>
    </defs>
    <use xlink:href="#DejaVuSans-44"/>
    <use xlink:href="#DejaVuSans-69" x="77.001953"/>
    <use xlink:href="#DejaVuSans-66" x="104.785156"/>
    <use xlink:href="#DejaVuSans-66" x="139.990234"/>
    <use xlink:href="#DejaVuSans-65" x="175.195312"/>
    <use xlink:href="#DejaVuSans-72" x="236.71875"/>
    <use xlink:href="#DejaVuSans-65" x="275.582031"/>
    <use xlink:href="#DejaVuSans-6e" x="337.105469"/>
    <use xlink:href="#DejaVuSans-63" x="400.484375"/>
    <use xlink:href="#DejaVuSans-65" x="455.464844"/>
    <use xlink:href="#DejaVuSans-20" x="516.988281"/>
    <use xlink:href="#DejaVuSans-69" x="548.775391"/>
    <use xlink:href="#DejaVuSans-6e" x="576.558594"/>
    <use xlink:href="#DejaVuSans-20" x="639.9375"/>
    <use xlink:href="#DejaVuSans-6d" x="671.724609"/>
    <use xlink:href="#DejaVuSans-65" x="769.136719"/>
    <use xlink:href="#DejaVuSans-61" x="830.660156"/>
    <use xlink:href="#DejaVuSans-6e" x="891.939453"/>
    <use xlink:href="#DejaVuSans-73" x="955.318359"/>
   </g>
  </g>
  <g id="text_23">
   <!-- Duos -->
   <g transform="translate(29.948625 171.394875)rotate(-90)scale(0.216 -0.216)">
    <use xlink:href="#DejaVuSans-44"/>
    <use xlink:href="#DejaVuSans-75" x="77.001953"/>
    <use xlink:href="#DejaVuSans-6f" x="140.380859"/>
    <use xlink:href="#DejaVuSans-73" x="201.5625"/>
   </g>
  </g>
  <g id="legend_1">
   <g id="text_24">
    <!-- Duo -->
    <g transform="translate(1286.3175 103.396875)scale(0.2 -0.2)">
     <use xlink:href="#DejaVuSans-44"/>
     <use xlink:href="#DejaVuSans-75" x="77.001953"/>
     <use xlink:href="#DejaVuSans-6f" x="140.380859"/>
    </g>
   </g>
   <g id="PathCollection_13">
    <defs>
     <path id="md64f135f24" d="M 0 7.071068 
C 1.875269 7.071068 3.673985 6.326016 5 5 
C 6.326016 3.673985 7.071068 1.875269 7.071068 0 
C 7.071068 -1.875269 6.326016 -3.673985 5 -5 
C 3.673985 -6.326016 1.875269 -7.071068 0 -7.071068 
C -1.875269 -7.071068 -3.673985 -6.326016 -5 -5 
C -6.326016 -3.673985 -7.071068 -1.875269 -7.071068 0 
C -7.071068 1.875269 -6.326016 3.673985 -5 5 
C -3.673985 6.326016 -1.875269 7.071068 0 7.071068 
z
" style="stroke: #000000"/>
    </defs>
    <g>
     <use xlink:href="#md64f135f24" x="1293.5475" y="125.508438" style="fill: #1f77b4; stroke: #000000"/>
    </g>
   </g>
   <g id="text_25">
    <!-- 1 -->
    <g transform="translate(1325.9475 130.233438)scale(0.18 -0.18)">
     <use xlink:href="#DejaVuSans-31"/>
    </g>
   </g>
   <g id="PathCollection_14">
    <defs>
     <path id="md33aa201bf" d="M -3.535534 7.071068 
L 0 3.535534 
L 3.535534 7.071068 
L 7.071068 3.535534 
L 3.535534 0 
L 7.071068 -3.535534 
L 3.535534 -7.071068 
L 0 -3.535534 
L -3.535534 -7.071068 
L -7.071068 -3.535534 
L -3.535534 0 
L -7.071068 3.535534 
z
" style="stroke: #000000"/>
    </defs>
    <g>
     <use xlink:href="#md33aa201bf" x="1293.5475" y="151.929063" style="fill: #ff7f0e; stroke: #000000"/>
    </g>
   </g>
   <g id="text_26">
    <!-- 2 -->
    <g transform="translate(1325.9475 156.654063)scale(0.18 -0.18)">
     <use xlink:href="#DejaVuSans-32"/>
    </g>
   </g>
   <g id="PathCollection_15">
    <defs>
     <path id="ma81dbde82a" d="M -7.071068 7.071068 
L 7.071068 7.071068 
L 7.071068 -7.071068 
L -7.071068 -7.071068 
z
" style="stroke: #000000"/>
    </defs>
    <g>
     <use xlink:href="#ma81dbde82a" x="1293.5475" y="178.349688" style="fill: #2ca02c; stroke: #000000"/>
    </g>
   </g>
   <g id="text_27">
    <!-- 3 -->
    <g transform="translate(1325.9475 183.074688)scale(0.18 -0.18)">
     <use xlink:href="#DejaVuSans-33"/>
    </g>
   </g>
   <g id="PathCollection_16">
    <defs>
     <path id="ma22bdc8c16" d="M -2.357023 7.071068 
L 2.357023 7.071068 
L 2.357023 2.357023 
L 7.071068 2.357023 
L 7.071068 -2.357023 
L 2.357023 -2.357023 
L 2.357023 -7.071068 
L -2.357023 -7.071068 
L -2.357023 -2.357023 
L -7.071068 -2.357023 
L -7.071068 2.357023 
L -2.357023 2.357023 
z
" style="stroke: #000000"/>
    </defs>
    <g>
     <use xlink:href="#ma22bdc8c16" x="1293.5475" y="204.770313" style="fill: #d62728; stroke: #000000"/>
    </g>
   </g>
   <g id="text_28">
    <!-- 4 -->
    <g transform="translate(1325.9475 209.495313)scale(0.18 -0.18)">
     <use xlink:href="#DejaVuSans-34"/>
    </g>
   </g>
   <g id="PathCollection_17">
    <defs>
     <path id="mfb9e59ce6f" d="M 0 10 
L 10 0 
L 0 -10 
L -10 0 
z
" style="stroke: #000000"/>
    </defs>
    <g>
     <use xlink:href="#mfb9e59ce6f" x="1293.5475" y="231.190938" style="fill: #9467bd; stroke: #000000"/>
    </g>
   </g>
   <g id="text_29">
    <!-- 5 -->
    <g transform="translate(1325.9475 235.915938)scale(0.18 -0.18)">
     <use xlink:href="#DejaVuSans-35"/>
    </g>
   </g>
  </g>
 </g>
 <defs>
  <clipPath id="p96c36d4b76">
   <rect x="67.68" y="28.8" width="567.222857" height="208.8"/>
  </clipPath>
  <clipPath id="pf3ee86d3df">
   <rect x="691.625143" y="28.8" width="567.222857" height="208.8"/>
  </clipPath>
 </defs>
</svg>
