<?xml version="1.0" encoding="utf-8" standalone="no"?>
<!DOCTYPE svg PUBLIC "-//W3C//DTD SVG 1.1//EN"
  "http://www.w3.org/Graphics/SVG/1.1/DTD/svg11.dtd">
<svg xmlns:xlink="http://www.w3.org/1999/xlink" width="1353.6pt" height="360pt" viewBox="0 0 1353.6 360" xmlns="http://www.w3.org/2000/svg" version="1.1">
 <metadata>
  <rdf:RDF xmlns:dc="http://purl.org/dc/elements/1.1/" xmlns:cc="http://creativecommons.org/ns#" xmlns:rdf="http://www.w3.org/1999/02/22-rdf-syntax-ns#">
   <cc:Work>
    <dc:type rdf:resource="http://purl.org/dc/dcmitype/StillImage"/>
    <dc:date>2023-06-30T10:07:45.574768</dc:date>
    <dc:format>image/svg+xml</dc:format>
    <dc:creator>
     <cc:Agent>
      <dc:title>Matplotlib v3.5.1, https://matplotlib.org/</dc:title>
     </cc:Agent>
    </dc:creator>
   </cc:Work>
  </rdf:RDF>
 </metadata>
 <defs>
  <style type="text/css">*{stroke-linejoin: round; stroke-linecap: butt}</style>
 </defs>
 <g id="figure_1">
  <g id="patch_1">
   <path d="M 0 360 
L 1353.6 360 
L 1353.6 0 
L 0 0 
z
" style="fill: #ffffff"/>
  </g>
  <g id="axes_1">
   <g id="patch_2">
    <path d="M 128.592 297 
L 679.700571 297 
L 679.700571 36 
L 128.592 36 
z
" style="fill: #ffffff"/>
   </g>
   <g id="patch_3">
    <path d="M 153.64239 55.677897 
L 296.787473 55.677897 
L 296.787473 147.979365 
L 153.64239 147.979365 
z
" clip-path="url(#p61387a267c)" style="fill: #6fb9a2; opacity: 0.8; stroke: #000000; stroke-width: 2; stroke-linejoin: miter"/>
   </g>
   <g id="patch_4">
    <path d="M 332.573744 55.677897 
L 475.718827 55.677897 
L 475.718827 200.066582 
L 332.573744 200.066582 
z
" clip-path="url(#p61387a267c)" style="fill: #ed9471; opacity: 0.8; stroke: #000000; stroke-width: 2; stroke-linejoin: miter"/>
   </g>
   <g id="patch_5">
    <path d="M 511.505098 55.677897 
L 654.650182 55.677897 
L 654.650182 128.481556 
L 511.505098 128.481556 
z
" clip-path="url(#p61387a267c)" style="fill: #93a2c5; opacity: 0.8; stroke: #000000; stroke-width: 2; stroke-linejoin: miter"/>
   </g>
   <g id="matplotlib.axis_1">
    <g id="xtick_1">
     <g id="line2d_1">
      <defs>
       <path id="md1b3cc5d60" d="M 0 0 
L 0 3.5 
" style="stroke: #000000; stroke-width: 3"/>
      </defs>
      <g>
       <use xlink:href="#md1b3cc5d60" x="225.214931" y="297" style="stroke: #000000; stroke-width: 3"/>
      </g>
     </g>
     <g id="text_1">
      <!-- |Tempo slope| -->
      <g transform="translate(162.851963 317.755938)scale(0.18 -0.18)">
       <defs>
        <path id="DejaVuSans-7c" d="M 1344 4891 
L 1344 -1509 
L 813 -1509 
L 813 4891 
L 1344 4891 
z
" transform="scale(0.015625)"/>
        <path id="DejaVuSans-54" d="M -19 4666 
L 3928 4666 
L 3928 4134 
L 2272 4134 
L 2272 0 
L 1638 0 
L 1638 4134 
L -19 4134 
L -19 4666 
z
" transform="scale(0.015625)"/>
        <path id="DejaVuSans-65" d="M 3597 1894 
L 3597 1613 
L 953 1613 
Q 991 1019 1311 708 
Q 1631 397 2203 397 
Q 2534 397 2845 478 
Q 3156 559 3463 722 
L 3463 178 
Q 3153 47 2828 -22 
Q 2503 -91 2169 -91 
Q 1331 -91 842 396 
Q 353 884 353 1716 
Q 353 2575 817 3079 
Q 1281 3584 2069 3584 
Q 2775 3584 3186 3129 
Q 3597 2675 3597 1894 
z
M 3022 2063 
Q 3016 2534 2758 2815 
Q 2500 3097 2075 3097 
Q 1594 3097 1305 2825 
Q 1016 2553 972 2059 
L 3022 2063 
z
" transform="scale(0.015625)"/>
        <path id="DejaVuSans-6d" d="M 3328 2828 
Q 3544 3216 3844 3400 
Q 4144 3584 4550 3584 
Q 5097 3584 5394 3201 
Q 5691 2819 5691 2113 
L 5691 0 
L 5113 0 
L 5113 2094 
Q 5113 2597 4934 2840 
Q 4756 3084 4391 3084 
Q 3944 3084 3684 2787 
Q 3425 2491 3425 1978 
L 3425 0 
L 2847 0 
L 2847 2094 
Q 2847 2600 2669 2842 
Q 2491 3084 2119 3084 
Q 1678 3084 1418 2786 
Q 1159 2488 1159 1978 
L 1159 0 
L 581 0 
L 581 3500 
L 1159 3500 
L 1159 2956 
Q 1356 3278 1631 3431 
Q 1906 3584 2284 3584 
Q 2666 3584 2933 3390 
Q 3200 3197 3328 2828 
z
" transform="scale(0.015625)"/>
        <path id="DejaVuSans-70" d="M 1159 525 
L 1159 -1331 
L 581 -1331 
L 581 3500 
L 1159 3500 
L 1159 2969 
Q 1341 3281 1617 3432 
Q 1894 3584 2278 3584 
Q 2916 3584 3314 3078 
Q 3713 2572 3713 1747 
Q 3713 922 3314 415 
Q 2916 -91 2278 -91 
Q 1894 -91 1617 61 
Q 1341 213 1159 525 
z
M 3116 1747 
Q 3116 2381 2855 2742 
Q 2594 3103 2138 3103 
Q 1681 3103 1420 2742 
Q 1159 2381 1159 1747 
Q 1159 1113 1420 752 
Q 1681 391 2138 391 
Q 2594 391 2855 752 
Q 3116 1113 3116 1747 
z
" transform="scale(0.015625)"/>
        <path id="DejaVuSans-6f" d="M 1959 3097 
Q 1497 3097 1228 2736 
Q 959 2375 959 1747 
Q 959 1119 1226 758 
Q 1494 397 1959 397 
Q 2419 397 2687 759 
Q 2956 1122 2956 1747 
Q 2956 2369 2687 2733 
Q 2419 3097 1959 3097 
z
M 1959 3584 
Q 2709 3584 3137 3096 
Q 3566 2609 3566 1747 
Q 3566 888 3137 398 
Q 2709 -91 1959 -91 
Q 1206 -91 779 398 
Q 353 888 353 1747 
Q 353 2609 779 3096 
Q 1206 3584 1959 3584 
z
" transform="scale(0.015625)"/>
        <path id="DejaVuSans-20" transform="scale(0.015625)"/>
        <path id="DejaVuSans-73" d="M 2834 3397 
L 2834 2853 
Q 2591 2978 2328 3040 
Q 2066 3103 1784 3103 
Q 1356 3103 1142 2972 
Q 928 2841 928 2578 
Q 928 2378 1081 2264 
Q 1234 2150 1697 2047 
L 1894 2003 
Q 2506 1872 2764 1633 
Q 3022 1394 3022 966 
Q 3022 478 2636 193 
Q 2250 -91 1575 -91 
Q 1294 -91 989 -36 
Q 684 19 347 128 
L 347 722 
Q 666 556 975 473 
Q 1284 391 1588 391 
Q 1994 391 2212 530 
Q 2431 669 2431 922 
Q 2431 1156 2273 1281 
Q 2116 1406 1581 1522 
L 1381 1569 
Q 847 1681 609 1914 
Q 372 2147 372 2553 
Q 372 3047 722 3315 
Q 1072 3584 1716 3584 
Q 2034 3584 2315 3537 
Q 2597 3491 2834 3397 
z
" transform="scale(0.015625)"/>
        <path id="DejaVuSans-6c" d="M 603 4863 
L 1178 4863 
L 1178 0 
L 603 0 
L 603 4863 
z
" transform="scale(0.015625)"/>
       </defs>
       <use xlink:href="#DejaVuSans-7c"/>
       <use xlink:href="#DejaVuSans-54" x="33.691406"/>
       <use xlink:href="#DejaVuSans-65" x="77.775391"/>
       <use xlink:href="#DejaVuSans-6d" x="139.298828"/>
       <use xlink:href="#DejaVuSans-70" x="236.710938"/>
       <use xlink:href="#DejaVuSans-6f" x="300.1875"/>
       <use xlink:href="#DejaVuSans-20" x="361.369141"/>
       <use xlink:href="#DejaVuSans-73" x="393.15625"/>
       <use xlink:href="#DejaVuSans-6c" x="445.255859"/>
       <use xlink:href="#DejaVuSans-6f" x="473.039062"/>
       <use xlink:href="#DejaVuSans-70" x="534.220703"/>
       <use xlink:href="#DejaVuSans-65" x="597.697266"/>
       <use xlink:href="#DejaVuSans-7c" x="659.220703"/>
      </g>
     </g>
    </g>
    <g id="xtick_2">
     <g id="line2d_2">
      <g>
       <use xlink:href="#md1b3cc5d60" x="404.146286" y="297" style="stroke: #000000; stroke-width: 3"/>
      </g>
     </g>
     <g id="text_2">
      <!-- Timing irregularity -->
      <g transform="translate(321.319567 317.677188)scale(0.18 -0.18)">
       <defs>
        <path id="DejaVuSans-69" d="M 603 3500 
L 1178 3500 
L 1178 0 
L 603 0 
L 603 3500 
z
M 603 4863 
L 1178 4863 
L 1178 4134 
L 603 4134 
L 603 4863 
z
" transform="scale(0.015625)"/>
        <path id="DejaVuSans-6e" d="M 3513 2113 
L 3513 0 
L 2938 0 
L 2938 2094 
Q 2938 2591 2744 2837 
Q 2550 3084 2163 3084 
Q 1697 3084 1428 2787 
Q 1159 2491 1159 1978 
L 1159 0 
L 581 0 
L 581 3500 
L 1159 3500 
L 1159 2956 
Q 1366 3272 1645 3428 
Q 1925 3584 2291 3584 
Q 2894 3584 3203 3211 
Q 3513 2838 3513 2113 
z
" transform="scale(0.015625)"/>
        <path id="DejaVuSans-67" d="M 2906 1791 
Q 2906 2416 2648 2759 
Q 2391 3103 1925 3103 
Q 1463 3103 1205 2759 
Q 947 2416 947 1791 
Q 947 1169 1205 825 
Q 1463 481 1925 481 
Q 2391 481 2648 825 
Q 2906 1169 2906 1791 
z
M 3481 434 
Q 3481 -459 3084 -895 
Q 2688 -1331 1869 -1331 
Q 1566 -1331 1297 -1286 
Q 1028 -1241 775 -1147 
L 775 -588 
Q 1028 -725 1275 -790 
Q 1522 -856 1778 -856 
Q 2344 -856 2625 -561 
Q 2906 -266 2906 331 
L 2906 616 
Q 2728 306 2450 153 
Q 2172 0 1784 0 
Q 1141 0 747 490 
Q 353 981 353 1791 
Q 353 2603 747 3093 
Q 1141 3584 1784 3584 
Q 2172 3584 2450 3431 
Q 2728 3278 2906 2969 
L 2906 3500 
L 3481 3500 
L 3481 434 
z
" transform="scale(0.015625)"/>
        <path id="DejaVuSans-72" d="M 2631 2963 
Q 2534 3019 2420 3045 
Q 2306 3072 2169 3072 
Q 1681 3072 1420 2755 
Q 1159 2438 1159 1844 
L 1159 0 
L 581 0 
L 581 3500 
L 1159 3500 
L 1159 2956 
Q 1341 3275 1631 3429 
Q 1922 3584 2338 3584 
Q 2397 3584 2469 3576 
Q 2541 3569 2628 3553 
L 2631 2963 
z
" transform="scale(0.015625)"/>
        <path id="DejaVuSans-75" d="M 544 1381 
L 544 3500 
L 1119 3500 
L 1119 1403 
Q 1119 906 1312 657 
Q 1506 409 1894 409 
Q 2359 409 2629 706 
Q 2900 1003 2900 1516 
L 2900 3500 
L 3475 3500 
L 3475 0 
L 2900 0 
L 2900 538 
Q 2691 219 2414 64 
Q 2138 -91 1772 -91 
Q 1169 -91 856 284 
Q 544 659 544 1381 
z
M 1991 3584 
L 1991 3584 
z
" transform="scale(0.015625)"/>
        <path id="DejaVuSans-61" d="M 2194 1759 
Q 1497 1759 1228 1600 
Q 959 1441 959 1056 
Q 959 750 1161 570 
Q 1363 391 1709 391 
Q 2188 391 2477 730 
Q 2766 1069 2766 1631 
L 2766 1759 
L 2194 1759 
z
M 3341 1997 
L 3341 0 
L 2766 0 
L 2766 531 
Q 2569 213 2275 61 
Q 1981 -91 1556 -91 
Q 1019 -91 701 211 
Q 384 513 384 1019 
Q 384 1609 779 1909 
Q 1175 2209 1959 2209 
L 2766 2209 
L 2766 2266 
Q 2766 2663 2505 2880 
Q 2244 3097 1772 3097 
Q 1472 3097 1187 3025 
Q 903 2953 641 2809 
L 641 3341 
Q 956 3463 1253 3523 
Q 1550 3584 1831 3584 
Q 2591 3584 2966 3190 
Q 3341 2797 3341 1997 
z
" transform="scale(0.015625)"/>
        <path id="DejaVuSans-74" d="M 1172 4494 
L 1172 3500 
L 2356 3500 
L 2356 3053 
L 1172 3053 
L 1172 1153 
Q 1172 725 1289 603 
Q 1406 481 1766 481 
L 2356 481 
L 2356 0 
L 1766 0 
Q 1100 0 847 248 
Q 594 497 594 1153 
L 594 3053 
L 172 3053 
L 172 3500 
L 594 3500 
L 594 4494 
L 1172 4494 
z
" transform="scale(0.015625)"/>
        <path id="DejaVuSans-79" d="M 2059 -325 
Q 1816 -950 1584 -1140 
Q 1353 -1331 966 -1331 
L 506 -1331 
L 506 -850 
L 844 -850 
Q 1081 -850 1212 -737 
Q 1344 -625 1503 -206 
L 1606 56 
L 191 3500 
L 800 3500 
L 1894 763 
L 2988 3500 
L 3597 3500 
L 2059 -325 
z
" transform="scale(0.015625)"/>
       </defs>
       <use xlink:href="#DejaVuSans-54"/>
       <use xlink:href="#DejaVuSans-69" x="57.958984"/>
       <use xlink:href="#DejaVuSans-6d" x="85.742188"/>
       <use xlink:href="#DejaVuSans-69" x="183.154297"/>
       <use xlink:href="#DejaVuSans-6e" x="210.9375"/>
       <use xlink:href="#DejaVuSans-67" x="274.316406"/>
       <use xlink:href="#DejaVuSans-20" x="337.792969"/>
       <use xlink:href="#DejaVuSans-69" x="369.580078"/>
       <use xlink:href="#DejaVuSans-72" x="397.363281"/>
       <use xlink:href="#DejaVuSans-72" x="436.726562"/>
       <use xlink:href="#DejaVuSans-65" x="475.589844"/>
       <use xlink:href="#DejaVuSans-67" x="537.113281"/>
       <use xlink:href="#DejaVuSans-75" x="600.589844"/>
       <use xlink:href="#DejaVuSans-6c" x="663.96875"/>
       <use xlink:href="#DejaVuSans-61" x="691.751953"/>
       <use xlink:href="#DejaVuSans-72" x="753.03125"/>
       <use xlink:href="#DejaVuSans-69" x="794.144531"/>
       <use xlink:href="#DejaVuSans-74" x="821.927734"/>
       <use xlink:href="#DejaVuSans-79" x="861.136719"/>
      </g>
     </g>
    </g>
    <g id="xtick_3">
     <g id="line2d_3">
      <g>
       <use xlink:href="#md1b3cc5d60" x="583.07764" y="297" style="stroke: #000000; stroke-width: 3"/>
      </g>
     </g>
     <g id="text_3">
      <!-- Asynchrony -->
      <g transform="translate(530.514828 317.677188)scale(0.18 -0.18)">
       <defs>
        <path id="DejaVuSans-41" d="M 2188 4044 
L 1331 1722 
L 3047 1722 
L 2188 4044 
z
M 1831 4666 
L 2547 4666 
L 4325 0 
L 3669 0 
L 3244 1197 
L 1141 1197 
L 716 0 
L 50 0 
L 1831 4666 
z
" transform="scale(0.015625)"/>
        <path id="DejaVuSans-63" d="M 3122 3366 
L 3122 2828 
Q 2878 2963 2633 3030 
Q 2388 3097 2138 3097 
Q 1578 3097 1268 2742 
Q 959 2388 959 1747 
Q 959 1106 1268 751 
Q 1578 397 2138 397 
Q 2388 397 2633 464 
Q 2878 531 3122 666 
L 3122 134 
Q 2881 22 2623 -34 
Q 2366 -91 2075 -91 
Q 1284 -91 818 406 
Q 353 903 353 1747 
Q 353 2603 823 3093 
Q 1294 3584 2113 3584 
Q 2378 3584 2631 3529 
Q 2884 3475 3122 3366 
z
" transform="scale(0.015625)"/>
        <path id="DejaVuSans-68" d="M 3513 2113 
L 3513 0 
L 2938 0 
L 2938 2094 
Q 2938 2591 2744 2837 
Q 2550 3084 2163 3084 
Q 1697 3084 1428 2787 
Q 1159 2491 1159 1978 
L 1159 0 
L 581 0 
L 581 4863 
L 1159 4863 
L 1159 2956 
Q 1366 3272 1645 3428 
Q 1925 3584 2291 3584 
Q 2894 3584 3203 3211 
Q 3513 2838 3513 2113 
z
" transform="scale(0.015625)"/>
       </defs>
       <use xlink:href="#DejaVuSans-41"/>
       <use xlink:href="#DejaVuSans-73" x="68.408203"/>
       <use xlink:href="#DejaVuSans-79" x="120.507812"/>
       <use xlink:href="#DejaVuSans-6e" x="179.6875"/>
       <use xlink:href="#DejaVuSans-63" x="243.066406"/>
       <use xlink:href="#DejaVuSans-68" x="298.046875"/>
       <use xlink:href="#DejaVuSans-72" x="361.425781"/>
       <use xlink:href="#DejaVuSans-6f" x="400.289062"/>
       <use xlink:href="#DejaVuSans-6e" x="461.470703"/>
       <use xlink:href="#DejaVuSans-79" x="524.849609"/>
      </g>
     </g>
    </g>
   </g>
   <g id="matplotlib.axis_2">
    <g id="ytick_1">
     <g id="line2d_4">
      <defs>
       <path id="mec646ee77d" d="M 0 0 
L -3.5 0 
" style="stroke: #000000; stroke-width: 3"/>
      </defs>
      <g>
       <use xlink:href="#mec646ee77d" x="128.592" y="283.627615" style="stroke: #000000; stroke-width: 3"/>
      </g>
     </g>
     <g id="text_4">
      <!-- −1.25 -->
      <g transform="translate(66.430438 290.466209)scale(0.18 -0.18)">
       <defs>
        <path id="DejaVuSans-2212" d="M 678 2272 
L 4684 2272 
L 4684 1741 
L 678 1741 
L 678 2272 
z
" transform="scale(0.015625)"/>
        <path id="DejaVuSans-31" d="M 794 531 
L 1825 531 
L 1825 4091 
L 703 3866 
L 703 4441 
L 1819 4666 
L 2450 4666 
L 2450 531 
L 3481 531 
L 3481 0 
L 794 0 
L 794 531 
z
" transform="scale(0.015625)"/>
        <path id="DejaVuSans-2e" d="M 684 794 
L 1344 794 
L 1344 0 
L 684 0 
L 684 794 
z
" transform="scale(0.015625)"/>
        <path id="DejaVuSans-32" d="M 1228 531 
L 3431 531 
L 3431 0 
L 469 0 
L 469 531 
Q 828 903 1448 1529 
Q 2069 2156 2228 2338 
Q 2531 2678 2651 2914 
Q 2772 3150 2772 3378 
Q 2772 3750 2511 3984 
Q 2250 4219 1831 4219 
Q 1534 4219 1204 4116 
Q 875 4013 500 3803 
L 500 4441 
Q 881 4594 1212 4672 
Q 1544 4750 1819 4750 
Q 2544 4750 2975 4387 
Q 3406 4025 3406 3419 
Q 3406 3131 3298 2873 
Q 3191 2616 2906 2266 
Q 2828 2175 2409 1742 
Q 1991 1309 1228 531 
z
" transform="scale(0.015625)"/>
        <path id="DejaVuSans-35" d="M 691 4666 
L 3169 4666 
L 3169 4134 
L 1269 4134 
L 1269 2991 
Q 1406 3038 1543 3061 
Q 1681 3084 1819 3084 
Q 2600 3084 3056 2656 
Q 3513 2228 3513 1497 
Q 3513 744 3044 326 
Q 2575 -91 1722 -91 
Q 1428 -91 1123 -41 
Q 819 9 494 109 
L 494 744 
Q 775 591 1075 516 
Q 1375 441 1709 441 
Q 2250 441 2565 725 
Q 2881 1009 2881 1497 
Q 2881 1984 2565 2268 
Q 2250 2553 1709 2553 
Q 1456 2553 1204 2497 
Q 953 2441 691 2322 
L 691 4666 
z
" transform="scale(0.015625)"/>
       </defs>
       <use xlink:href="#DejaVuSans-2212"/>
       <use xlink:href="#DejaVuSans-31" x="83.789062"/>
       <use xlink:href="#DejaVuSans-2e" x="147.412109"/>
       <use xlink:href="#DejaVuSans-32" x="179.199219"/>
       <use xlink:href="#DejaVuSans-35" x="242.822266"/>
      </g>
     </g>
    </g>
    <g id="ytick_2">
     <g id="line2d_5">
      <g>
       <use xlink:href="#mec646ee77d" x="128.592" y="238.037672" style="stroke: #000000; stroke-width: 3"/>
      </g>
     </g>
     <g id="text_5">
      <!-- −1.00 -->
      <g transform="translate(66.430438 244.876265)scale(0.18 -0.18)">
       <defs>
        <path id="DejaVuSans-30" d="M 2034 4250 
Q 1547 4250 1301 3770 
Q 1056 3291 1056 2328 
Q 1056 1369 1301 889 
Q 1547 409 2034 409 
Q 2525 409 2770 889 
Q 3016 1369 3016 2328 
Q 3016 3291 2770 3770 
Q 2525 4250 2034 4250 
z
M 2034 4750 
Q 2819 4750 3233 4129 
Q 3647 3509 3647 2328 
Q 3647 1150 3233 529 
Q 2819 -91 2034 -91 
Q 1250 -91 836 529 
Q 422 1150 422 2328 
Q 422 3509 836 4129 
Q 1250 4750 2034 4750 
z
" transform="scale(0.015625)"/>
       </defs>
       <use xlink:href="#DejaVuSans-2212"/>
       <use xlink:href="#DejaVuSans-31" x="83.789062"/>
       <use xlink:href="#DejaVuSans-2e" x="147.412109"/>
       <use xlink:href="#DejaVuSans-30" x="179.199219"/>
       <use xlink:href="#DejaVuSans-30" x="242.822266"/>
      </g>
     </g>
    </g>
    <g id="ytick_3">
     <g id="line2d_6">
      <g>
       <use xlink:href="#mec646ee77d" x="128.592" y="192.447728" style="stroke: #000000; stroke-width: 3"/>
      </g>
     </g>
     <g id="text_6">
      <!-- −0.75 -->
      <g transform="translate(66.430438 199.286322)scale(0.18 -0.18)">
       <defs>
        <path id="DejaVuSans-37" d="M 525 4666 
L 3525 4666 
L 3525 4397 
L 1831 0 
L 1172 0 
L 2766 4134 
L 525 4134 
L 525 4666 
z
" transform="scale(0.015625)"/>
       </defs>
       <use xlink:href="#DejaVuSans-2212"/>
       <use xlink:href="#DejaVuSans-30" x="83.789062"/>
       <use xlink:href="#DejaVuSans-2e" x="147.412109"/>
       <use xlink:href="#DejaVuSans-37" x="179.199219"/>
       <use xlink:href="#DejaVuSans-35" x="242.822266"/>
      </g>
     </g>
    </g>
    <g id="ytick_4">
     <g id="line2d_7">
      <g>
       <use xlink:href="#mec646ee77d" x="128.592" y="146.857784" style="stroke: #000000; stroke-width: 3"/>
      </g>
     </g>
     <g id="text_7">
      <!-- −0.50 -->
      <g transform="translate(66.430438 153.696378)scale(0.18 -0.18)">
       <use xlink:href="#DejaVuSans-2212"/>
       <use xlink:href="#DejaVuSans-30" x="83.789062"/>
       <use xlink:href="#DejaVuSans-2e" x="147.412109"/>
       <use xlink:href="#DejaVuSans-35" x="179.199219"/>
       <use xlink:href="#DejaVuSans-30" x="242.822266"/>
      </g>
     </g>
    </g>
    <g id="ytick_5">
     <g id="line2d_8">
      <g>
       <use xlink:href="#mec646ee77d" x="128.592" y="101.267841" style="stroke: #000000; stroke-width: 3"/>
      </g>
     </g>
     <g id="text_8">
      <!-- −0.25 -->
      <g transform="translate(66.430438 108.106434)scale(0.18 -0.18)">
       <use xlink:href="#DejaVuSans-2212"/>
       <use xlink:href="#DejaVuSans-30" x="83.789062"/>
       <use xlink:href="#DejaVuSans-2e" x="147.412109"/>
       <use xlink:href="#DejaVuSans-32" x="179.199219"/>
       <use xlink:href="#DejaVuSans-35" x="242.822266"/>
      </g>
     </g>
    </g>
    <g id="ytick_6">
     <g id="line2d_9">
      <g>
       <use xlink:href="#mec646ee77d" x="128.592" y="55.677897" style="stroke: #000000; stroke-width: 3"/>
      </g>
     </g>
     <g id="text_9">
      <!-- 0.00 -->
      <g transform="translate(81.513875 62.516491)scale(0.18 -0.18)">
       <use xlink:href="#DejaVuSans-30"/>
       <use xlink:href="#DejaVuSans-2e" x="63.623047"/>
       <use xlink:href="#DejaVuSans-30" x="95.410156"/>
       <use xlink:href="#DejaVuSans-30" x="159.033203"/>
      </g>
     </g>
    </g>
   </g>
   <g id="line2d_10">
    <path clip-path="url(#p61387a267c)" style="fill: none; stroke: #424242; stroke-width: 2.7; stroke-linecap: square"/>
   </g>
   <g id="line2d_11">
    <path clip-path="url(#p61387a267c)" style="fill: none; stroke: #424242; stroke-width: 2.7; stroke-linecap: square"/>
   </g>
   <g id="line2d_12">
    <path clip-path="url(#p61387a267c)" style="fill: none; stroke: #424242; stroke-width: 2.7; stroke-linecap: square"/>
   </g>
   <g id="LineCollection_1">
    <path d="M 225.214931 204.644843 
L 225.214931 91.313886 
" clip-path="url(#p61387a267c)" style="fill: none; stroke: #000000; stroke-width: 2"/>
    <path d="M 404.146286 256.418641 
L 404.146286 143.714523 
" clip-path="url(#p61387a267c)" style="fill: none; stroke: #000000; stroke-width: 2"/>
    <path d="M 583.07764 169.774318 
L 583.07764 87.188794 
" clip-path="url(#p61387a267c)" style="fill: none; stroke: #000000; stroke-width: 2"/>
   </g>
   <g id="line2d_13">
    <defs>
     <path id="mbca712a266" d="M 5 0 
L -5 -0 
" style="stroke: #000000; stroke-width: 2"/>
    </defs>
    <g clip-path="url(#p61387a267c)">
     <use xlink:href="#mbca712a266" x="225.214931" y="204.644843" style="stroke: #000000; stroke-width: 2"/>
     <use xlink:href="#mbca712a266" x="404.146286" y="256.418641" style="stroke: #000000; stroke-width: 2"/>
     <use xlink:href="#mbca712a266" x="583.07764" y="169.774318" style="stroke: #000000; stroke-width: 2"/>
    </g>
   </g>
   <g id="line2d_14">
    <g clip-path="url(#p61387a267c)">
     <use xlink:href="#mbca712a266" x="225.214931" y="91.313886" style="stroke: #000000; stroke-width: 2"/>
     <use xlink:href="#mbca712a266" x="404.146286" y="143.714523" style="stroke: #000000; stroke-width: 2"/>
     <use xlink:href="#mbca712a266" x="583.07764" y="87.188794" style="stroke: #000000; stroke-width: 2"/>
    </g>
   </g>
   <g id="line2d_15">
    <path d="M 128.592 55.677897 
L 679.700571 55.677897 
" clip-path="url(#p61387a267c)" style="fill: none; stroke: #000000; stroke-width: 2; stroke-linecap: square"/>
   </g>
   <g id="line2d_16"/>
   <g id="patch_6">
    <path d="M 128.592 297 
L 128.592 36 
" style="fill: none; stroke: #000000; stroke-width: 2; stroke-linejoin: miter; stroke-linecap: square"/>
   </g>
   <g id="patch_7">
    <path d="M 679.700571 297 
L 679.700571 36 
" style="fill: none; stroke: #000000; stroke-width: 2; stroke-linejoin: miter; stroke-linecap: square"/>
   </g>
   <g id="patch_8">
    <path d="M 128.592 297 
L 679.700571 297 
" style="fill: none; stroke: #000000; stroke-width: 2; stroke-linejoin: miter; stroke-linecap: square"/>
   </g>
   <g id="patch_9">
    <path d="M 128.592 36 
L 679.700571 36 
" style="fill: none; stroke: #000000; stroke-width: 2; stroke-linejoin: miter; stroke-linecap: square"/>
   </g>
   <g id="text_10">
    <!-- Performer-reported success -->
    <g transform="translate(255.307098 30)scale(0.216 -0.216)">
     <defs>
      <path id="DejaVuSans-50" d="M 1259 4147 
L 1259 2394 
L 2053 2394 
Q 2494 2394 2734 2622 
Q 2975 2850 2975 3272 
Q 2975 3691 2734 3919 
Q 2494 4147 2053 4147 
L 1259 4147 
z
M 628 4666 
L 2053 4666 
Q 2838 4666 3239 4311 
Q 3641 3956 3641 3272 
Q 3641 2581 3239 2228 
Q 2838 1875 2053 1875 
L 1259 1875 
L 1259 0 
L 628 0 
L 628 4666 
z
" transform="scale(0.015625)"/>
      <path id="DejaVuSans-66" d="M 2375 4863 
L 2375 4384 
L 1825 4384 
Q 1516 4384 1395 4259 
Q 1275 4134 1275 3809 
L 1275 3500 
L 2222 3500 
L 2222 3053 
L 1275 3053 
L 1275 0 
L 697 0 
L 697 3053 
L 147 3053 
L 147 3500 
L 697 3500 
L 697 3744 
Q 697 4328 969 4595 
Q 1241 4863 1831 4863 
L 2375 4863 
z
" transform="scale(0.015625)"/>
      <path id="DejaVuSans-2d" d="M 313 2009 
L 1997 2009 
L 1997 1497 
L 313 1497 
L 313 2009 
z
" transform="scale(0.015625)"/>
      <path id="DejaVuSans-64" d="M 2906 2969 
L 2906 4863 
L 3481 4863 
L 3481 0 
L 2906 0 
L 2906 525 
Q 2725 213 2448 61 
Q 2172 -91 1784 -91 
Q 1150 -91 751 415 
Q 353 922 353 1747 
Q 353 2572 751 3078 
Q 1150 3584 1784 3584 
Q 2172 3584 2448 3432 
Q 2725 3281 2906 2969 
z
M 947 1747 
Q 947 1113 1208 752 
Q 1469 391 1925 391 
Q 2381 391 2643 752 
Q 2906 1113 2906 1747 
Q 2906 2381 2643 2742 
Q 2381 3103 1925 3103 
Q 1469 3103 1208 2742 
Q 947 2381 947 1747 
z
" transform="scale(0.015625)"/>
     </defs>
     <use xlink:href="#DejaVuSans-50"/>
     <use xlink:href="#DejaVuSans-65" x="56.677734"/>
     <use xlink:href="#DejaVuSans-72" x="118.201172"/>
     <use xlink:href="#DejaVuSans-66" x="159.314453"/>
     <use xlink:href="#DejaVuSans-6f" x="194.519531"/>
     <use xlink:href="#DejaVuSans-72" x="255.701172"/>
     <use xlink:href="#DejaVuSans-6d" x="295.064453"/>
     <use xlink:href="#DejaVuSans-65" x="392.476562"/>
     <use xlink:href="#DejaVuSans-72" x="454"/>
     <use xlink:href="#DejaVuSans-2d" x="488.738281"/>
     <use xlink:href="#DejaVuSans-72" x="524.822266"/>
     <use xlink:href="#DejaVuSans-65" x="563.685547"/>
     <use xlink:href="#DejaVuSans-70" x="625.208984"/>
     <use xlink:href="#DejaVuSans-6f" x="688.685547"/>
     <use xlink:href="#DejaVuSans-72" x="749.867188"/>
     <use xlink:href="#DejaVuSans-74" x="790.980469"/>
     <use xlink:href="#DejaVuSans-65" x="830.189453"/>
     <use xlink:href="#DejaVuSans-64" x="891.712891"/>
     <use xlink:href="#DejaVuSans-20" x="955.189453"/>
     <use xlink:href="#DejaVuSans-73" x="986.976562"/>
     <use xlink:href="#DejaVuSans-75" x="1039.076172"/>
     <use xlink:href="#DejaVuSans-63" x="1102.455078"/>
     <use xlink:href="#DejaVuSans-63" x="1157.435547"/>
     <use xlink:href="#DejaVuSans-65" x="1212.416016"/>
     <use xlink:href="#DejaVuSans-73" x="1273.939453"/>
     <use xlink:href="#DejaVuSans-73" x="1326.039062"/>
    </g>
   </g>
  </g>
  <g id="axes_2">
   <g id="patch_10">
    <path d="M 734.811429 297 
L 1285.92 297 
L 1285.92 36 
L 734.811429 36 
z
" style="fill: #ffffff"/>
   </g>
   <g id="patch_11">
    <path d="M 759.861818 55.677897 
L 903.006902 55.677897 
L 903.006902 83.697602 
L 759.861818 83.697602 
z
" clip-path="url(#pddecf9fa29)" style="fill: #6fb9a2; opacity: 0.8; stroke: #000000; stroke-width: 2; stroke-linejoin: miter"/>
   </g>
   <g id="patch_12">
    <path d="M 938.793173 55.677897 
L 1081.938256 55.677897 
L 1081.938256 139.212937 
L 938.793173 139.212937 
z
" clip-path="url(#pddecf9fa29)" style="fill: #ed9471; opacity: 0.8; stroke: #000000; stroke-width: 2; stroke-linejoin: miter"/>
   </g>
   <g id="patch_13">
    <path d="M 1117.724527 55.677897 
L 1260.86961 55.677897 
L 1260.86961 258.950627 
L 1117.724527 258.950627 
z
" clip-path="url(#pddecf9fa29)" style="fill: #93a2c5; opacity: 0.8; stroke: #000000; stroke-width: 2; stroke-linejoin: miter"/>
   </g>
   <g id="matplotlib.axis_3">
    <g id="xtick_4">
     <g id="line2d_17">
      <g>
       <use xlink:href="#md1b3cc5d60" x="831.43436" y="297" style="stroke: #000000; stroke-width: 3"/>
      </g>
     </g>
     <g id="text_11">
      <!-- |Tempo slope| -->
      <g transform="translate(769.071391 317.755938)scale(0.18 -0.18)">
       <use xlink:href="#DejaVuSans-7c"/>
       <use xlink:href="#DejaVuSans-54" x="33.691406"/>
       <use xlink:href="#DejaVuSans-65" x="77.775391"/>
       <use xlink:href="#DejaVuSans-6d" x="139.298828"/>
       <use xlink:href="#DejaVuSans-70" x="236.710938"/>
       <use xlink:href="#DejaVuSans-6f" x="300.1875"/>
       <use xlink:href="#DejaVuSans-20" x="361.369141"/>
       <use xlink:href="#DejaVuSans-73" x="393.15625"/>
       <use xlink:href="#DejaVuSans-6c" x="445.255859"/>
       <use xlink:href="#DejaVuSans-6f" x="473.039062"/>
       <use xlink:href="#DejaVuSans-70" x="534.220703"/>
       <use xlink:href="#DejaVuSans-65" x="597.697266"/>
       <use xlink:href="#DejaVuSans-7c" x="659.220703"/>
      </g>
     </g>
    </g>
    <g id="xtick_5">
     <g id="line2d_18">
      <g>
       <use xlink:href="#md1b3cc5d60" x="1010.365714" y="297" style="stroke: #000000; stroke-width: 3"/>
      </g>
     </g>
     <g id="text_12">
      <!-- Timing irregularity -->
      <g transform="translate(927.538996 317.677188)scale(0.18 -0.18)">
       <use xlink:href="#DejaVuSans-54"/>
       <use xlink:href="#DejaVuSans-69" x="57.958984"/>
       <use xlink:href="#DejaVuSans-6d" x="85.742188"/>
       <use xlink:href="#DejaVuSans-69" x="183.154297"/>
       <use xlink:href="#DejaVuSans-6e" x="210.9375"/>
       <use xlink:href="#DejaVuSans-67" x="274.316406"/>
       <use xlink:href="#DejaVuSans-20" x="337.792969"/>
       <use xlink:href="#DejaVuSans-69" x="369.580078"/>
       <use xlink:href="#DejaVuSans-72" x="397.363281"/>
       <use xlink:href="#DejaVuSans-72" x="436.726562"/>
       <use xlink:href="#DejaVuSans-65" x="475.589844"/>
       <use xlink:href="#DejaVuSans-67" x="537.113281"/>
       <use xlink:href="#DejaVuSans-75" x="600.589844"/>
       <use xlink:href="#DejaVuSans-6c" x="663.96875"/>
       <use xlink:href="#DejaVuSans-61" x="691.751953"/>
       <use xlink:href="#DejaVuSans-72" x="753.03125"/>
       <use xlink:href="#DejaVuSans-69" x="794.144531"/>
       <use xlink:href="#DejaVuSans-74" x="821.927734"/>
       <use xlink:href="#DejaVuSans-79" x="861.136719"/>
      </g>
     </g>
    </g>
    <g id="xtick_6">
     <g id="line2d_19">
      <g>
       <use xlink:href="#md1b3cc5d60" x="1189.297069" y="297" style="stroke: #000000; stroke-width: 3"/>
      </g>
     </g>
     <g id="text_13">
      <!-- Asynchrony -->
      <g transform="translate(1136.734256 317.677188)scale(0.18 -0.18)">
       <use xlink:href="#DejaVuSans-41"/>
       <use xlink:href="#DejaVuSans-73" x="68.408203"/>
       <use xlink:href="#DejaVuSans-79" x="120.507812"/>
       <use xlink:href="#DejaVuSans-6e" x="179.6875"/>
       <use xlink:href="#DejaVuSans-63" x="243.066406"/>
       <use xlink:href="#DejaVuSans-68" x="298.046875"/>
       <use xlink:href="#DejaVuSans-72" x="361.425781"/>
       <use xlink:href="#DejaVuSans-6f" x="400.289062"/>
       <use xlink:href="#DejaVuSans-6e" x="461.470703"/>
       <use xlink:href="#DejaVuSans-79" x="524.849609"/>
      </g>
     </g>
    </g>
   </g>
   <g id="matplotlib.axis_4">
    <g id="ytick_7">
     <g id="line2d_20">
      <g>
       <use xlink:href="#mec646ee77d" x="734.811429" y="283.627615" style="stroke: #000000; stroke-width: 3"/>
      </g>
     </g>
    </g>
    <g id="ytick_8">
     <g id="line2d_21">
      <g>
       <use xlink:href="#mec646ee77d" x="734.811429" y="238.037672" style="stroke: #000000; stroke-width: 3"/>
      </g>
     </g>
    </g>
    <g id="ytick_9">
     <g id="line2d_22">
      <g>
       <use xlink:href="#mec646ee77d" x="734.811429" y="192.447728" style="stroke: #000000; stroke-width: 3"/>
      </g>
     </g>
    </g>
    <g id="ytick_10">
     <g id="line2d_23">
      <g>
       <use xlink:href="#mec646ee77d" x="734.811429" y="146.857784" style="stroke: #000000; stroke-width: 3"/>
      </g>
     </g>
    </g>
    <g id="ytick_11">
     <g id="line2d_24">
      <g>
       <use xlink:href="#mec646ee77d" x="734.811429" y="101.267841" style="stroke: #000000; stroke-width: 3"/>
      </g>
     </g>
    </g>
    <g id="ytick_12">
     <g id="line2d_25">
      <g>
       <use xlink:href="#mec646ee77d" x="734.811429" y="55.677897" style="stroke: #000000; stroke-width: 3"/>
      </g>
     </g>
    </g>
   </g>
   <g id="line2d_26">
    <path clip-path="url(#pddecf9fa29)" style="fill: none; stroke: #424242; stroke-width: 2.7; stroke-linecap: square"/>
   </g>
   <g id="line2d_27">
    <path clip-path="url(#pddecf9fa29)" style="fill: none; stroke: #424242; stroke-width: 2.7; stroke-linecap: square"/>
   </g>
   <g id="line2d_28">
    <path clip-path="url(#pddecf9fa29)" style="fill: none; stroke: #424242; stroke-width: 2.7; stroke-linecap: square"/>
   </g>
   <g id="LineCollection_2">
    <path d="M 831.43436 119.531568 
L 831.43436 47.863636 
" clip-path="url(#pddecf9fa29)" style="fill: none; stroke: #000000; stroke-width: 2"/>
    <path d="M 1010.365714 174.765079 
L 1010.365714 103.660795 
" clip-path="url(#pddecf9fa29)" style="fill: none; stroke: #000000; stroke-width: 2"/>
    <path d="M 1189.297069 285.136364 
L 1189.297069 232.76489 
" clip-path="url(#pddecf9fa29)" style="fill: none; stroke: #000000; stroke-width: 2"/>
   </g>
   <g id="line2d_29">
    <g clip-path="url(#pddecf9fa29)">
     <use xlink:href="#mbca712a266" x="831.43436" y="119.531568" style="stroke: #000000; stroke-width: 2"/>
     <use xlink:href="#mbca712a266" x="1010.365714" y="174.765079" style="stroke: #000000; stroke-width: 2"/>
     <use xlink:href="#mbca712a266" x="1189.297069" y="285.136364" style="stroke: #000000; stroke-width: 2"/>
    </g>
   </g>
   <g id="line2d_30">
    <g clip-path="url(#pddecf9fa29)">
     <use xlink:href="#mbca712a266" x="831.43436" y="47.863636" style="stroke: #000000; stroke-width: 2"/>
     <use xlink:href="#mbca712a266" x="1010.365714" y="103.660795" style="stroke: #000000; stroke-width: 2"/>
     <use xlink:href="#mbca712a266" x="1189.297069" y="232.76489" style="stroke: #000000; stroke-width: 2"/>
    </g>
   </g>
   <g id="line2d_31">
    <path d="M 734.811429 55.677897 
L 1285.92 55.677897 
" clip-path="url(#pddecf9fa29)" style="fill: none; stroke: #000000; stroke-width: 2; stroke-linecap: square"/>
   </g>
   <g id="line2d_32"/>
   <g id="patch_14">
    <path d="M 734.811429 297 
L 734.811429 36 
" style="fill: none; stroke: #000000; stroke-width: 2; stroke-linejoin: miter; stroke-linecap: square"/>
   </g>
   <g id="patch_15">
    <path d="M 1285.92 297 
L 1285.92 36 
" style="fill: none; stroke: #000000; stroke-width: 2; stroke-linejoin: miter; stroke-linecap: square"/>
   </g>
   <g id="patch_16">
    <path d="M 734.811429 297 
L 1285.92 297 
" style="fill: none; stroke: #000000; stroke-width: 2; stroke-linejoin: miter; stroke-linecap: square"/>
   </g>
   <g id="patch_17">
    <path d="M 734.811429 36 
L 1285.92 36 
" style="fill: none; stroke: #000000; stroke-width: 2; stroke-linejoin: miter; stroke-linecap: square"/>
   </g>
   <g id="text_14">
    <!-- Listener-reported success -->
    <g transform="translate(871.545214 30)scale(0.216 -0.216)">
     <defs>
      <path id="DejaVuSans-4c" d="M 628 4666 
L 1259 4666 
L 1259 531 
L 3531 531 
L 3531 0 
L 628 0 
L 628 4666 
z
" transform="scale(0.015625)"/>
     </defs>
     <use xlink:href="#DejaVuSans-4c"/>
     <use xlink:href="#DejaVuSans-69" x="55.712891"/>
     <use xlink:href="#DejaVuSans-73" x="83.496094"/>
     <use xlink:href="#DejaVuSans-74" x="135.595703"/>
     <use xlink:href="#DejaVuSans-65" x="174.804688"/>
     <use xlink:href="#DejaVuSans-6e" x="236.328125"/>
     <use xlink:href="#DejaVuSans-65" x="299.707031"/>
     <use xlink:href="#DejaVuSans-72" x="361.230469"/>
     <use xlink:href="#DejaVuSans-2d" x="395.96875"/>
     <use xlink:href="#DejaVuSans-72" x="432.052734"/>
     <use xlink:href="#DejaVuSans-65" x="470.916016"/>
     <use xlink:href="#DejaVuSans-70" x="532.439453"/>
     <use xlink:href="#DejaVuSans-6f" x="595.916016"/>
     <use xlink:href="#DejaVuSans-72" x="657.097656"/>
     <use xlink:href="#DejaVuSans-74" x="698.210938"/>
     <use xlink:href="#DejaVuSans-65" x="737.419922"/>
     <use xlink:href="#DejaVuSans-64" x="798.943359"/>
     <use xlink:href="#DejaVuSans-20" x="862.419922"/>
     <use xlink:href="#DejaVuSans-73" x="894.207031"/>
     <use xlink:href="#DejaVuSans-75" x="946.306641"/>
     <use xlink:href="#DejaVuSans-63" x="1009.685547"/>
     <use xlink:href="#DejaVuSans-63" x="1064.666016"/>
     <use xlink:href="#DejaVuSans-65" x="1119.646484"/>
     <use xlink:href="#DejaVuSans-73" x="1181.169922"/>
     <use xlink:href="#DejaVuSans-73" x="1233.269531"/>
    </g>
   </g>
  </g>
  <g id="text_15">
   <!-- Standardized coefficient ($\beta$) -->
   <g transform="translate(43.704 330.228)rotate(-90)scale(0.216 -0.216)">
    <defs>
     <path id="DejaVuSans-53" d="M 3425 4513 
L 3425 3897 
Q 3066 4069 2747 4153 
Q 2428 4238 2131 4238 
Q 1616 4238 1336 4038 
Q 1056 3838 1056 3469 
Q 1056 3159 1242 3001 
Q 1428 2844 1947 2747 
L 2328 2669 
Q 3034 2534 3370 2195 
Q 3706 1856 3706 1288 
Q 3706 609 3251 259 
Q 2797 -91 1919 -91 
Q 1588 -91 1214 -16 
Q 841 59 441 206 
L 441 856 
Q 825 641 1194 531 
Q 1563 422 1919 422 
Q 2459 422 2753 634 
Q 3047 847 3047 1241 
Q 3047 1584 2836 1778 
Q 2625 1972 2144 2069 
L 1759 2144 
Q 1053 2284 737 2584 
Q 422 2884 422 3419 
Q 422 4038 858 4394 
Q 1294 4750 2059 4750 
Q 2388 4750 2728 4690 
Q 3069 4631 3425 4513 
z
" transform="scale(0.015625)"/>
     <path id="DejaVuSans-7a" d="M 353 3500 
L 3084 3500 
L 3084 2975 
L 922 459 
L 3084 459 
L 3084 0 
L 275 0 
L 275 525 
L 2438 3041 
L 353 3041 
L 353 3500 
z
" transform="scale(0.015625)"/>
     <path id="DejaVuSans-28" d="M 1984 4856 
Q 1566 4138 1362 3434 
Q 1159 2731 1159 2009 
Q 1159 1288 1364 580 
Q 1569 -128 1984 -844 
L 1484 -844 
Q 1016 -109 783 600 
Q 550 1309 550 2009 
Q 550 2706 781 3412 
Q 1013 4119 1484 4856 
L 1984 4856 
z
" transform="scale(0.015625)"/>
     <path id="DejaVuSans-Oblique-3b2" d="M 872 216 
L 572 -1331 
L -6 -1331 
L 928 3478 
Q 1206 4903 2538 4903 
Q 3888 4903 3659 3700 
Q 3503 2844 2894 2531 
Q 3713 2250 3553 1416 
Q 3272 -69 1759 -66 
Q 1097 -63 872 216 
z
M 1019 966 
Q 1259 422 1875 425 
Q 2775 425 2966 1406 
Q 3138 2288 1675 2219 
L 1778 2750 
Q 2909 2731 3106 3750 
Q 3241 4438 2509 4434 
Q 1691 4434 1503 3459 
L 1019 966 
z
" transform="scale(0.015625)"/>
     <path id="DejaVuSans-29" d="M 513 4856 
L 1013 4856 
Q 1481 4119 1714 3412 
Q 1947 2706 1947 2009 
Q 1947 1309 1714 600 
Q 1481 -109 1013 -844 
L 513 -844 
Q 928 -128 1133 580 
Q 1338 1288 1338 2009 
Q 1338 2731 1133 3434 
Q 928 4138 513 4856 
z
" transform="scale(0.015625)"/>
    </defs>
    <use xlink:href="#DejaVuSans-53" transform="translate(0 0.390625)"/>
    <use xlink:href="#DejaVuSans-74" transform="translate(63.476562 0.390625)"/>
    <use xlink:href="#DejaVuSans-61" transform="translate(102.685547 0.390625)"/>
    <use xlink:href="#DejaVuSans-6e" transform="translate(163.964844 0.390625)"/>
    <use xlink:href="#DejaVuSans-64" transform="translate(227.34375 0.390625)"/>
    <use xlink:href="#DejaVuSans-61" transform="translate(290.820312 0.390625)"/>
    <use xlink:href="#DejaVuSans-72" transform="translate(352.099609 0.390625)"/>
    <use xlink:href="#DejaVuSans-64" transform="translate(393.212891 0.390625)"/>
    <use xlink:href="#DejaVuSans-69" transform="translate(456.689453 0.390625)"/>
    <use xlink:href="#DejaVuSans-7a" transform="translate(484.472656 0.390625)"/>
    <use xlink:href="#DejaVuSans-65" transform="translate(536.962891 0.390625)"/>
    <use xlink:href="#DejaVuSans-64" transform="translate(598.486328 0.390625)"/>
    <use xlink:href="#DejaVuSans-20" transform="translate(661.962891 0.390625)"/>
    <use xlink:href="#DejaVuSans-63" transform="translate(693.75 0.390625)"/>
    <use xlink:href="#DejaVuSans-6f" transform="translate(748.730469 0.390625)"/>
    <use xlink:href="#DejaVuSans-65" transform="translate(809.912109 0.390625)"/>
    <use xlink:href="#DejaVuSans-66" transform="translate(871.435547 0.390625)"/>
    <use xlink:href="#DejaVuSans-66" transform="translate(906.640625 0.390625)"/>
    <use xlink:href="#DejaVuSans-69" transform="translate(941.845703 0.390625)"/>
    <use xlink:href="#DejaVuSans-63" transform="translate(969.628906 0.390625)"/>
    <use xlink:href="#DejaVuSans-69" transform="translate(1024.609375 0.390625)"/>
    <use xlink:href="#DejaVuSans-65" transform="translate(1052.392578 0.390625)"/>
    <use xlink:href="#DejaVuSans-6e" transform="translate(1113.916016 0.390625)"/>
    <use xlink:href="#DejaVuSans-74" transform="translate(1177.294922 0.390625)"/>
    <use xlink:href="#DejaVuSans-20" transform="translate(1216.503906 0.390625)"/>
    <use xlink:href="#DejaVuSans-28" transform="translate(1248.291016 0.390625)"/>
    <use xlink:href="#DejaVuSans-Oblique-3b2" transform="translate(1287.304688 0.390625)"/>
    <use xlink:href="#DejaVuSans-29" transform="translate(1351.123047 0.390625)"/>
   </g>
  </g>
  <g id="text_16">
   <!-- Variable -->
   <g transform="translate(633.070125 351.907875)scale(0.216 -0.216)">
    <defs>
     <path id="DejaVuSans-56" d="M 1831 0 
L 50 4666 
L 709 4666 
L 2188 738 
L 3669 4666 
L 4325 4666 
L 2547 0 
L 1831 0 
z
" transform="scale(0.015625)"/>
     <path id="DejaVuSans-62" d="M 3116 1747 
Q 3116 2381 2855 2742 
Q 2594 3103 2138 3103 
Q 1681 3103 1420 2742 
Q 1159 2381 1159 1747 
Q 1159 1113 1420 752 
Q 1681 391 2138 391 
Q 2594 391 2855 752 
Q 3116 1113 3116 1747 
z
M 1159 2969 
Q 1341 3281 1617 3432 
Q 1894 3584 2278 3584 
Q 2916 3584 3314 3078 
Q 3713 2572 3713 1747 
Q 3713 922 3314 415 
Q 2916 -91 2278 -91 
Q 1894 -91 1617 61 
Q 1341 213 1159 525 
L 1159 0 
L 581 0 
L 581 4863 
L 1159 4863 
L 1159 2969 
z
" transform="scale(0.015625)"/>
    </defs>
    <use xlink:href="#DejaVuSans-56"/>
    <use xlink:href="#DejaVuSans-61" x="60.658203"/>
    <use xlink:href="#DejaVuSans-72" x="121.9375"/>
    <use xlink:href="#DejaVuSans-69" x="163.050781"/>
    <use xlink:href="#DejaVuSans-61" x="190.833984"/>
    <use xlink:href="#DejaVuSans-62" x="252.113281"/>
    <use xlink:href="#DejaVuSans-6c" x="315.589844"/>
    <use xlink:href="#DejaVuSans-65" x="343.373047"/>
   </g>
  </g>
 </g>
 <defs>
  <clipPath id="p61387a267c">
   <rect x="128.592" y="36" width="551.108571" height="261"/>
  </clipPath>
  <clipPath id="pddecf9fa29">
   <rect x="734.811429" y="36" width="551.108571" height="261"/>
  </clipPath>
 </defs>
</svg>
