<?xml version="1.0" encoding="utf-8" standalone="no"?>
<!DOCTYPE svg PUBLIC "-//W3C//DTD SVG 1.1//EN"
  "http://www.w3.org/Graphics/SVG/1.1/DTD/svg11.dtd">
<svg xmlns:xlink="http://www.w3.org/1999/xlink" width="1353.6pt" height="432pt" viewBox="0 0 1353.6 432" xmlns="http://www.w3.org/2000/svg" version="1.1">
 <metadata>
  <rdf:RDF xmlns:dc="http://purl.org/dc/elements/1.1/" xmlns:cc="http://creativecommons.org/ns#" xmlns:rdf="http://www.w3.org/1999/02/22-rdf-syntax-ns#">
   <cc:Work>
    <dc:type rdf:resource="http://purl.org/dc/dcmitype/StillImage"/>
    <dc:date>2025-02-07T13:01:38.149591</dc:date>
    <dc:format>image/svg+xml</dc:format>
    <dc:creator>
     <cc:Agent>
      <dc:title>Matplotlib v3.10.0, https://matplotlib.org/</dc:title>
     </cc:Agent>
    </dc:creator>
   </cc:Work>
  </rdf:RDF>
 </metadata>
 <defs>
  <style type="text/css">*{stroke-linejoin: round; stroke-linecap: butt}</style>
 </defs>
 <g id="figure_1">
  <g id="patch_1">
   <path d="M 0 432 
L 1353.6 432 
L 1353.6 0 
L 0 0 
z
" style="fill: #ffffff"/>
  </g>
  <g id="axes_1">
   <g id="patch_2">
    <path d="M 76.43 367 
L 661.365 367 
L 661.365 42 
L 76.43 42 
z
" style="fill: #ffffff"/>
   </g>
   <g id="matplotlib.axis_1">
    <g id="xtick_1">
     <g id="line2d_1">
      <defs>
       <path id="m0154e1a451" d="M 0 0 
L 0 3.5 
" style="stroke: #000000; stroke-width: 3"/>
      </defs>
      <g>
       <use xlink:href="#m0154e1a451" x="178.983539" y="367" style="stroke: #000000; stroke-width: 3"/>
      </g>
     </g>
     <g id="text_1">
      <!-- LR -->
      <g transform="translate(167.715258 387.677187) scale(0.18 -0.18)">
       <defs>
        <path id="DejaVuSans-4c" d="M 628 4666 
L 1259 4666 
L 1259 531 
L 3531 531 
L 3531 0 
L 628 0 
L 628 4666 
z
" transform="scale(0.015625)"/>
        <path id="DejaVuSans-52" d="M 2841 2188 
Q 3044 2119 3236 1894 
Q 3428 1669 3622 1275 
L 4263 0 
L 3584 0 
L 2988 1197 
Q 2756 1666 2539 1819 
Q 2322 1972 1947 1972 
L 1259 1972 
L 1259 0 
L 628 0 
L 628 4666 
L 2053 4666 
Q 2853 4666 3247 4331 
Q 3641 3997 3641 3322 
Q 3641 2881 3436 2590 
Q 3231 2300 2841 2188 
z
M 1259 4147 
L 1259 2491 
L 2053 2491 
Q 2509 2491 2742 2702 
Q 2975 2913 2975 3322 
Q 2975 3731 2742 3939 
Q 2509 4147 2053 4147 
L 1259 4147 
z
" transform="scale(0.015625)"/>
       </defs>
       <use xlink:href="#DejaVuSans-4c"/>
       <use xlink:href="#DejaVuSans-52" transform="translate(55.712891 0)"/>
      </g>
     </g>
    </g>
    <g id="xtick_2">
     <g id="line2d_2">
      <g>
       <use xlink:href="#m0154e1a451" x="368.8975" y="367" style="stroke: #000000; stroke-width: 3"/>
      </g>
     </g>
     <g id="text_2">
      <!-- SVM -->
      <g transform="translate(349.262031 387.677187) scale(0.18 -0.18)">
       <defs>
        <path id="DejaVuSans-53" d="M 3425 4513 
L 3425 3897 
Q 3066 4069 2747 4153 
Q 2428 4238 2131 4238 
Q 1616 4238 1336 4038 
Q 1056 3838 1056 3469 
Q 1056 3159 1242 3001 
Q 1428 2844 1947 2747 
L 2328 2669 
Q 3034 2534 3370 2195 
Q 3706 1856 3706 1288 
Q 3706 609 3251 259 
Q 2797 -91 1919 -91 
Q 1588 -91 1214 -16 
Q 841 59 441 206 
L 441 856 
Q 825 641 1194 531 
Q 1563 422 1919 422 
Q 2459 422 2753 634 
Q 3047 847 3047 1241 
Q 3047 1584 2836 1778 
Q 2625 1972 2144 2069 
L 1759 2144 
Q 1053 2284 737 2584 
Q 422 2884 422 3419 
Q 422 4038 858 4394 
Q 1294 4750 2059 4750 
Q 2388 4750 2728 4690 
Q 3069 4631 3425 4513 
z
" transform="scale(0.015625)"/>
        <path id="DejaVuSans-56" d="M 1831 0 
L 50 4666 
L 709 4666 
L 2188 738 
L 3669 4666 
L 4325 4666 
L 2547 0 
L 1831 0 
z
" transform="scale(0.015625)"/>
        <path id="DejaVuSans-4d" d="M 628 4666 
L 1569 4666 
L 2759 1491 
L 3956 4666 
L 4897 4666 
L 4897 0 
L 4281 0 
L 4281 4097 
L 3078 897 
L 2444 897 
L 1241 4097 
L 1241 0 
L 628 0 
L 628 4666 
z
" transform="scale(0.015625)"/>
       </defs>
       <use xlink:href="#DejaVuSans-53"/>
       <use xlink:href="#DejaVuSans-56" transform="translate(63.476562 0)"/>
       <use xlink:href="#DejaVuSans-4d" transform="translate(131.884766 0)"/>
      </g>
     </g>
    </g>
    <g id="xtick_3">
     <g id="line2d_3">
      <g>
       <use xlink:href="#m0154e1a451" x="558.811461" y="367" style="stroke: #000000; stroke-width: 3"/>
      </g>
     </g>
     <g id="text_3">
      <!-- RF -->
      <g transform="translate(547.381461 387.677187) scale(0.18 -0.18)">
       <defs>
        <path id="DejaVuSans-46" d="M 628 4666 
L 3309 4666 
L 3309 4134 
L 1259 4134 
L 1259 2759 
L 3109 2759 
L 3109 2228 
L 1259 2228 
L 1259 0 
L 628 0 
L 628 4666 
z
" transform="scale(0.015625)"/>
       </defs>
       <use xlink:href="#DejaVuSans-52"/>
       <use xlink:href="#DejaVuSans-46" transform="translate(69.482422 0)"/>
      </g>
     </g>
    </g>
    <g id="text_4">
     <!-- Model type -->
     <g transform="translate(318.906719 409.097812) scale(0.18 -0.18)">
      <defs>
       <path id="DejaVuSans-6f" d="M 1959 3097 
Q 1497 3097 1228 2736 
Q 959 2375 959 1747 
Q 959 1119 1226 758 
Q 1494 397 1959 397 
Q 2419 397 2687 759 
Q 2956 1122 2956 1747 
Q 2956 2369 2687 2733 
Q 2419 3097 1959 3097 
z
M 1959 3584 
Q 2709 3584 3137 3096 
Q 3566 2609 3566 1747 
Q 3566 888 3137 398 
Q 2709 -91 1959 -91 
Q 1206 -91 779 398 
Q 353 888 353 1747 
Q 353 2609 779 3096 
Q 1206 3584 1959 3584 
z
" transform="scale(0.015625)"/>
       <path id="DejaVuSans-64" d="M 2906 2969 
L 2906 4863 
L 3481 4863 
L 3481 0 
L 2906 0 
L 2906 525 
Q 2725 213 2448 61 
Q 2172 -91 1784 -91 
Q 1150 -91 751 415 
Q 353 922 353 1747 
Q 353 2572 751 3078 
Q 1150 3584 1784 3584 
Q 2172 3584 2448 3432 
Q 2725 3281 2906 2969 
z
M 947 1747 
Q 947 1113 1208 752 
Q 1469 391 1925 391 
Q 2381 391 2643 752 
Q 2906 1113 2906 1747 
Q 2906 2381 2643 2742 
Q 2381 3103 1925 3103 
Q 1469 3103 1208 2742 
Q 947 2381 947 1747 
z
" transform="scale(0.015625)"/>
       <path id="DejaVuSans-65" d="M 3597 1894 
L 3597 1613 
L 953 1613 
Q 991 1019 1311 708 
Q 1631 397 2203 397 
Q 2534 397 2845 478 
Q 3156 559 3463 722 
L 3463 178 
Q 3153 47 2828 -22 
Q 2503 -91 2169 -91 
Q 1331 -91 842 396 
Q 353 884 353 1716 
Q 353 2575 817 3079 
Q 1281 3584 2069 3584 
Q 2775 3584 3186 3129 
Q 3597 2675 3597 1894 
z
M 3022 2063 
Q 3016 2534 2758 2815 
Q 2500 3097 2075 3097 
Q 1594 3097 1305 2825 
Q 1016 2553 972 2059 
L 3022 2063 
z
" transform="scale(0.015625)"/>
       <path id="DejaVuSans-6c" d="M 603 4863 
L 1178 4863 
L 1178 0 
L 603 0 
L 603 4863 
z
" transform="scale(0.015625)"/>
       <path id="DejaVuSans-20" transform="scale(0.015625)"/>
       <path id="DejaVuSans-74" d="M 1172 4494 
L 1172 3500 
L 2356 3500 
L 2356 3053 
L 1172 3053 
L 1172 1153 
Q 1172 725 1289 603 
Q 1406 481 1766 481 
L 2356 481 
L 2356 0 
L 1766 0 
Q 1100 0 847 248 
Q 594 497 594 1153 
L 594 3053 
L 172 3053 
L 172 3500 
L 594 3500 
L 594 4494 
L 1172 4494 
z
" transform="scale(0.015625)"/>
       <path id="DejaVuSans-79" d="M 2059 -325 
Q 1816 -950 1584 -1140 
Q 1353 -1331 966 -1331 
L 506 -1331 
L 506 -850 
L 844 -850 
Q 1081 -850 1212 -737 
Q 1344 -625 1503 -206 
L 1606 56 
L 191 3500 
L 800 3500 
L 1894 763 
L 2988 3500 
L 3597 3500 
L 2059 -325 
z
" transform="scale(0.015625)"/>
       <path id="DejaVuSans-70" d="M 1159 525 
L 1159 -1331 
L 581 -1331 
L 581 3500 
L 1159 3500 
L 1159 2969 
Q 1341 3281 1617 3432 
Q 1894 3584 2278 3584 
Q 2916 3584 3314 3078 
Q 3713 2572 3713 1747 
Q 3713 922 3314 415 
Q 2916 -91 2278 -91 
Q 1894 -91 1617 61 
Q 1341 213 1159 525 
z
M 3116 1747 
Q 3116 2381 2855 2742 
Q 2594 3103 2138 3103 
Q 1681 3103 1420 2742 
Q 1159 2381 1159 1747 
Q 1159 1113 1420 752 
Q 1681 391 2138 391 
Q 2594 391 2855 752 
Q 3116 1113 3116 1747 
z
" transform="scale(0.015625)"/>
      </defs>
      <use xlink:href="#DejaVuSans-4d"/>
      <use xlink:href="#DejaVuSans-6f" transform="translate(86.279297 0)"/>
      <use xlink:href="#DejaVuSans-64" transform="translate(147.460938 0)"/>
      <use xlink:href="#DejaVuSans-65" transform="translate(210.9375 0)"/>
      <use xlink:href="#DejaVuSans-6c" transform="translate(272.460938 0)"/>
      <use xlink:href="#DejaVuSans-20" transform="translate(300.244141 0)"/>
      <use xlink:href="#DejaVuSans-74" transform="translate(332.03125 0)"/>
      <use xlink:href="#DejaVuSans-79" transform="translate(371.240234 0)"/>
      <use xlink:href="#DejaVuSans-70" transform="translate(430.419922 0)"/>
      <use xlink:href="#DejaVuSans-65" transform="translate(493.896484 0)"/>
     </g>
    </g>
   </g>
   <g id="matplotlib.axis_2">
    <g id="ytick_1">
     <g id="line2d_4">
      <path d="M 76.43 367 
L 661.365 367 
" clip-path="url(#p70739942f2)" style="fill: none; stroke: #000000; stroke-opacity: 0.4; stroke-linecap: square"/>
     </g>
     <g id="line2d_5">
      <defs>
       <path id="m5ee1082097" d="M 0 0 
L -3.5 0 
" style="stroke: #000000; stroke-width: 3"/>
      </defs>
      <g>
       <use xlink:href="#m5ee1082097" x="76.43" y="367" style="stroke: #000000; stroke-width: 3"/>
      </g>
     </g>
     <g id="text_5">
      <!-- 0.0 -->
      <g transform="translate(40.804375 373.838594) scale(0.18 -0.18)">
       <defs>
        <path id="DejaVuSans-30" d="M 2034 4250 
Q 1547 4250 1301 3770 
Q 1056 3291 1056 2328 
Q 1056 1369 1301 889 
Q 1547 409 2034 409 
Q 2525 409 2770 889 
Q 3016 1369 3016 2328 
Q 3016 3291 2770 3770 
Q 2525 4250 2034 4250 
z
M 2034 4750 
Q 2819 4750 3233 4129 
Q 3647 3509 3647 2328 
Q 3647 1150 3233 529 
Q 2819 -91 2034 -91 
Q 1250 -91 836 529 
Q 422 1150 422 2328 
Q 422 3509 836 4129 
Q 1250 4750 2034 4750 
z
" transform="scale(0.015625)"/>
        <path id="DejaVuSans-2e" d="M 684 794 
L 1344 794 
L 1344 0 
L 684 0 
L 684 794 
z
" transform="scale(0.015625)"/>
       </defs>
       <use xlink:href="#DejaVuSans-30"/>
       <use xlink:href="#DejaVuSans-2e" transform="translate(63.623047 0)"/>
       <use xlink:href="#DejaVuSans-30" transform="translate(95.410156 0)"/>
      </g>
     </g>
    </g>
    <g id="ytick_2">
     <g id="line2d_6">
      <path d="M 76.43 318.481512 
L 661.365 318.481512 
" clip-path="url(#p70739942f2)" style="fill: none; stroke: #000000; stroke-opacity: 0.4; stroke-linecap: square"/>
     </g>
     <g id="line2d_7">
      <g>
       <use xlink:href="#m5ee1082097" x="76.43" y="318.481512" style="stroke: #000000; stroke-width: 3"/>
      </g>
     </g>
     <g id="text_6">
      <!-- 0.1 -->
      <g transform="translate(40.804375 325.320106) scale(0.18 -0.18)">
       <defs>
        <path id="DejaVuSans-31" d="M 794 531 
L 1825 531 
L 1825 4091 
L 703 3866 
L 703 4441 
L 1819 4666 
L 2450 4666 
L 2450 531 
L 3481 531 
L 3481 0 
L 794 0 
L 794 531 
z
" transform="scale(0.015625)"/>
       </defs>
       <use xlink:href="#DejaVuSans-30"/>
       <use xlink:href="#DejaVuSans-2e" transform="translate(63.623047 0)"/>
       <use xlink:href="#DejaVuSans-31" transform="translate(95.410156 0)"/>
      </g>
     </g>
    </g>
    <g id="ytick_3">
     <g id="line2d_8">
      <path d="M 76.43 269.963024 
L 661.365 269.963024 
" clip-path="url(#p70739942f2)" style="fill: none; stroke: #000000; stroke-opacity: 0.4; stroke-linecap: square"/>
     </g>
     <g id="line2d_9">
      <g>
       <use xlink:href="#m5ee1082097" x="76.43" y="269.963024" style="stroke: #000000; stroke-width: 3"/>
      </g>
     </g>
     <g id="text_7">
      <!-- 0.2 -->
      <g transform="translate(40.804375 276.801618) scale(0.18 -0.18)">
       <defs>
        <path id="DejaVuSans-32" d="M 1228 531 
L 3431 531 
L 3431 0 
L 469 0 
L 469 531 
Q 828 903 1448 1529 
Q 2069 2156 2228 2338 
Q 2531 2678 2651 2914 
Q 2772 3150 2772 3378 
Q 2772 3750 2511 3984 
Q 2250 4219 1831 4219 
Q 1534 4219 1204 4116 
Q 875 4013 500 3803 
L 500 4441 
Q 881 4594 1212 4672 
Q 1544 4750 1819 4750 
Q 2544 4750 2975 4387 
Q 3406 4025 3406 3419 
Q 3406 3131 3298 2873 
Q 3191 2616 2906 2266 
Q 2828 2175 2409 1742 
Q 1991 1309 1228 531 
z
" transform="scale(0.015625)"/>
       </defs>
       <use xlink:href="#DejaVuSans-30"/>
       <use xlink:href="#DejaVuSans-2e" transform="translate(63.623047 0)"/>
       <use xlink:href="#DejaVuSans-32" transform="translate(95.410156 0)"/>
      </g>
     </g>
    </g>
    <g id="ytick_4">
     <g id="line2d_10">
      <path d="M 76.43 221.444536 
L 661.365 221.444536 
" clip-path="url(#p70739942f2)" style="fill: none; stroke: #000000; stroke-opacity: 0.4; stroke-linecap: square"/>
     </g>
     <g id="line2d_11">
      <g>
       <use xlink:href="#m5ee1082097" x="76.43" y="221.444536" style="stroke: #000000; stroke-width: 3"/>
      </g>
     </g>
     <g id="text_8">
      <!-- 0.3 -->
      <g transform="translate(40.804375 228.28313) scale(0.18 -0.18)">
       <defs>
        <path id="DejaVuSans-33" d="M 2597 2516 
Q 3050 2419 3304 2112 
Q 3559 1806 3559 1356 
Q 3559 666 3084 287 
Q 2609 -91 1734 -91 
Q 1441 -91 1130 -33 
Q 819 25 488 141 
L 488 750 
Q 750 597 1062 519 
Q 1375 441 1716 441 
Q 2309 441 2620 675 
Q 2931 909 2931 1356 
Q 2931 1769 2642 2001 
Q 2353 2234 1838 2234 
L 1294 2234 
L 1294 2753 
L 1863 2753 
Q 2328 2753 2575 2939 
Q 2822 3125 2822 3475 
Q 2822 3834 2567 4026 
Q 2313 4219 1838 4219 
Q 1578 4219 1281 4162 
Q 984 4106 628 3988 
L 628 4550 
Q 988 4650 1302 4700 
Q 1616 4750 1894 4750 
Q 2613 4750 3031 4423 
Q 3450 4097 3450 3541 
Q 3450 3153 3228 2886 
Q 3006 2619 2597 2516 
z
" transform="scale(0.015625)"/>
       </defs>
       <use xlink:href="#DejaVuSans-30"/>
       <use xlink:href="#DejaVuSans-2e" transform="translate(63.623047 0)"/>
       <use xlink:href="#DejaVuSans-33" transform="translate(95.410156 0)"/>
      </g>
     </g>
    </g>
    <g id="ytick_5">
     <g id="line2d_12">
      <path d="M 76.43 172.926048 
L 661.365 172.926048 
" clip-path="url(#p70739942f2)" style="fill: none; stroke: #000000; stroke-opacity: 0.4; stroke-linecap: square"/>
     </g>
     <g id="line2d_13">
      <g>
       <use xlink:href="#m5ee1082097" x="76.43" y="172.926048" style="stroke: #000000; stroke-width: 3"/>
      </g>
     </g>
     <g id="text_9">
      <!-- 0.4 -->
      <g transform="translate(40.804375 179.764642) scale(0.18 -0.18)">
       <defs>
        <path id="DejaVuSans-34" d="M 2419 4116 
L 825 1625 
L 2419 1625 
L 2419 4116 
z
M 2253 4666 
L 3047 4666 
L 3047 1625 
L 3713 1625 
L 3713 1100 
L 3047 1100 
L 3047 0 
L 2419 0 
L 2419 1100 
L 313 1100 
L 313 1709 
L 2253 4666 
z
" transform="scale(0.015625)"/>
       </defs>
       <use xlink:href="#DejaVuSans-30"/>
       <use xlink:href="#DejaVuSans-2e" transform="translate(63.623047 0)"/>
       <use xlink:href="#DejaVuSans-34" transform="translate(95.410156 0)"/>
      </g>
     </g>
    </g>
    <g id="ytick_6">
     <g id="line2d_14">
      <path d="M 76.43 124.40756 
L 661.365 124.40756 
" clip-path="url(#p70739942f2)" style="fill: none; stroke: #000000; stroke-opacity: 0.4; stroke-linecap: square"/>
     </g>
     <g id="line2d_15">
      <g>
       <use xlink:href="#m5ee1082097" x="76.43" y="124.40756" style="stroke: #000000; stroke-width: 3"/>
      </g>
     </g>
     <g id="text_10">
      <!-- 0.5 -->
      <g transform="translate(40.804375 131.246154) scale(0.18 -0.18)">
       <defs>
        <path id="DejaVuSans-35" d="M 691 4666 
L 3169 4666 
L 3169 4134 
L 1269 4134 
L 1269 2991 
Q 1406 3038 1543 3061 
Q 1681 3084 1819 3084 
Q 2600 3084 3056 2656 
Q 3513 2228 3513 1497 
Q 3513 744 3044 326 
Q 2575 -91 1722 -91 
Q 1428 -91 1123 -41 
Q 819 9 494 109 
L 494 744 
Q 775 591 1075 516 
Q 1375 441 1709 441 
Q 2250 441 2565 725 
Q 2881 1009 2881 1497 
Q 2881 1984 2565 2268 
Q 2250 2553 1709 2553 
Q 1456 2553 1204 2497 
Q 953 2441 691 2322 
L 691 4666 
z
" transform="scale(0.015625)"/>
       </defs>
       <use xlink:href="#DejaVuSans-30"/>
       <use xlink:href="#DejaVuSans-2e" transform="translate(63.623047 0)"/>
       <use xlink:href="#DejaVuSans-35" transform="translate(95.410156 0)"/>
      </g>
     </g>
    </g>
    <g id="ytick_7">
     <g id="line2d_16">
      <path d="M 76.43 75.889072 
L 661.365 75.889072 
" clip-path="url(#p70739942f2)" style="fill: none; stroke: #000000; stroke-opacity: 0.4; stroke-linecap: square"/>
     </g>
     <g id="line2d_17">
      <g>
       <use xlink:href="#m5ee1082097" x="76.43" y="75.889072" style="stroke: #000000; stroke-width: 3"/>
      </g>
     </g>
     <g id="text_11">
      <!-- 0.6 -->
      <g transform="translate(40.804375 82.727666) scale(0.18 -0.18)">
       <defs>
        <path id="DejaVuSans-36" d="M 2113 2584 
Q 1688 2584 1439 2293 
Q 1191 2003 1191 1497 
Q 1191 994 1439 701 
Q 1688 409 2113 409 
Q 2538 409 2786 701 
Q 3034 994 3034 1497 
Q 3034 2003 2786 2293 
Q 2538 2584 2113 2584 
z
M 3366 4563 
L 3366 3988 
Q 3128 4100 2886 4159 
Q 2644 4219 2406 4219 
Q 1781 4219 1451 3797 
Q 1122 3375 1075 2522 
Q 1259 2794 1537 2939 
Q 1816 3084 2150 3084 
Q 2853 3084 3261 2657 
Q 3669 2231 3669 1497 
Q 3669 778 3244 343 
Q 2819 -91 2113 -91 
Q 1303 -91 875 529 
Q 447 1150 447 2328 
Q 447 3434 972 4092 
Q 1497 4750 2381 4750 
Q 2619 4750 2861 4703 
Q 3103 4656 3366 4563 
z
" transform="scale(0.015625)"/>
       </defs>
       <use xlink:href="#DejaVuSans-30"/>
       <use xlink:href="#DejaVuSans-2e" transform="translate(63.623047 0)"/>
       <use xlink:href="#DejaVuSans-36" transform="translate(95.410156 0)"/>
      </g>
     </g>
    </g>
    <g id="text_12">
     <!-- Mean feature importance -->
     <g transform="translate(33.060938 318.652344) rotate(-90) scale(0.18 -0.18)">
      <defs>
       <path id="DejaVuSans-61" d="M 2194 1759 
Q 1497 1759 1228 1600 
Q 959 1441 959 1056 
Q 959 750 1161 570 
Q 1363 391 1709 391 
Q 2188 391 2477 730 
Q 2766 1069 2766 1631 
L 2766 1759 
L 2194 1759 
z
M 3341 1997 
L 3341 0 
L 2766 0 
L 2766 531 
Q 2569 213 2275 61 
Q 1981 -91 1556 -91 
Q 1019 -91 701 211 
Q 384 513 384 1019 
Q 384 1609 779 1909 
Q 1175 2209 1959 2209 
L 2766 2209 
L 2766 2266 
Q 2766 2663 2505 2880 
Q 2244 3097 1772 3097 
Q 1472 3097 1187 3025 
Q 903 2953 641 2809 
L 641 3341 
Q 956 3463 1253 3523 
Q 1550 3584 1831 3584 
Q 2591 3584 2966 3190 
Q 3341 2797 3341 1997 
z
" transform="scale(0.015625)"/>
       <path id="DejaVuSans-6e" d="M 3513 2113 
L 3513 0 
L 2938 0 
L 2938 2094 
Q 2938 2591 2744 2837 
Q 2550 3084 2163 3084 
Q 1697 3084 1428 2787 
Q 1159 2491 1159 1978 
L 1159 0 
L 581 0 
L 581 3500 
L 1159 3500 
L 1159 2956 
Q 1366 3272 1645 3428 
Q 1925 3584 2291 3584 
Q 2894 3584 3203 3211 
Q 3513 2838 3513 2113 
z
" transform="scale(0.015625)"/>
       <path id="DejaVuSans-66" d="M 2375 4863 
L 2375 4384 
L 1825 4384 
Q 1516 4384 1395 4259 
Q 1275 4134 1275 3809 
L 1275 3500 
L 2222 3500 
L 2222 3053 
L 1275 3053 
L 1275 0 
L 697 0 
L 697 3053 
L 147 3053 
L 147 3500 
L 697 3500 
L 697 3744 
Q 697 4328 969 4595 
Q 1241 4863 1831 4863 
L 2375 4863 
z
" transform="scale(0.015625)"/>
       <path id="DejaVuSans-75" d="M 544 1381 
L 544 3500 
L 1119 3500 
L 1119 1403 
Q 1119 906 1312 657 
Q 1506 409 1894 409 
Q 2359 409 2629 706 
Q 2900 1003 2900 1516 
L 2900 3500 
L 3475 3500 
L 3475 0 
L 2900 0 
L 2900 538 
Q 2691 219 2414 64 
Q 2138 -91 1772 -91 
Q 1169 -91 856 284 
Q 544 659 544 1381 
z
M 1991 3584 
L 1991 3584 
z
" transform="scale(0.015625)"/>
       <path id="DejaVuSans-72" d="M 2631 2963 
Q 2534 3019 2420 3045 
Q 2306 3072 2169 3072 
Q 1681 3072 1420 2755 
Q 1159 2438 1159 1844 
L 1159 0 
L 581 0 
L 581 3500 
L 1159 3500 
L 1159 2956 
Q 1341 3275 1631 3429 
Q 1922 3584 2338 3584 
Q 2397 3584 2469 3576 
Q 2541 3569 2628 3553 
L 2631 2963 
z
" transform="scale(0.015625)"/>
       <path id="DejaVuSans-69" d="M 603 3500 
L 1178 3500 
L 1178 0 
L 603 0 
L 603 3500 
z
M 603 4863 
L 1178 4863 
L 1178 4134 
L 603 4134 
L 603 4863 
z
" transform="scale(0.015625)"/>
       <path id="DejaVuSans-6d" d="M 3328 2828 
Q 3544 3216 3844 3400 
Q 4144 3584 4550 3584 
Q 5097 3584 5394 3201 
Q 5691 2819 5691 2113 
L 5691 0 
L 5113 0 
L 5113 2094 
Q 5113 2597 4934 2840 
Q 4756 3084 4391 3084 
Q 3944 3084 3684 2787 
Q 3425 2491 3425 1978 
L 3425 0 
L 2847 0 
L 2847 2094 
Q 2847 2600 2669 2842 
Q 2491 3084 2119 3084 
Q 1678 3084 1418 2786 
Q 1159 2488 1159 1978 
L 1159 0 
L 581 0 
L 581 3500 
L 1159 3500 
L 1159 2956 
Q 1356 3278 1631 3431 
Q 1906 3584 2284 3584 
Q 2666 3584 2933 3390 
Q 3200 3197 3328 2828 
z
" transform="scale(0.015625)"/>
       <path id="DejaVuSans-63" d="M 3122 3366 
L 3122 2828 
Q 2878 2963 2633 3030 
Q 2388 3097 2138 3097 
Q 1578 3097 1268 2742 
Q 959 2388 959 1747 
Q 959 1106 1268 751 
Q 1578 397 2138 397 
Q 2388 397 2633 464 
Q 2878 531 3122 666 
L 3122 134 
Q 2881 22 2623 -34 
Q 2366 -91 2075 -91 
Q 1284 -91 818 406 
Q 353 903 353 1747 
Q 353 2603 823 3093 
Q 1294 3584 2113 3584 
Q 2378 3584 2631 3529 
Q 2884 3475 3122 3366 
z
" transform="scale(0.015625)"/>
      </defs>
      <use xlink:href="#DejaVuSans-4d"/>
      <use xlink:href="#DejaVuSans-65" transform="translate(86.279297 0)"/>
      <use xlink:href="#DejaVuSans-61" transform="translate(147.802734 0)"/>
      <use xlink:href="#DejaVuSans-6e" transform="translate(209.082031 0)"/>
      <use xlink:href="#DejaVuSans-20" transform="translate(272.460938 0)"/>
      <use xlink:href="#DejaVuSans-66" transform="translate(304.248047 0)"/>
      <use xlink:href="#DejaVuSans-65" transform="translate(339.453125 0)"/>
      <use xlink:href="#DejaVuSans-61" transform="translate(400.976562 0)"/>
      <use xlink:href="#DejaVuSans-74" transform="translate(462.255859 0)"/>
      <use xlink:href="#DejaVuSans-75" transform="translate(501.464844 0)"/>
      <use xlink:href="#DejaVuSans-72" transform="translate(564.84375 0)"/>
      <use xlink:href="#DejaVuSans-65" transform="translate(603.707031 0)"/>
      <use xlink:href="#DejaVuSans-20" transform="translate(665.230469 0)"/>
      <use xlink:href="#DejaVuSans-69" transform="translate(697.017578 0)"/>
      <use xlink:href="#DejaVuSans-6d" transform="translate(724.800781 0)"/>
      <use xlink:href="#DejaVuSans-70" transform="translate(822.212891 0)"/>
      <use xlink:href="#DejaVuSans-6f" transform="translate(885.689453 0)"/>
      <use xlink:href="#DejaVuSans-72" transform="translate(946.871094 0)"/>
      <use xlink:href="#DejaVuSans-74" transform="translate(987.984375 0)"/>
      <use xlink:href="#DejaVuSans-61" transform="translate(1027.193359 0)"/>
      <use xlink:href="#DejaVuSans-6e" transform="translate(1088.472656 0)"/>
      <use xlink:href="#DejaVuSans-63" transform="translate(1151.851562 0)"/>
      <use xlink:href="#DejaVuSans-65" transform="translate(1206.832031 0)"/>
     </g>
    </g>
   </g>
   <g id="line2d_18">
    <path clip-path="url(#p70739942f2)" style="fill: none; stroke: #424242; stroke-width: 2.25; stroke-linecap: square"/>
   </g>
   <g id="line2d_19">
    <path clip-path="url(#p70739942f2)" style="fill: none; stroke: #424242; stroke-width: 2.25; stroke-linecap: square"/>
   </g>
   <g id="line2d_20">
    <path clip-path="url(#p70739942f2)" style="fill: none; stroke: #424242; stroke-width: 2.25; stroke-linecap: square"/>
   </g>
   <g id="line2d_21">
    <path clip-path="url(#p70739942f2)" style="fill: none; stroke: #424242; stroke-width: 2.25; stroke-linecap: square"/>
   </g>
   <g id="line2d_22">
    <path clip-path="url(#p70739942f2)" style="fill: none; stroke: #424242; stroke-width: 2.25; stroke-linecap: square"/>
   </g>
   <g id="line2d_23">
    <path clip-path="url(#p70739942f2)" style="fill: none; stroke: #424242; stroke-width: 2.25; stroke-linecap: square"/>
   </g>
   <g id="patch_3">
    <path d="M 76.43 367 
L 76.43 42 
" style="fill: none; stroke: #000000; stroke-width: 2; stroke-linejoin: miter; stroke-linecap: square"/>
   </g>
   <g id="patch_4">
    <path d="M 661.365 367 
L 661.365 42 
" style="fill: none; stroke: #000000; stroke-width: 2; stroke-linejoin: miter; stroke-linecap: square"/>
   </g>
   <g id="patch_5">
    <path d="M 76.43 367 
L 661.365 367 
" style="fill: none; stroke: #000000; stroke-width: 2; stroke-linejoin: miter; stroke-linecap: square"/>
   </g>
   <g id="patch_6">
    <path d="M 76.43 42 
L 661.365 42 
" style="fill: none; stroke: #000000; stroke-width: 2; stroke-linejoin: miter; stroke-linecap: square"/>
   </g>
   <g id="text_13">
    <!-- All features -->
    <g transform="translate(307.464063 36) scale(0.216 -0.216)">
     <defs>
      <path id="DejaVuSans-41" d="M 2188 4044 
L 1331 1722 
L 3047 1722 
L 2188 4044 
z
M 1831 4666 
L 2547 4666 
L 4325 0 
L 3669 0 
L 3244 1197 
L 1141 1197 
L 716 0 
L 50 0 
L 1831 4666 
z
" transform="scale(0.015625)"/>
      <path id="DejaVuSans-73" d="M 2834 3397 
L 2834 2853 
Q 2591 2978 2328 3040 
Q 2066 3103 1784 3103 
Q 1356 3103 1142 2972 
Q 928 2841 928 2578 
Q 928 2378 1081 2264 
Q 1234 2150 1697 2047 
L 1894 2003 
Q 2506 1872 2764 1633 
Q 3022 1394 3022 966 
Q 3022 478 2636 193 
Q 2250 -91 1575 -91 
Q 1294 -91 989 -36 
Q 684 19 347 128 
L 347 722 
Q 666 556 975 473 
Q 1284 391 1588 391 
Q 1994 391 2212 530 
Q 2431 669 2431 922 
Q 2431 1156 2273 1281 
Q 2116 1406 1581 1522 
L 1381 1569 
Q 847 1681 609 1914 
Q 372 2147 372 2553 
Q 372 3047 722 3315 
Q 1072 3584 1716 3584 
Q 2034 3584 2315 3537 
Q 2597 3491 2834 3397 
z
" transform="scale(0.015625)"/>
     </defs>
     <use xlink:href="#DejaVuSans-41"/>
     <use xlink:href="#DejaVuSans-6c" transform="translate(68.408203 0)"/>
     <use xlink:href="#DejaVuSans-6c" transform="translate(96.191406 0)"/>
     <use xlink:href="#DejaVuSans-20" transform="translate(123.974609 0)"/>
     <use xlink:href="#DejaVuSans-66" transform="translate(155.761719 0)"/>
     <use xlink:href="#DejaVuSans-65" transform="translate(190.966797 0)"/>
     <use xlink:href="#DejaVuSans-61" transform="translate(252.490234 0)"/>
     <use xlink:href="#DejaVuSans-74" transform="translate(313.769531 0)"/>
     <use xlink:href="#DejaVuSans-75" transform="translate(352.978516 0)"/>
     <use xlink:href="#DejaVuSans-72" transform="translate(416.357422 0)"/>
     <use xlink:href="#DejaVuSans-65" transform="translate(455.220703 0)"/>
     <use xlink:href="#DejaVuSans-73" transform="translate(516.744141 0)"/>
    </g>
   </g>
   <g id="legend_1">
    <g id="patch_7">
     <path d="M 508.905 135.661875 
L 648.765 135.661875 
Q 652.365 135.661875 652.365 132.061875 
L 652.365 54.6 
Q 652.365 51 648.765 51 
L 508.905 51 
Q 505.305 51 505.305 54.6 
L 505.305 132.061875 
Q 505.305 135.661875 508.905 135.661875 
z
" style="fill: #ffffff; stroke: #000000; stroke-linejoin: miter"/>
    </g>
    <g id="text_14">
     <!-- Feature -->
     <g transform="translate(544.833281 71.877187) scale(0.18 -0.18)">
      <use xlink:href="#DejaVuSans-46"/>
      <use xlink:href="#DejaVuSans-65" transform="translate(52.019531 0)"/>
      <use xlink:href="#DejaVuSans-61" transform="translate(113.542969 0)"/>
      <use xlink:href="#DejaVuSans-74" transform="translate(174.822266 0)"/>
      <use xlink:href="#DejaVuSans-75" transform="translate(214.03125 0)"/>
      <use xlink:href="#DejaVuSans-72" transform="translate(277.410156 0)"/>
      <use xlink:href="#DejaVuSans-65" transform="translate(316.273438 0)"/>
     </g>
    </g>
    <g id="patch_8">
     <path d="M 512.505 98.297812 
L 548.505 98.297812 
L 548.505 85.697812 
L 512.505 85.697812 
z
" style="fill: #20df20; stroke: #000000; stroke-width: 2; stroke-linejoin: miter"/>
    </g>
    <g id="text_15">
     <!-- Harmony -->
     <g transform="translate(562.905 98.297812) scale(0.18 -0.18)">
      <defs>
       <path id="DejaVuSans-48" d="M 628 4666 
L 1259 4666 
L 1259 2753 
L 3553 2753 
L 3553 4666 
L 4184 4666 
L 4184 0 
L 3553 0 
L 3553 2222 
L 1259 2222 
L 1259 0 
L 628 0 
L 628 4666 
z
" transform="scale(0.015625)"/>
      </defs>
      <use xlink:href="#DejaVuSans-48"/>
      <use xlink:href="#DejaVuSans-61" transform="translate(75.195312 0)"/>
      <use xlink:href="#DejaVuSans-72" transform="translate(136.474609 0)"/>
      <use xlink:href="#DejaVuSans-6d" transform="translate(175.837891 0)"/>
      <use xlink:href="#DejaVuSans-6f" transform="translate(273.25 0)"/>
      <use xlink:href="#DejaVuSans-6e" transform="translate(334.431641 0)"/>
      <use xlink:href="#DejaVuSans-79" transform="translate(397.810547 0)"/>
     </g>
    </g>
    <g id="patch_9">
     <path d="M 512.505 124.718437 
L 548.505 124.718437 
L 548.505 112.118437 
L 512.505 112.118437 
z
" style="fill: #df2020; stroke: #000000; stroke-width: 2; stroke-linejoin: miter"/>
    </g>
    <g id="text_16">
     <!-- Melody -->
     <g transform="translate(562.905 124.718437) scale(0.18 -0.18)">
      <use xlink:href="#DejaVuSans-4d"/>
      <use xlink:href="#DejaVuSans-65" transform="translate(86.279297 0)"/>
      <use xlink:href="#DejaVuSans-6c" transform="translate(147.802734 0)"/>
      <use xlink:href="#DejaVuSans-6f" transform="translate(175.585938 0)"/>
      <use xlink:href="#DejaVuSans-64" transform="translate(236.767578 0)"/>
      <use xlink:href="#DejaVuSans-79" transform="translate(300.244141 0)"/>
     </g>
    </g>
   </g>
   <g id="patch_10">
    <path d="M 103.017955 367 
L 178.983539 367 
L 178.983539 293.326313 
L 103.017955 293.326313 
z
" clip-path="url(#p70739942f2)" style="fill: #20df20; stroke: #000000; stroke-width: 2; stroke-linejoin: miter"/>
   </g>
   <g id="patch_11">
    <path d="M 292.931916 367 
L 368.8975 367 
L 368.8975 292.433335 
L 292.931916 292.433335 
z
" clip-path="url(#p70739942f2)" style="fill: #20df20; stroke: #000000; stroke-width: 2; stroke-linejoin: miter"/>
   </g>
   <g id="patch_12">
    <path d="M 482.845877 367 
L 558.811461 367 
L 558.811461 324.214433 
L 482.845877 324.214433 
z
" clip-path="url(#p70739942f2)" style="fill: #20df20; stroke: #000000; stroke-width: 2; stroke-linejoin: miter"/>
   </g>
   <g id="patch_13">
    <path d="M 178.983539 367 
L 254.949123 367 
L 254.949123 171.619323 
L 178.983539 171.619323 
z
" clip-path="url(#p70739942f2)" style="fill: #df2020; stroke: #000000; stroke-width: 2; stroke-linejoin: miter"/>
   </g>
   <g id="patch_14">
    <path d="M 368.8975 367 
L 444.863084 367 
L 444.863084 176.087191 
L 368.8975 176.087191 
z
" clip-path="url(#p70739942f2)" style="fill: #df2020; stroke: #000000; stroke-width: 2; stroke-linejoin: miter"/>
   </g>
   <g id="patch_15">
    <path d="M 558.811461 367 
L 634.777045 367 
L 634.777045 253.380417 
L 558.811461 253.380417 
z
" clip-path="url(#p70739942f2)" style="fill: #df2020; stroke: #000000; stroke-width: 2; stroke-linejoin: miter"/>
   </g>
   <g id="patch_16">
    <path d="M 178.983539 367 
L 178.983539 367 
L 178.983539 367 
L 178.983539 367 
z
" clip-path="url(#p70739942f2)" style="fill: #20df20; stroke: #000000; stroke-width: 2; stroke-linejoin: miter"/>
   </g>
   <g id="patch_17">
    <path d="M 178.983539 367 
L 178.983539 367 
L 178.983539 367 
L 178.983539 367 
z
" clip-path="url(#p70739942f2)" style="fill: #df2020; stroke: #000000; stroke-width: 2; stroke-linejoin: miter"/>
   </g>
   <g id="LineCollection_1">
    <path d="M 141.000747 301.967156 
L 141.000747 284.68547 
" clip-path="url(#p70739942f2)" style="fill: none; stroke: #000000; stroke-width: 2"/>
    <path d="M 216.966331 182.587853 
L 216.966331 160.650794 
" clip-path="url(#p70739942f2)" style="fill: none; stroke: #000000; stroke-width: 2"/>
    <path d="M 330.914708 299.664927 
L 330.914708 285.201743 
" clip-path="url(#p70739942f2)" style="fill: none; stroke: #000000; stroke-width: 2"/>
    <path d="M 406.880292 184.696167 
L 406.880292 167.478216 
" clip-path="url(#p70739942f2)" style="fill: none; stroke: #000000; stroke-width: 2"/>
    <path d="M 520.828669 333.065547 
L 520.828669 315.363318 
" clip-path="url(#p70739942f2)" style="fill: none; stroke: #000000; stroke-width: 2"/>
    <path d="M 596.794253 263.047596 
L 596.794253 243.713238 
" clip-path="url(#p70739942f2)" style="fill: none; stroke: #000000; stroke-width: 2"/>
   </g>
   <g id="line2d_24">
    <defs>
     <path id="m0689f4fb67" d="M 8 0 
L -8 -0 
" style="stroke: #000000"/>
    </defs>
    <g clip-path="url(#p70739942f2)">
     <use xlink:href="#m0689f4fb67" x="141.000747" y="301.967156" style="stroke: #000000"/>
     <use xlink:href="#m0689f4fb67" x="216.966331" y="182.587853" style="stroke: #000000"/>
     <use xlink:href="#m0689f4fb67" x="330.914708" y="299.664927" style="stroke: #000000"/>
     <use xlink:href="#m0689f4fb67" x="406.880292" y="184.696167" style="stroke: #000000"/>
     <use xlink:href="#m0689f4fb67" x="520.828669" y="333.065547" style="stroke: #000000"/>
     <use xlink:href="#m0689f4fb67" x="596.794253" y="263.047596" style="stroke: #000000"/>
    </g>
   </g>
   <g id="line2d_25">
    <g clip-path="url(#p70739942f2)">
     <use xlink:href="#m0689f4fb67" x="141.000747" y="284.68547" style="stroke: #000000"/>
     <use xlink:href="#m0689f4fb67" x="216.966331" y="160.650794" style="stroke: #000000"/>
     <use xlink:href="#m0689f4fb67" x="330.914708" y="285.201743" style="stroke: #000000"/>
     <use xlink:href="#m0689f4fb67" x="406.880292" y="167.478216" style="stroke: #000000"/>
     <use xlink:href="#m0689f4fb67" x="520.828669" y="315.363318" style="stroke: #000000"/>
     <use xlink:href="#m0689f4fb67" x="596.794253" y="243.713238" style="stroke: #000000"/>
    </g>
   </g>
   <g id="line2d_26"/>
  </g>
  <g id="axes_2">
   <g id="patch_18">
    <path d="M 749.225 367 
L 1334.16 367 
L 1334.16 42 
L 749.225 42 
z
" style="fill: #ffffff"/>
   </g>
   <g id="matplotlib.axis_3">
    <g id="xtick_4">
     <g id="line2d_27">
      <g>
       <use xlink:href="#m0154e1a451" x="851.778539" y="367" style="stroke: #000000; stroke-width: 3"/>
      </g>
     </g>
     <g id="text_17">
      <!-- LR -->
      <g transform="translate(840.510258 387.677187) scale(0.18 -0.18)">
       <use xlink:href="#DejaVuSans-4c"/>
       <use xlink:href="#DejaVuSans-52" transform="translate(55.712891 0)"/>
      </g>
     </g>
    </g>
    <g id="xtick_5">
     <g id="line2d_28">
      <g>
       <use xlink:href="#m0154e1a451" x="1041.6925" y="367" style="stroke: #000000; stroke-width: 3"/>
      </g>
     </g>
     <g id="text_18">
      <!-- SVM -->
      <g transform="translate(1022.057031 387.677187) scale(0.18 -0.18)">
       <use xlink:href="#DejaVuSans-53"/>
       <use xlink:href="#DejaVuSans-56" transform="translate(63.476562 0)"/>
       <use xlink:href="#DejaVuSans-4d" transform="translate(131.884766 0)"/>
      </g>
     </g>
    </g>
    <g id="xtick_6">
     <g id="line2d_29">
      <g>
       <use xlink:href="#m0154e1a451" x="1231.606461" y="367" style="stroke: #000000; stroke-width: 3"/>
      </g>
     </g>
     <g id="text_19">
      <!-- RF -->
      <g transform="translate(1220.176461 387.677187) scale(0.18 -0.18)">
       <use xlink:href="#DejaVuSans-52"/>
       <use xlink:href="#DejaVuSans-46" transform="translate(69.482422 0)"/>
      </g>
     </g>
    </g>
    <g id="text_20">
     <!-- Model type -->
     <g transform="translate(991.701719 409.097812) scale(0.18 -0.18)">
      <use xlink:href="#DejaVuSans-4d"/>
      <use xlink:href="#DejaVuSans-6f" transform="translate(86.279297 0)"/>
      <use xlink:href="#DejaVuSans-64" transform="translate(147.460938 0)"/>
      <use xlink:href="#DejaVuSans-65" transform="translate(210.9375 0)"/>
      <use xlink:href="#DejaVuSans-6c" transform="translate(272.460938 0)"/>
      <use xlink:href="#DejaVuSans-20" transform="translate(300.244141 0)"/>
      <use xlink:href="#DejaVuSans-74" transform="translate(332.03125 0)"/>
      <use xlink:href="#DejaVuSans-79" transform="translate(371.240234 0)"/>
      <use xlink:href="#DejaVuSans-70" transform="translate(430.419922 0)"/>
      <use xlink:href="#DejaVuSans-65" transform="translate(493.896484 0)"/>
     </g>
    </g>
   </g>
   <g id="matplotlib.axis_4">
    <g id="ytick_8">
     <g id="line2d_30">
      <path d="M 749.225 367 
L 1334.16 367 
" clip-path="url(#pdf40931447)" style="fill: none; stroke: #000000; stroke-opacity: 0.4; stroke-linecap: square"/>
     </g>
     <g id="line2d_31">
      <g>
       <use xlink:href="#m5ee1082097" x="749.225" y="367" style="stroke: #000000; stroke-width: 3"/>
      </g>
     </g>
     <g id="text_21">
      <!-- 0.00 -->
      <g transform="translate(702.146875 373.838594) scale(0.18 -0.18)">
       <use xlink:href="#DejaVuSans-30"/>
       <use xlink:href="#DejaVuSans-2e" transform="translate(63.623047 0)"/>
       <use xlink:href="#DejaVuSans-30" transform="translate(95.410156 0)"/>
       <use xlink:href="#DejaVuSans-30" transform="translate(159.033203 0)"/>
      </g>
     </g>
    </g>
    <g id="ytick_9">
     <g id="line2d_32">
      <path d="M 749.225 316.610908 
L 1334.16 316.610908 
" clip-path="url(#pdf40931447)" style="fill: none; stroke: #000000; stroke-opacity: 0.4; stroke-linecap: square"/>
     </g>
     <g id="line2d_33">
      <g>
       <use xlink:href="#m5ee1082097" x="749.225" y="316.610908" style="stroke: #000000; stroke-width: 3"/>
      </g>
     </g>
     <g id="text_22">
      <!-- 0.02 -->
      <g transform="translate(702.146875 323.449501) scale(0.18 -0.18)">
       <use xlink:href="#DejaVuSans-30"/>
       <use xlink:href="#DejaVuSans-2e" transform="translate(63.623047 0)"/>
       <use xlink:href="#DejaVuSans-30" transform="translate(95.410156 0)"/>
       <use xlink:href="#DejaVuSans-32" transform="translate(159.033203 0)"/>
      </g>
     </g>
    </g>
    <g id="ytick_10">
     <g id="line2d_34">
      <path d="M 749.225 266.221815 
L 1334.16 266.221815 
" clip-path="url(#pdf40931447)" style="fill: none; stroke: #000000; stroke-opacity: 0.4; stroke-linecap: square"/>
     </g>
     <g id="line2d_35">
      <g>
       <use xlink:href="#m5ee1082097" x="749.225" y="266.221815" style="stroke: #000000; stroke-width: 3"/>
      </g>
     </g>
     <g id="text_23">
      <!-- 0.04 -->
      <g transform="translate(702.146875 273.060409) scale(0.18 -0.18)">
       <use xlink:href="#DejaVuSans-30"/>
       <use xlink:href="#DejaVuSans-2e" transform="translate(63.623047 0)"/>
       <use xlink:href="#DejaVuSans-30" transform="translate(95.410156 0)"/>
       <use xlink:href="#DejaVuSans-34" transform="translate(159.033203 0)"/>
      </g>
     </g>
    </g>
    <g id="ytick_11">
     <g id="line2d_36">
      <path d="M 749.225 215.832723 
L 1334.16 215.832723 
" clip-path="url(#pdf40931447)" style="fill: none; stroke: #000000; stroke-opacity: 0.4; stroke-linecap: square"/>
     </g>
     <g id="line2d_37">
      <g>
       <use xlink:href="#m5ee1082097" x="749.225" y="215.832723" style="stroke: #000000; stroke-width: 3"/>
      </g>
     </g>
     <g id="text_24">
      <!-- 0.06 -->
      <g transform="translate(702.146875 222.671317) scale(0.18 -0.18)">
       <use xlink:href="#DejaVuSans-30"/>
       <use xlink:href="#DejaVuSans-2e" transform="translate(63.623047 0)"/>
       <use xlink:href="#DejaVuSans-30" transform="translate(95.410156 0)"/>
       <use xlink:href="#DejaVuSans-36" transform="translate(159.033203 0)"/>
      </g>
     </g>
    </g>
    <g id="ytick_12">
     <g id="line2d_38">
      <path d="M 749.225 165.44363 
L 1334.16 165.44363 
" clip-path="url(#pdf40931447)" style="fill: none; stroke: #000000; stroke-opacity: 0.4; stroke-linecap: square"/>
     </g>
     <g id="line2d_39">
      <g>
       <use xlink:href="#m5ee1082097" x="749.225" y="165.44363" style="stroke: #000000; stroke-width: 3"/>
      </g>
     </g>
     <g id="text_25">
      <!-- 0.08 -->
      <g transform="translate(702.146875 172.282224) scale(0.18 -0.18)">
       <defs>
        <path id="DejaVuSans-38" d="M 2034 2216 
Q 1584 2216 1326 1975 
Q 1069 1734 1069 1313 
Q 1069 891 1326 650 
Q 1584 409 2034 409 
Q 2484 409 2743 651 
Q 3003 894 3003 1313 
Q 3003 1734 2745 1975 
Q 2488 2216 2034 2216 
z
M 1403 2484 
Q 997 2584 770 2862 
Q 544 3141 544 3541 
Q 544 4100 942 4425 
Q 1341 4750 2034 4750 
Q 2731 4750 3128 4425 
Q 3525 4100 3525 3541 
Q 3525 3141 3298 2862 
Q 3072 2584 2669 2484 
Q 3125 2378 3379 2068 
Q 3634 1759 3634 1313 
Q 3634 634 3220 271 
Q 2806 -91 2034 -91 
Q 1263 -91 848 271 
Q 434 634 434 1313 
Q 434 1759 690 2068 
Q 947 2378 1403 2484 
z
M 1172 3481 
Q 1172 3119 1398 2916 
Q 1625 2713 2034 2713 
Q 2441 2713 2670 2916 
Q 2900 3119 2900 3481 
Q 2900 3844 2670 4047 
Q 2441 4250 2034 4250 
Q 1625 4250 1398 4047 
Q 1172 3844 1172 3481 
z
" transform="scale(0.015625)"/>
       </defs>
       <use xlink:href="#DejaVuSans-30"/>
       <use xlink:href="#DejaVuSans-2e" transform="translate(63.623047 0)"/>
       <use xlink:href="#DejaVuSans-30" transform="translate(95.410156 0)"/>
       <use xlink:href="#DejaVuSans-38" transform="translate(159.033203 0)"/>
      </g>
     </g>
    </g>
    <g id="ytick_13">
     <g id="line2d_40">
      <path d="M 749.225 115.054538 
L 1334.16 115.054538 
" clip-path="url(#pdf40931447)" style="fill: none; stroke: #000000; stroke-opacity: 0.4; stroke-linecap: square"/>
     </g>
     <g id="line2d_41">
      <g>
       <use xlink:href="#m5ee1082097" x="749.225" y="115.054538" style="stroke: #000000; stroke-width: 3"/>
      </g>
     </g>
     <g id="text_26">
      <!-- 0.10 -->
      <g transform="translate(702.146875 121.893132) scale(0.18 -0.18)">
       <use xlink:href="#DejaVuSans-30"/>
       <use xlink:href="#DejaVuSans-2e" transform="translate(63.623047 0)"/>
       <use xlink:href="#DejaVuSans-31" transform="translate(95.410156 0)"/>
       <use xlink:href="#DejaVuSans-30" transform="translate(159.033203 0)"/>
      </g>
     </g>
    </g>
    <g id="ytick_14">
     <g id="line2d_42">
      <path d="M 749.225 64.665446 
L 1334.16 64.665446 
" clip-path="url(#pdf40931447)" style="fill: none; stroke: #000000; stroke-opacity: 0.4; stroke-linecap: square"/>
     </g>
     <g id="line2d_43">
      <g>
       <use xlink:href="#m5ee1082097" x="749.225" y="64.665446" style="stroke: #000000; stroke-width: 3"/>
      </g>
     </g>
     <g id="text_27">
      <!-- 0.12 -->
      <g transform="translate(702.146875 71.504039) scale(0.18 -0.18)">
       <use xlink:href="#DejaVuSans-30"/>
       <use xlink:href="#DejaVuSans-2e" transform="translate(63.623047 0)"/>
       <use xlink:href="#DejaVuSans-31" transform="translate(95.410156 0)"/>
       <use xlink:href="#DejaVuSans-32" transform="translate(159.033203 0)"/>
      </g>
     </g>
    </g>
    <g id="text_28">
     <!-- Mean feature importance -->
     <g transform="translate(694.403438 318.652344) rotate(-90) scale(0.18 -0.18)">
      <use xlink:href="#DejaVuSans-4d"/>
      <use xlink:href="#DejaVuSans-65" transform="translate(86.279297 0)"/>
      <use xlink:href="#DejaVuSans-61" transform="translate(147.802734 0)"/>
      <use xlink:href="#DejaVuSans-6e" transform="translate(209.082031 0)"/>
      <use xlink:href="#DejaVuSans-20" transform="translate(272.460938 0)"/>
      <use xlink:href="#DejaVuSans-66" transform="translate(304.248047 0)"/>
      <use xlink:href="#DejaVuSans-65" transform="translate(339.453125 0)"/>
      <use xlink:href="#DejaVuSans-61" transform="translate(400.976562 0)"/>
      <use xlink:href="#DejaVuSans-74" transform="translate(462.255859 0)"/>
      <use xlink:href="#DejaVuSans-75" transform="translate(501.464844 0)"/>
      <use xlink:href="#DejaVuSans-72" transform="translate(564.84375 0)"/>
      <use xlink:href="#DejaVuSans-65" transform="translate(603.707031 0)"/>
      <use xlink:href="#DejaVuSans-20" transform="translate(665.230469 0)"/>
      <use xlink:href="#DejaVuSans-69" transform="translate(697.017578 0)"/>
      <use xlink:href="#DejaVuSans-6d" transform="translate(724.800781 0)"/>
      <use xlink:href="#DejaVuSans-70" transform="translate(822.212891 0)"/>
      <use xlink:href="#DejaVuSans-6f" transform="translate(885.689453 0)"/>
      <use xlink:href="#DejaVuSans-72" transform="translate(946.871094 0)"/>
      <use xlink:href="#DejaVuSans-74" transform="translate(987.984375 0)"/>
      <use xlink:href="#DejaVuSans-61" transform="translate(1027.193359 0)"/>
      <use xlink:href="#DejaVuSans-6e" transform="translate(1088.472656 0)"/>
      <use xlink:href="#DejaVuSans-63" transform="translate(1151.851562 0)"/>
      <use xlink:href="#DejaVuSans-65" transform="translate(1206.832031 0)"/>
     </g>
    </g>
   </g>
   <g id="line2d_44">
    <path clip-path="url(#pdf40931447)" style="fill: none; stroke: #424242; stroke-width: 2.25; stroke-linecap: square"/>
   </g>
   <g id="line2d_45">
    <path clip-path="url(#pdf40931447)" style="fill: none; stroke: #424242; stroke-width: 2.25; stroke-linecap: square"/>
   </g>
   <g id="line2d_46">
    <path clip-path="url(#pdf40931447)" style="fill: none; stroke: #424242; stroke-width: 2.25; stroke-linecap: square"/>
   </g>
   <g id="line2d_47">
    <path clip-path="url(#pdf40931447)" style="fill: none; stroke: #424242; stroke-width: 2.25; stroke-linecap: square"/>
   </g>
   <g id="line2d_48">
    <path clip-path="url(#pdf40931447)" style="fill: none; stroke: #424242; stroke-width: 2.25; stroke-linecap: square"/>
   </g>
   <g id="line2d_49">
    <path clip-path="url(#pdf40931447)" style="fill: none; stroke: #424242; stroke-width: 2.25; stroke-linecap: square"/>
   </g>
   <g id="patch_19">
    <path d="M 749.225 367 
L 749.225 42 
" style="fill: none; stroke: #000000; stroke-width: 2; stroke-linejoin: miter; stroke-linecap: square"/>
   </g>
   <g id="patch_20">
    <path d="M 1334.16 367 
L 1334.16 42 
" style="fill: none; stroke: #000000; stroke-width: 2; stroke-linejoin: miter; stroke-linecap: square"/>
   </g>
   <g id="patch_21">
    <path d="M 749.225 367 
L 1334.16 367 
" style="fill: none; stroke: #000000; stroke-width: 2; stroke-linejoin: miter; stroke-linecap: square"/>
   </g>
   <g id="patch_22">
    <path d="M 749.225 42 
L 1334.16 42 
" style="fill: none; stroke: #000000; stroke-width: 2; stroke-linejoin: miter; stroke-linecap: square"/>
   </g>
   <g id="text_29">
    <!-- Bootstrapped samples of features -->
    <g transform="translate(858.487375 36) scale(0.216 -0.216)">
     <defs>
      <path id="DejaVuSans-42" d="M 1259 2228 
L 1259 519 
L 2272 519 
Q 2781 519 3026 730 
Q 3272 941 3272 1375 
Q 3272 1813 3026 2020 
Q 2781 2228 2272 2228 
L 1259 2228 
z
M 1259 4147 
L 1259 2741 
L 2194 2741 
Q 2656 2741 2882 2914 
Q 3109 3088 3109 3444 
Q 3109 3797 2882 3972 
Q 2656 4147 2194 4147 
L 1259 4147 
z
M 628 4666 
L 2241 4666 
Q 2963 4666 3353 4366 
Q 3744 4066 3744 3513 
Q 3744 3084 3544 2831 
Q 3344 2578 2956 2516 
Q 3422 2416 3680 2098 
Q 3938 1781 3938 1306 
Q 3938 681 3513 340 
Q 3088 0 2303 0 
L 628 0 
L 628 4666 
z
" transform="scale(0.015625)"/>
     </defs>
     <use xlink:href="#DejaVuSans-42"/>
     <use xlink:href="#DejaVuSans-6f" transform="translate(68.603516 0)"/>
     <use xlink:href="#DejaVuSans-6f" transform="translate(129.785156 0)"/>
     <use xlink:href="#DejaVuSans-74" transform="translate(190.966797 0)"/>
     <use xlink:href="#DejaVuSans-73" transform="translate(230.175781 0)"/>
     <use xlink:href="#DejaVuSans-74" transform="translate(282.275391 0)"/>
     <use xlink:href="#DejaVuSans-72" transform="translate(321.484375 0)"/>
     <use xlink:href="#DejaVuSans-61" transform="translate(362.597656 0)"/>
     <use xlink:href="#DejaVuSans-70" transform="translate(423.876953 0)"/>
     <use xlink:href="#DejaVuSans-70" transform="translate(487.353516 0)"/>
     <use xlink:href="#DejaVuSans-65" transform="translate(550.830078 0)"/>
     <use xlink:href="#DejaVuSans-64" transform="translate(612.353516 0)"/>
     <use xlink:href="#DejaVuSans-20" transform="translate(675.830078 0)"/>
     <use xlink:href="#DejaVuSans-73" transform="translate(707.617188 0)"/>
     <use xlink:href="#DejaVuSans-61" transform="translate(759.716797 0)"/>
     <use xlink:href="#DejaVuSans-6d" transform="translate(820.996094 0)"/>
     <use xlink:href="#DejaVuSans-70" transform="translate(918.408203 0)"/>
     <use xlink:href="#DejaVuSans-6c" transform="translate(981.884766 0)"/>
     <use xlink:href="#DejaVuSans-65" transform="translate(1009.667969 0)"/>
     <use xlink:href="#DejaVuSans-73" transform="translate(1071.191406 0)"/>
     <use xlink:href="#DejaVuSans-20" transform="translate(1123.291016 0)"/>
     <use xlink:href="#DejaVuSans-6f" transform="translate(1155.078125 0)"/>
     <use xlink:href="#DejaVuSans-66" transform="translate(1216.259766 0)"/>
     <use xlink:href="#DejaVuSans-20" transform="translate(1251.464844 0)"/>
     <use xlink:href="#DejaVuSans-66" transform="translate(1283.251953 0)"/>
     <use xlink:href="#DejaVuSans-65" transform="translate(1318.457031 0)"/>
     <use xlink:href="#DejaVuSans-61" transform="translate(1379.980469 0)"/>
     <use xlink:href="#DejaVuSans-74" transform="translate(1441.259766 0)"/>
     <use xlink:href="#DejaVuSans-75" transform="translate(1480.46875 0)"/>
     <use xlink:href="#DejaVuSans-72" transform="translate(1543.847656 0)"/>
     <use xlink:href="#DejaVuSans-65" transform="translate(1582.710938 0)"/>
     <use xlink:href="#DejaVuSans-73" transform="translate(1644.234375 0)"/>
    </g>
   </g>
   <g id="legend_2">
    <g id="patch_23">
     <path d="M 1181.7 135.661875 
L 1321.56 135.661875 
Q 1325.16 135.661875 1325.16 132.061875 
L 1325.16 54.6 
Q 1325.16 51 1321.56 51 
L 1181.7 51 
Q 1178.1 51 1178.1 54.6 
L 1178.1 132.061875 
Q 1178.1 135.661875 1181.7 135.661875 
z
" style="fill: #ffffff; stroke: #000000; stroke-linejoin: miter"/>
    </g>
    <g id="text_30">
     <!-- Feature -->
     <g transform="translate(1217.628281 71.877187) scale(0.18 -0.18)">
      <use xlink:href="#DejaVuSans-46"/>
      <use xlink:href="#DejaVuSans-65" transform="translate(52.019531 0)"/>
      <use xlink:href="#DejaVuSans-61" transform="translate(113.542969 0)"/>
      <use xlink:href="#DejaVuSans-74" transform="translate(174.822266 0)"/>
      <use xlink:href="#DejaVuSans-75" transform="translate(214.03125 0)"/>
      <use xlink:href="#DejaVuSans-72" transform="translate(277.410156 0)"/>
      <use xlink:href="#DejaVuSans-65" transform="translate(316.273438 0)"/>
     </g>
    </g>
    <g id="patch_24">
     <path d="M 1185.3 98.297812 
L 1221.3 98.297812 
L 1221.3 85.697812 
L 1185.3 85.697812 
z
" style="fill: #20df20; stroke: #000000; stroke-width: 2; stroke-linejoin: miter"/>
    </g>
    <g id="text_31">
     <!-- Harmony -->
     <g transform="translate(1235.7 98.297812) scale(0.18 -0.18)">
      <use xlink:href="#DejaVuSans-48"/>
      <use xlink:href="#DejaVuSans-61" transform="translate(75.195312 0)"/>
      <use xlink:href="#DejaVuSans-72" transform="translate(136.474609 0)"/>
      <use xlink:href="#DejaVuSans-6d" transform="translate(175.837891 0)"/>
      <use xlink:href="#DejaVuSans-6f" transform="translate(273.25 0)"/>
      <use xlink:href="#DejaVuSans-6e" transform="translate(334.431641 0)"/>
      <use xlink:href="#DejaVuSans-79" transform="translate(397.810547 0)"/>
     </g>
    </g>
    <g id="patch_25">
     <path d="M 1185.3 124.718437 
L 1221.3 124.718437 
L 1221.3 112.118437 
L 1185.3 112.118437 
z
" style="fill: #df2020; stroke: #000000; stroke-width: 2; stroke-linejoin: miter"/>
    </g>
    <g id="text_32">
     <!-- Melody -->
     <g transform="translate(1235.7 124.718437) scale(0.18 -0.18)">
      <use xlink:href="#DejaVuSans-4d"/>
      <use xlink:href="#DejaVuSans-65" transform="translate(86.279297 0)"/>
      <use xlink:href="#DejaVuSans-6c" transform="translate(147.802734 0)"/>
      <use xlink:href="#DejaVuSans-6f" transform="translate(175.585938 0)"/>
      <use xlink:href="#DejaVuSans-64" transform="translate(236.767578 0)"/>
      <use xlink:href="#DejaVuSans-79" transform="translate(300.244141 0)"/>
     </g>
    </g>
   </g>
   <g id="patch_26">
    <path d="M 775.812955 367 
L 851.778539 367 
L 851.778539 224.550345 
L 775.812955 224.550345 
z
" clip-path="url(#pdf40931447)" style="fill: #20df20; stroke: #000000; stroke-width: 2; stroke-linejoin: miter"/>
   </g>
   <g id="patch_27">
    <path d="M 965.726916 367 
L 1041.6925 367 
L 1041.6925 202.617179 
L 965.726916 202.617179 
z
" clip-path="url(#pdf40931447)" style="fill: #20df20; stroke: #000000; stroke-width: 2; stroke-linejoin: miter"/>
   </g>
   <g id="patch_28">
    <path d="M 1155.640877 367 
L 1231.606461 367 
L 1231.606461 276.70151 
L 1155.640877 276.70151 
z
" clip-path="url(#pdf40931447)" style="fill: #20df20; stroke: #000000; stroke-width: 2; stroke-linejoin: miter"/>
   </g>
   <g id="patch_29">
    <path d="M 851.778539 367 
L 927.744123 367 
L 927.744123 329.841909 
L 851.778539 329.841909 
z
" clip-path="url(#pdf40931447)" style="fill: #df2020; stroke: #000000; stroke-width: 2; stroke-linejoin: miter"/>
   </g>
   <g id="patch_30">
    <path d="M 1041.6925 367 
L 1117.658084 367 
L 1117.658084 310.768246 
L 1041.6925 310.768246 
z
" clip-path="url(#pdf40931447)" style="fill: #df2020; stroke: #000000; stroke-width: 2; stroke-linejoin: miter"/>
   </g>
   <g id="patch_31">
    <path d="M 1231.606461 367 
L 1307.572045 367 
L 1307.572045 295.095074 
L 1231.606461 295.095074 
z
" clip-path="url(#pdf40931447)" style="fill: #df2020; stroke: #000000; stroke-width: 2; stroke-linejoin: miter"/>
   </g>
   <g id="patch_32">
    <path d="M 851.778539 367 
L 851.778539 367 
L 851.778539 367 
L 851.778539 367 
z
" clip-path="url(#pdf40931447)" style="fill: #20df20; stroke: #000000; stroke-width: 2; stroke-linejoin: miter"/>
   </g>
   <g id="patch_33">
    <path d="M 851.778539 367 
L 851.778539 367 
L 851.778539 367 
L 851.778539 367 
z
" clip-path="url(#pdf40931447)" style="fill: #df2020; stroke: #000000; stroke-width: 2; stroke-linejoin: miter"/>
   </g>
   <g id="LineCollection_2">
    <path d="M 813.795747 266.063645 
L 813.795747 183.037045 
" clip-path="url(#pdf40931447)" style="fill: none; stroke: #000000; stroke-width: 2"/>
    <path d="M 889.761331 367.471412 
L 889.761331 292.212405 
" clip-path="url(#pdf40931447)" style="fill: none; stroke: #000000; stroke-width: 2"/>
    <path d="M 1003.709708 244.561116 
L 1003.709708 160.673242 
" clip-path="url(#pdf40931447)" style="fill: none; stroke: #000000; stroke-width: 2"/>
    <path d="M 1079.675292 344.783538 
L 1079.675292 276.752954 
" clip-path="url(#pdf40931447)" style="fill: none; stroke: #000000; stroke-width: 2"/>
    <path d="M 1193.623669 329.161355 
L 1193.623669 224.241665 
" clip-path="url(#pdf40931447)" style="fill: none; stroke: #000000; stroke-width: 2"/>
    <path d="M 1269.589253 351.169091 
L 1269.589253 239.021058 
" clip-path="url(#pdf40931447)" style="fill: none; stroke: #000000; stroke-width: 2"/>
   </g>
   <g id="line2d_50">
    <g clip-path="url(#pdf40931447)">
     <use xlink:href="#m0689f4fb67" x="813.795747" y="266.063645" style="stroke: #000000"/>
     <use xlink:href="#m0689f4fb67" x="889.761331" y="367.471412" style="stroke: #000000"/>
     <use xlink:href="#m0689f4fb67" x="1003.709708" y="244.561116" style="stroke: #000000"/>
     <use xlink:href="#m0689f4fb67" x="1079.675292" y="344.783538" style="stroke: #000000"/>
     <use xlink:href="#m0689f4fb67" x="1193.623669" y="329.161355" style="stroke: #000000"/>
     <use xlink:href="#m0689f4fb67" x="1269.589253" y="351.169091" style="stroke: #000000"/>
    </g>
   </g>
   <g id="line2d_51">
    <g clip-path="url(#pdf40931447)">
     <use xlink:href="#m0689f4fb67" x="813.795747" y="183.037045" style="stroke: #000000"/>
     <use xlink:href="#m0689f4fb67" x="889.761331" y="292.212405" style="stroke: #000000"/>
     <use xlink:href="#m0689f4fb67" x="1003.709708" y="160.673242" style="stroke: #000000"/>
     <use xlink:href="#m0689f4fb67" x="1079.675292" y="276.752954" style="stroke: #000000"/>
     <use xlink:href="#m0689f4fb67" x="1193.623669" y="224.241665" style="stroke: #000000"/>
     <use xlink:href="#m0689f4fb67" x="1269.589253" y="239.021058" style="stroke: #000000"/>
    </g>
   </g>
   <g id="line2d_52"/>
  </g>
 </g>
 <defs>
  <clipPath id="p70739942f2">
   <rect x="76.43" y="42" width="584.935" height="325"/>
  </clipPath>
  <clipPath id="pdf40931447">
   <rect x="749.225" y="42" width="584.935" height="325"/>
  </clipPath>
 </defs>
</svg>
